<?xml version="1.0" standalone="no"?>
<!DOCTYPE svg PUBLIC "-//W3C//DTD SVG 20010904//EN"
 "http://www.w3.org/TR/2001/REC-SVG-20010904/DTD/svg10.dtd">
<svg version="1.0" xmlns="http://www.w3.org/2000/svg"
 width="1000.000000pt" height="820.000000pt" viewBox="0 0 1000.000000 820.000000"
 preserveAspectRatio="xMidYMid meet">

<g transform="translate(0.000000,820.000000) scale(0.100000,-0.100000)"
fill="#000000" stroke="none">
<path d="M6299 7401 c-47 -10 -122 -54 -148 -87 -12 -15 -29 -48 -38 -74 -17
-48 -17 -48 -77 -58 -588 -101 -712 -122 -718 -122 -5 0 -8 6 -8 13 0 25 -63
88 -114 114 -63 32 -159 36 -221 9 -71 -30 -130 -100 -145 -171 -5 -27 -10
-30 -55 -37 -168 -23 -649 -58 -806 -58 l-106 0 -6 30 c-8 38 -70 106 -120
131 -94 49 -217 30 -291 -45 -24 -24 -49 -59 -55 -79 l-13 -37 -96 0 c-198 0
-612 32 -972 75 -107 13 -196 22 -197 21 -2 -2 6 -83 17 -182 10 -98 35 -327
55 -509 19 -181 40 -368 45 -415 6 -47 22 -191 35 -320 14 -129 30 -271 35
-315 30 -252 63 -576 58 -580 -3 -3 -236 -7 -519 -8 -568 -3 -555 -2 -704 -71
-139 -65 -237 -161 -307 -300 -58 -116 -58 -101 -58 -1168 l0 -976 58 4 c31 2
201 11 377 19 176 8 479 22 673 31 194 9 355 15 357 13 2 -2 -12 -65 -32 -139
-84 -327 -107 -494 -108 -770 0 -230 8 -300 51 -434 33 -103 62 -159 120 -232
161 -202 387 -267 749 -215 223 32 696 115 1293 226 648 120 1307 206 1796
235 360 21 1034 11 1376 -20 221 -20 526 -51 590 -60 35 -5 66 -8 67 -6 2 2
-5 73 -16 157 -76 579 -169 1328 -178 1422 l-6 67 44 0 c107 0 843 31 924 39
50 5 116 19 147 31 97 36 194 138 239 251 45 114 47 154 54 972 4 427 6 777 4
778 -2 1 -338 6 -746 13 -409 7 -745 14 -747 17 -3 2 11 70 30 149 177 750
282 1589 245 1960 -25 254 -86 407 -211 532 -180 181 -378 215 -840 143 -124
-19 -286 -46 -360 -59 l-135 -24 -32 38 c-55 64 -164 99 -254 81z m104 -163
c34 -18 46 -40 47 -85 0 -35 -5 -45 -32 -67 -18 -15 -39 -31 -46 -37 -24 -19
-10 -61 23 -72 17 -5 77 -55 134 -111 58 -55 106 -95 108 -89 4 11 95 -38 163
-89 15 -11 98 -44 185 -74 126 -43 160 -52 177 -43 17 9 25 5 58 -29 84 -89
171 -438 216 -862 31 -297 34 -820 5 -1090 -18 -165 -6 -150 -117 -150 -52 0
-125 5 -162 11 l-67 11 0 382 c0 379 -5 466 -41 681 -27 163 -58 296 -65 283
-24 -45 -63 -672 -43 -686 6 -4 16 -42 23 -85 11 -67 10 -80 -2 -90 -12 -10
-12 -28 -1 -127 8 -63 25 -176 39 -251 33 -178 33 -177 -10 -195 -46 -19 -281
-38 -370 -29 -79 8 -112 22 -147 64 -25 29 -78 179 -99 281 -12 61 -28 98 -29
68 0 -32 -71 -264 -96 -315 -32 -67 -69 -89 -159 -98 -76 -7 -334 10 -347 23
-10 10 55 75 77 78 13 2 14 0 4 -12 -10 -12 -9 -13 4 -9 8 4 17 16 20 28 3 12
8 33 12 47 6 21 4 20 -14 -7 -32 -50 -31 -39 1 25 27 53 29 63 24 141 -5 98 0
122 21 91 8 -11 23 -20 35 -20 39 0 193 52 210 71 15 17 15 24 2 71 -12 43
-12 64 -3 114 15 77 4 149 -51 353 -42 151 -90 384 -114 548 -20 134 -71 373
-96 448 -45 136 -122 224 -201 230 -24 2 -51 4 -59 5 -8 0 47 23 122 49 76 27
161 64 190 83 107 71 138 88 138 77 0 -17 55 27 138 112 54 54 88 81 110 85
29 6 32 10 32 46 0 33 5 41 33 58 32 19 57 56 57 84 0 16 -38 66 -51 66 -5 0
-8 -6 -6 -12 1 -9 -15 -15 -46 -18 -39 -4 -52 -10 -63 -30 l-13 -25 -1 33 c0
46 0 46 34 58 42 16 83 16 109 2z m1193 -172 c143 -65 207 -194 220 -446 13
-228 -56 -878 -157 -1490 -43 -264 -93 -498 -84 -400 48 549 66 1124 45 1470
-19 313 -57 498 -123 597 -82 123 -282 194 -592 210 l-130 7 265 42 c219 36
285 43 380 41 102 -2 122 -6 176 -31z m-2473 -16 c33 -26 41 -63 22 -100 -9
-17 -20 -30 -25 -30 -17 0 -40 -31 -40 -55 0 -16 7 -25 24 -29 14 -3 62 -44
107 -91 72 -74 87 -85 117 -85 26 0 43 -9 70 -36 44 -44 193 -105 265 -109
122 -6 182 -148 261 -620 39 -232 81 -430 126 -594 46 -169 59 -269 41 -324
-10 -28 -9 -47 3 -91 8 -31 11 -58 8 -60 -20 -12 -154 -46 -161 -41 -5 3 -15
28 -22 56 -11 41 -19 53 -46 66 -18 8 -44 34 -58 57 -14 22 -25 36 -25 31 0
-6 9 -100 20 -208 l21 -198 -32 -60 c-85 -159 -291 -265 -592 -303 -118 -15
-136 -15 -255 0 -242 31 -402 95 -513 204 -36 36 -76 87 -88 113 l-23 48 16
162 c9 89 19 182 22 207 4 38 3 42 -7 25 -20 -34 -63 -77 -85 -85 -15 -6 -25
-24 -34 -59 -7 -28 -16 -53 -21 -56 -6 -4 -149 30 -166 40 -1 0 4 29 12 63 10
43 12 69 5 87 -22 59 -11 143 48 365 45 164 65 264 112 530 67 389 113 542
185 613 30 29 30 29 90 32 62 3 226 71 253 106 17 21 35 31 65 35 36 5 53 18
122 89 44 45 90 86 103 89 16 6 22 15 22 36 0 16 7 35 16 42 44 37 54 50 54
76 0 17 -9 37 -21 48 -15 14 -20 15 -17 4 2 -11 -8 -16 -38 -18 -31 -2 -44 -9
-52 -25 -10 -21 -11 -21 -11 -1 -1 11 -6 25 -13 32 -9 9 -8 12 3 15 8 2 28 9
44 15 45 15 60 14 88 -8z m-1445 -100 c46 -43 37 -111 -18 -144 -42 -24 -42
-71 -1 -88 44 -19 124 -97 117 -115 -4 -9 -1 -13 6 -10 7 2 21 -2 30 -11 20
-17 13 -36 -34 -90 -27 -32 -28 -32 -24 -9 2 14 -1 31 -7 39 -7 7 -11 11 -10
9 1 -2 -9 -12 -22 -23 -14 -11 -22 -24 -19 -30 4 -6 3 -8 -3 -5 -5 3 -17 -10
-26 -29 -29 -59 -22 -66 31 -34 24 15 31 24 24 33 -11 13 0 51 17 61 12 8 4
-21 -11 -40 -5 -7 -3 -14 7 -18 10 -3 28 11 54 44 22 27 41 55 43 61 2 7 31
-5 73 -31 75 -46 149 -81 288 -137 48 -19 87 -39 87 -43 0 -4 -9 -36 -19 -71
-10 -35 -29 -111 -41 -169 -12 -58 -25 -112 -28 -120 -3 -8 -4 -26 -3 -40 2
-20 0 -22 -9 -10 -9 12 -10 8 -5 -17 6 -28 -22 -206 -45 -293 l-10 -35 5 40
c3 22 12 76 20 120 8 44 17 98 20 120 4 32 2 29 -9 -15 -23 -87 -57 -300 -51
-319 3 -9 -16 -98 -41 -197 -48 -188 -64 -311 -46 -362 7 -21 6 -46 -4 -91
-19 -79 -11 -94 63 -114 51 -15 58 -20 60 -43 0 -15 6 -36 12 -48 8 -15 9 -46
4 -100 l-8 -78 -94 -29 c-51 -16 -127 -36 -170 -44 -85 -17 -239 -34 -246 -26
-3 2 -5 455 -5 1006 0 1094 -4 1010 54 1097 l18 27 -42 21 -41 21 -38 -22 -39
-21 30 -42 c16 -23 33 -60 38 -82 9 -39 14 -1996 5 -2005 -7 -8 -174 9 -255
26 -41 8 -119 29 -173 46 l-99 30 7 40 c4 26 3 45 -5 54 -8 9 -10 28 -5 51 4
24 3 34 -4 29 -6 -3 -11 -14 -11 -24 0 -10 -11 -34 -24 -54 -18 -26 -26 -53
-28 -94 l-3 -58 -98 2 c-55 1 -101 4 -104 7 -3 2 -5 26 -5 53 0 26 -7 67 -15
91 -14 37 -15 88 -10 370 13 671 75 1274 139 1353 7 9 63 35 123 59 121 47
261 115 315 152 45 31 67 43 58 33 -4 -4 -1 -19 7 -34 16 -31 105 -120 105
-105 0 5 -6 16 -12 23 -11 11 -10 13 0 7 7 -4 15 -1 18 8 3 9 10 13 16 10 5
-3 1 -12 -9 -19 -17 -13 -16 -14 10 -24 32 -13 37 -25 5 -16 -15 5 -20 4 -13
-3 6 -5 20 -13 32 -16 21 -7 22 -6 11 24 -7 23 -15 30 -27 25 -13 -5 -13 -4
-4 6 19 19 -4 44 -25 27 -13 -11 -14 -10 -5 7 9 17 6 26 -19 55 -16 19 -23 24
-15 11 14 -21 14 -26 0 -47 l-15 -24 -24 27 c-42 49 -37 63 46 146 38 37 75
67 84 67 18 0 36 30 36 58 0 11 16 32 35 46 28 21 35 34 35 60 0 39 -33 78
-43 51 -4 -10 -20 -15 -47 -15 -33 0 -42 -4 -50 -22 -5 -14 -9 -17 -10 -8 0 8
-3 24 -6 35 -10 40 107 59 144 25z m2347 -65 c-10 -9 -73 -42 -140 -75 -125
-63 -246 -100 -324 -100 -57 0 -162 23 -216 45 l-40 17 350 59 c193 33 355 61
360 63 23 10 29 4 10 -9z m1095 -41 c227 -51 314 -152 355 -409 15 -94 39
-385 32 -391 -2 -2 -12 44 -21 102 -56 342 -151 498 -368 603 -57 28 -146 62
-198 76 -52 15 -104 31 -115 36 -34 16 233 2 315 -17z m-2565 -204 c-128 -63
-215 -85 -330 -84 -97 0 -189 24 -255 66 l-35 23 170 8 c94 4 240 13 325 21
245 21 241 22 125 -34z m-1573 19 c148 -7 266 -15 263 -18 -3 -2 -123 -47
-267 -98 -144 -51 -262 -94 -264 -95 -1 -2 -8 -350 -14 -773 -18 -1220 -9
-1218 -113 -35 -49 553 -91 1014 -94 1024 -5 18 0 19 108 13 63 -4 234 -12
381 -18z m531 -169 c-3 -11 -10 -23 -16 -27 -5 -3 -8 -2 -5 3 3 5 8 17 11 27
9 24 16 22 10 -3z m192 -51 c11 -17 -1 -21 -15 -4 -8 9 -8 15 -2 15 6 0 14 -5
17 -11z m-21 -18 c3 -5 -1 -11 -9 -14 -9 -4 -12 -1 -8 9 6 16 10 17 17 5z
m433 -873 c-3 -7 -5 -2 -5 12 0 14 2 19 5 13 2 -7 2 -19 0 -25z m174 -837
l-14 -149 -26 4 c-36 6 -68 45 -76 93 -4 23 -11 41 -16 41 -6 0 -7 5 -4 10 3
6 0 10 -7 10 -9 0 -9 3 2 10 8 5 32 7 52 3 49 -7 62 4 78 72 7 30 16 55 19 55
3 0 0 -67 -8 -149z m1584 102 c3 -17 2 -34 -3 -37 -6 -3 -12 14 -14 39 -3 49
6 48 17 -2z m-1590 -364 l40 -6 -47 -2 -48 -1 2 63 1 62 6 -55 6 -55 40 -6z
m34 44 c12 -24 19 -43 17 -43 -8 0 -46 67 -46 80 0 18 4 13 29 -37z m-554
-173 l610 -8 70 -47 70 -48 -685 7 c-377 3 -882 6 -1122 6 l-438 0 0 56 0 56
443 -7 c243 -3 717 -10 1052 -15z m-1605 -30 l0 -40 -262 -2 -263 -3 -3 -592
-2 -593 265 0 265 0 0 -45 0 -46 -382 3 c-372 3 -385 4 -440 26 -82 33 -142
83 -172 144 l-26 52 0 450 c1 486 1 492 55 561 33 45 85 79 156 105 50 18 83
19 432 20 l377 0 0 -40z m5125 -15 c737 -8 1431 -18 1542 -21 195 -6 202 -7
192 -25 -9 -18 -34 -19 -728 -19 -395 0 -1150 3 -1679 7 l-962 6 55 36 c54 35
56 36 147 34 51 -2 696 -9 1433 -18z m-5299 -172 c-3 -10 -50 -216 -106 -458
-56 -242 -103 -444 -105 -450 -2 -5 -4 200 -4 458 l-1 467 111 0 c100 0 110
-2 105 -17z m934 -5 c0 -43 -99 -880 -105 -886 -3 -3 -5 197 -5 445 0 247 3
453 7 456 3 4 28 7 55 7 43 0 48 -2 48 -22z m-230 -533 l0 -525 160 0 160 0 0
-35 0 -35 -365 0 -365 0 0 560 0 560 205 0 205 0 0 -525z m1236 485 c48 -25
77 -47 99 -78 l30 -44 3 -374 c2 -245 -1 -388 -8 -414 -14 -51 -68 -105 -139
-139 l-56 -26 -295 0 c-287 0 -296 1 -345 23 -27 13 -65 37 -83 55 -68 65 -67
55 -70 454 -2 241 1 375 8 402 13 48 56 101 108 133 69 43 110 47 403 45 l276
-2 69 -35z m1082 8 l-3 -33 -122 -3 -123 -3 0 -524 0 -525 -205 0 -205 0 0
525 0 525 -125 0 -125 0 0 35 0 35 456 0 455 0 -3 -32z m514 -230 l3 -261 80
-1 80 -1 3 263 2 262 205 0 205 0 0 -560 0 -560 -205 0 -205 0 -2 263 -3 262
-82 3 -83 3 0 -266 0 -265 -205 0 -205 0 0 560 0 560 205 0 205 0 2 -262z
m1146 -268 c2 -289 0 -540 -3 -557 l-6 -33 -204 0 -205 0 0 560 0 560 208 -2
207 -3 3 -525z m619 415 c18 -60 78 -270 134 -465 56 -195 105 -359 109 -364
5 -4 6 131 3 300 -3 170 -2 384 2 477 l7 167 164 0 164 0 0 -560 0 -560 -194
0 -194 0 -20 68 c-11 37 -59 202 -107 367 -48 165 -95 327 -105 360 l-18 60
-1 -427 -1 -428 -205 0 -205 0 0 560 0 560 217 -2 217 -3 33 -110z m1609 75
c97 -50 126 -93 132 -200 l5 -80 -174 2 -174 3 4 123 3 122 -141 0 -141 0 0
-490 0 -490 105 0 105 0 0 215 0 215 -60 0 -60 0 0 30 0 30 266 0 265 0 -3
-199 -3 -199 -30 -44 c-22 -31 -49 -52 -100 -78 l-69 -35 -288 -3 c-244 -3
-297 -1 -344 13 -60 17 -118 50 -146 82 -46 51 -48 72 -48 466 0 371 0 374 23
418 14 27 42 57 71 77 87 58 110 62 437 59 l296 -2 69 -35z m-4667 -167 c0
-27 -11 -214 -23 -418 l-23 -370 -2 418 -1 417 25 0 c23 0 25 -3 24 -47z m738
5 c-3 -24 -20 -212 -38 -418 -17 -206 -34 -383 -38 -393 -3 -10 -6 178 -6 418
l0 435 44 0 43 0 -5 -42z m1292 -1035 c113 -32 172 -65 252 -141 142 -133 155
-287 36 -406 -60 -60 -126 -94 -211 -109 -63 -11 -97 -27 -58 -27 37 0 208
-66 256 -100 93 -63 100 -100 57 -290 -40 -181 -21 -281 59 -316 l42 -19 -49
-12 c-65 -17 -129 -16 -191 2 -132 40 -172 135 -172 415 0 144 -18 182 -110
228 -36 17 -79 35 -97 38 l-32 6 10 -33 c6 -19 13 -91 16 -160 11 -251 -61
-417 -212 -488 -55 -26 -148 -37 -220 -27 l-46 7 41 45 c48 52 74 108 103 224
19 76 21 113 22 340 0 281 -20 491 -66 693 -10 42 -14 47 -33 42 -19 -6 -20
-5 -3 8 9 8 17 20 17 26 0 7 4 10 9 7 5 -4 43 7 84 24 69 27 126 43 202 54 62
9 211 -6 294 -31z m-1767 1 c4 -3 -7 -27 -24 -54 -17 -27 -45 -86 -64 -132
l-33 -83 57 -5 57 -5 -45 -14 c-90 -26 -84 -19 -113 -147 -46 -205 -52 -252
-51 -449 0 -213 13 -294 64 -403 50 -107 131 -189 203 -208 43 -10 31 -21 -29
-27 -270 -28 -469 186 -540 583 -25 136 -23 392 3 523 l20 98 -39 16 c-103 41
-102 134 3 256 l42 49 33 -62 c18 -35 36 -65 38 -68 3 -3 30 17 59 45 62 59
85 72 152 89 45 12 187 10 207 -2z m2875 -19 c142 -70 205 -237 158 -420 -53
-205 -207 -412 -420 -563 -50 -35 -96 -67 -104 -72 -12 -6 -8 -17 18 -58 70
-110 154 -157 263 -150 92 5 173 52 240 135 33 42 33 42 9 -29 -29 -84 -49
-117 -108 -179 -79 -83 -151 -114 -268 -114 -77 0 -98 4 -148 27 -75 35 -166
123 -207 199 -31 58 -33 60 -63 54 l-32 -7 28 24 c27 22 28 24 14 63 -42 120
-55 352 -28 505 68 383 283 632 531 615 41 -3 83 -14 117 -30z m-3855 10 c95
-20 150 -46 209 -102 77 -72 103 -130 104 -229 0 -72 -3 -85 -30 -129 -19 -31
-49 -61 -79 -79 -41 -26 -60 -30 -137 -34 -81 -4 -94 -2 -144 23 -75 36 -110
88 -110 161 0 55 19 93 63 122 22 14 22 14 7 -14 -21 -40 -19 -64 7 -91 41
-44 154 -26 208 32 20 21 25 37 24 76 -1 59 -37 110 -105 149 -37 21 -57 25
-129 25 -73 0 -93 -4 -142 -28 -146 -72 -185 -223 -89 -345 47 -58 106 -108
291 -247 344 -256 448 -374 480 -545 18 -95 -8 -168 -85 -239 -117 -108 -353
-164 -587 -140 -100 10 -223 43 -287 78 -31 17 -39 17 -89 4 -30 -8 -57 -12
-60 -9 -3 3 -1 6 5 6 6 0 27 7 48 16 l38 15 -46 47 c-175 178 -68 401 202 419
139 10 241 -39 277 -133 15 -40 16 -53 5 -92 -6 -24 -21 -58 -33 -75 -24 -34
-95 -81 -147 -98 -56 -18 -56 -25 0 -53 95 -47 220 -28 304 46 53 47 69 91 62
169 -10 118 -100 226 -362 436 -246 196 -338 301 -365 414 -42 174 76 341 290
413 134 44 285 56 402 31z m1568 2 c0 -2 -22 -18 -49 -36 -96 -61 -187 -209
-233 -376 -19 -70 -22 -106 -22 -285 -1 -182 2 -215 23 -300 46 -187 128 -322
216 -355 109 -42 192 55 229 268 45 257 19 572 -58 725 -28 55 -87 112 -116
112 -24 0 -48 -24 -56 -57 -11 -42 15 -128 56 -193 l40 -60 -31 16 c-46 23
-118 93 -139 134 -59 116 -13 236 112 290 43 19 65 22 128 18 146 -9 277 -103
350 -252 64 -130 75 -187 74 -371 -1 -192 -18 -265 -96 -425 -128 -264 -335
-363 -613 -293 -186 46 -334 192 -402 398 -25 73 -27 94 -27 240 -1 138 2 171
22 240 64 225 203 402 389 494 72 37 203 80 203 68z m3908 -28 l-47 -31 -578
-14 c-318 -7 -621 -13 -673 -13 l-95 0 -33 44 -33 45 753 0 753 0 -47 -31z
m-4293 -11 c-22 -18 -61 -52 -86 -75 -25 -24 -54 -43 -63 -43 -15 0 -15 4 5
40 12 22 36 56 51 75 27 32 34 35 81 35 l52 0 -40 -32z m791 -7 l-38 -39 -52
36 c-28 20 -53 37 -55 39 -2 2 38 3 89 3 l94 0 -38 -39z m1337 -6 l-38 -44
-75 0 c-75 0 -75 0 -125 44 l-49 45 162 0 163 0 -38 -45z m-4006 -18 c-29 -29
-63 -76 -77 -104 l-25 -51 -130 -6 c-71 -4 -422 -15 -780 -26 -357 -11 -680
-21 -717 -23 l-68 -3 0 133 0 133 924 0 924 0 -51 -53z m4888 -899 c30 -317
55 -583 55 -590 0 -12 -25 -11 -147 8 -81 13 -154 25 -163 27 -8 2 31 7 88 11
l102 8 2 591 c0 326 3 576 5 557 2 -19 28 -294 58 -612z m-5058 475 c-54 -166
-97 -453 -97 -642 0 -339 104 -553 307 -632 45 -17 84 -23 173 -26 98 -4 154
2 375 36 1166 181 2176 258 3005 231 428 -14 600 -27 975 -72 208 -26 209 -34
3 -18 -231 18 -797 24 -1083 11 -894 -39 -1935 -172 -3035 -386 -225 -44 -302
-55 -382 -55 -204 0 -334 73 -413 233 -53 108 -68 208 -62 402 8 267 74 548
207 893 34 88 52 106 27 25z m1176 -175 c-2 -35 -5 -69 -6 -76 -1 -7 -27 7
-60 34 -32 25 -56 49 -52 52 6 6 104 49 116 51 3 1 4 -27 2 -61z m1195 12 c39
-17 52 -28 52 -44 0 -41 -34 -375 -38 -371 -4 4 -92 421 -92 437 0 6 6 8 13 5
6 -3 36 -15 65 -27z m-2058 -251 c0 -3 -46 -18 -102 -34 -57 -15 -109 -30
-116 -33 -9 -3 -11 9 -7 49 2 30 7 94 11 143 l6 89 104 -104 c57 -57 104 -106
104 -110z m4444 -87 c-36 -67 -70 -122 -77 -122 -23 0 -127 24 -126 30 1 6
263 219 266 216 2 -2 -27 -57 -63 -124z m-1221 -314 c4 -42 2 -47 -21 -57 -13
-7 -26 -10 -28 -8 -2 2 4 43 13 92 19 94 23 91 36 -27z m1430 -325 c-7 -2 -21
-2 -30 0 -10 3 -4 5 12 5 17 0 24 -2 18 -5z"/>
<path d="M6208 6767 c-70 -34 -127 -65 -127 -69 -1 -6 45 14 255 114 19 9 109
-27 267 -108 15 -8 27 -11 27 -7 0 11 -261 134 -280 132 -8 0 -72 -28 -142
-62z"/>
<path d="M6212 6741 c-153 -75 -143 -55 -100 -198 l21 -73 222 0 222 0 27 88
c14 48 26 94 26 102 0 14 -259 152 -278 148 -4 0 -67 -31 -140 -67z m215 -103
c-2 -13 -4 -3 -4 22 0 25 2 35 4 23 2 -13 2 -33 0 -45z"/>
<path d="M5857 6443 c27 -61 43 -79 43 -47 0 9 -5 12 -12 8 -8 -5 -9 -2 -5 9
3 10 2 17 -3 17 -6 0 -10 6 -10 13 0 6 -9 23 -20 37 -16 20 -14 12 7 -37z"/>
<path d="M6150 6438 c0 -6 30 -95 66 -197 36 -102 82 -250 103 -329 l37 -143
28 113 c16 62 62 210 103 328 40 118 75 220 76 225 1 6 -74 11 -205 13 -156 2
-208 -1 -208 -10z"/>
<path d="M5903 6341 c20 -44 58 -117 53 -101 -2 8 -12 40 -21 71 -9 31 -23 56
-30 56 -10 0 -11 -6 -2 -26z"/>
<path d="M5886 4694 c2 -32 7 -60 11 -63 3 -4 4 9 1 27 -2 17 -2 32 2 32 12 0
8 39 -5 50 -12 10 -14 3 -9 -46z"/>
<path d="M5785 4411 c-3 -5 0 -13 6 -17 8 -4 9 -3 5 4 -4 7 -3 12 3 12 5 0 11
-5 13 -12 4 -12 28 -3 28 10 0 11 -48 13 -55 3z"/>
<path d="M5040 6795 c0 -8 5 -17 10 -20 6 -4 8 -11 4 -16 -3 -6 2 -9 12 -7 12
2 18 -2 16 -10 -1 -8 3 -12 10 -9 7 2 12 11 10 18 -2 8 0 10 5 6 4 -5 8 -13 8
-19 0 -6 10 -17 23 -25 14 -10 22 -11 22 -4 0 6 -6 11 -14 11 -8 0 -18 5 -22
12 -5 7 -2 9 9 5 9 -3 18 -1 21 6 3 9 5 8 5 -1 1 -7 5 -11 10 -7 8 4 9 -37 2
-53 0 -1 -23 9 -50 22 -36 19 -51 22 -60 13 -6 -6 -11 -7 -11 -3 0 5 -7 3 -14
-4 -13 -10 -14 -7 -10 14 2 13 0 28 -6 31 -5 3 -10 11 -10 17 0 7 5 6 14 -1
12 -10 13 -8 9 9 l-6 22 -20 -21 c-11 -11 -21 -31 -23 -45 -3 -27 10 -36 19
-13 3 6 6 3 6 -9 1 -30 -10 -37 -26 -16 -13 15 -13 15 -8 -8 5 -19 4 -21 -4
-10 -9 13 -12 13 -23 1 -10 -10 -10 -12 0 -7 6 4 12 3 12 -2 0 -6 -7 -13 -16
-16 -8 -3 -12 -2 -9 4 3 6 0 10 -7 10 -7 0 2 13 20 29 17 17 32 33 32 37 0 4
-24 -15 -52 -43 -29 -27 -65 -57 -80 -67 -16 -10 -28 -27 -28 -37 0 -17 13
-13 102 32 142 71 180 71 313 0 52 -28 98 -51 100 -51 3 0 5 9 5 20 0 13 -14
27 -40 40 -55 28 -64 24 -10 -5 54 -29 45 -33 -10 -5 -22 11 -40 25 -40 31 0
6 -4 8 -8 5 -5 -3 -9 1 -9 9 0 8 4 15 9 15 4 0 8 -4 8 -10 0 -5 6 -10 13 -10
6 1 2 9 -11 20 -13 10 -30 16 -37 13 -8 -3 -15 0 -15 6 0 6 6 11 13 11 6 0 0
12 -15 25 -16 13 -28 29 -28 34 0 19 -44 39 -82 39 -25 0 -38 -5 -38 -13z m33
-7 c4 -10 8 -9 16 2 10 13 13 13 24 -1 6 -9 15 -17 20 -17 11 -3 10 -16 -2
-20 -6 -2 -11 2 -11 8 0 7 -7 10 -15 6 -16 -6 -55 13 -55 26 0 13 18 9 23 -4z
m-58 -38 c3 -5 2 -10 -4 -10 -5 0 -13 5 -16 10 -3 6 -2 10 4 10 5 0 13 -4 16
-10z m198 -77 c-3 -6 -11 -9 -19 -6 -20 7 -17 19 5 19 11 0 17 -6 14 -13z
m-299 -27 c-3 -9 -10 -16 -15 -16 -6 0 -5 9 1 21 13 24 24 20 14 -5z m-34 -15
c0 -5 -7 -12 -16 -15 -14 -5 -15 -4 -4 9 14 17 20 19 20 6z"/>
<path d="M5036 6734 c-5 -14 20 -12 34 2 6 6 3 10 -10 10 -11 0 -22 -6 -24
-12z"/>
<path d="M4931 6405 c7 -6 289 -8 296 -1 4 3 -63 6 -147 6 -84 0 -151 -2 -149
-5z"/>
<path d="M3452 6597 c-8 -10 -6 -13 7 -13 11 0 17 6 14 13 -3 7 -6 13 -8 13
-1 0 -7 -6 -13 -13z"/>
<path d="M3570 6565 c-56 -30 -46 -33 14 -4 l44 22 36 -23 c21 -12 40 -20 42
-17 6 6 -69 47 -83 47 -4 -1 -28 -12 -53 -25z"/>
<path d="M2960 4511 c0 -26 5 -41 16 -45 8 -3 13 -2 10 2 -3 5 -1 25 4 45 7
33 6 37 -11 37 -15 0 -19 -7 -19 -39z m17 -3 c-3 -7 -5 -2 -5 12 0 14 2 19 5
13 2 -7 2 -19 0 -25z"/>
<path d="M4236 4722 c-22 -11 -25 -16 -15 -23 12 -7 11 -9 -1 -9 -12 -1 -11
-3 3 -11 9 -5 17 -15 17 -22 0 -8 -3 -8 -9 2 -6 9 -8 5 -8 -14 0 -29 22 -44
39 -27 7 7 7 16 0 27 -5 10 -6 33 -1 54 4 19 7 36 6 36 -1 1 -15 -5 -31 -13z
m21 -88 c-3 -3 -12 -4 -19 -1 -8 3 -5 6 6 6 11 1 17 -2 13 -5z"/>
<path d="M3480 3530 l0 -490 85 0 85 0 0 490 0 490 -85 0 -85 0 0 -490z"/>
<path d="M5752 2791 c-18 -5 -35 -11 -38 -14 -3 -3 20 -38 51 -78 94 -122 171
-261 238 -434 14 -36 18 -40 47 -37 17 1 48 11 69 22 97 49 142 119 142 219 1
94 -25 156 -90 222 -78 77 -142 101 -281 105 -58 2 -120 -1 -138 -5z m331
-161 c10 -9 -2 -140 -12 -140 -5 0 -88 152 -99 181 -4 10 97 -27 111 -41z"/>
<path d="M7048 2603 c-71 -49 -112 -153 -128 -324 -11 -119 -2 -288 21 -371
l10 -41 46 44 c24 24 74 82 109 129 178 236 211 421 95 534 -48 47 -110 58
-153 29z m36 -257 c-20 -53 -39 -94 -42 -92 -2 3 -1 41 3 86 7 79 8 81 39 94
17 7 33 12 35 10 2 -2 -14 -46 -35 -98z"/>
<path d="M3097 1670 c-52 -33 -63 -144 -21 -228 25 -51 26 -52 53 -38 35 19
101 87 124 128 42 79 6 139 -85 145 -29 2 -61 -1 -71 -7z"/>
</g>
</svg>
