<?xml version="1.0" standalone="no"?>
<!DOCTYPE svg PUBLIC "-//W3C//DTD SVG 20010904//EN"
 "http://www.w3.org/TR/2001/REC-SVG-20010904/DTD/svg10.dtd">
<svg version="1.0" xmlns="http://www.w3.org/2000/svg"
 width="892.000000pt" height="881.000000pt" viewBox="0 0 892.000000 881.000000"
 preserveAspectRatio="xMidYMid meet">
<metadata>
Created by potrace 1.16, written by Peter Selinger 2001-2019
</metadata>
<g transform="translate(0.000000,881.000000) scale(0.100000,-0.100000)"
fill="#000000" stroke="none">
<path d="M4153 8736 c-39 -8 -107 -26 -151 -40 -92 -31 -326 -146 -326 -161 1
-5 52 -36 115 -68 123 -62 192 -78 269 -64 72 13 93 13 97 0 8 -23 -47 -46
-120 -51 -86 -5 -184 24 -300 89 -206 116 -293 143 -452 143 -87 -1 -123 -5
-174 -23 -262 -91 -412 -376 -306 -585 49 -97 147 -180 278 -234 144 -60 303
-77 439 -46 49 11 73 13 81 5 18 -18 -10 -39 -69 -52 -42 -9 -53 -16 -50 -28
3 -9 12 -47 21 -86 19 -87 64 -225 73 -225 6 0 129 33 249 65 8 3 4 27 -13 82
-25 81 -25 103 1 103 8 0 15 -1 15 -2 0 -2 13 -41 29 -88 19 -57 33 -84 42
-82 7 2 87 6 176 9 l163 6 0 58 c0 66 12 58 -117 79 -40 6 -102 26 -140 45
-92 44 -173 125 -159 160 9 25 33 17 56 -20 60 -98 221 -155 435 -155 221 0
372 54 544 193 87 71 140 136 162 199 17 52 44 74 54 45 3 -7 -4 -40 -16 -72
-17 -45 -40 -77 -105 -144 -46 -47 -84 -89 -84 -92 0 -16 54 -52 106 -70 32
-11 66 -23 74 -26 8 -3 18 -6 22 -5 3 1 46 -6 95 -15 131 -25 390 -24 463 1
138 47 256 137 314 241 44 78 66 182 66 306 0 181 -46 277 -187 394 -121 99
-252 142 -463 152 -205 8 -327 -28 -439 -131 -72 -67 -66 -68 -184 36 -43 37
-99 79 -125 92 -123 62 -319 89 -459 62z"/>
<path d="M4770 7640 c-24 -16 -57 -35 -72 -41 l-28 -11 0 -103 0 -103 128 -8
c70 -5 134 -9 142 -9 21 0 37 39 50 117 5 37 12 73 15 80 4 9 -14 19 -55 31
-32 9 -75 31 -94 47 -18 17 -35 30 -37 30 -2 0 -24 -13 -49 -30z"/>
<path d="M4577 7554 c-43 -15 -179 -34 -243 -34 -39 0 -42 -2 -47 -33 -3 -18
-3 -44 0 -58 5 -25 8 -26 101 -32 54 -4 127 -7 163 -7 61 0 67 2 73 23 7 28 6
105 -2 133 -7 20 -9 20 -45 8z"/>
<path d="M5055 7560 c-3 -5 -13 -44 -22 -87 -8 -43 -17 -88 -20 -100 -5 -19
-1 -23 21 -23 14 0 26 -3 26 -7 0 -5 17 -8 38 -9 20 0 71 -4 113 -8 l75 -8 13
67 c6 38 19 81 27 97 9 17 14 31 12 32 -2 2 -55 11 -118 21 -63 10 -125 21
-137 26 -13 5 -25 4 -28 -1z"/>
<path d="M4012 7348 c-61 -5 -158 -22 -239 -42 -76 -20 -149 -36 -162 -38 -24
-3 -24 -4 -22 -101 3 -121 12 -143 65 -160 54 -16 279 -13 379 6 54 10 77 11
77 3 0 -8 3 -7 8 1 24 37 313 47 562 19 330 -37 549 -47 567 -24 16 19 41 113
51 189 l8 66 -110 12 c-77 8 -115 16 -122 27 -7 9 -13 11 -16 4 -2 -7 -41 -6
-128 4 -231 27 -748 46 -918 34z"/>
<path d="M4104 6969 c-2 -3 -40 -9 -84 -13 -45 -4 -134 -16 -198 -26 -937
-160 -1758 -694 -2285 -1487 -229 -344 -405 -757 -487 -1141 -20 -95 -21 -104
-6 -127 20 -31 74 -34 100 -6 9 10 28 68 42 127 50 222 137 471 243 689 384
797 1088 1414 1931 1695 99 33 354 97 457 115 250 43 627 58 878 35 648 -60
1268 -315 1785 -734 163 -132 381 -359 526 -546 261 -337 467 -765 575 -1190
40 -158 40 -160 -15 -160 -25 0 -48 -5 -52 -11 -7 -12 173 -199 191 -199 12 0
145 204 145 223 0 11 -12 13 -50 9 -47 -4 -49 -3 -56 24 -53 234 -99 386 -171
569 -270 684 -769 1275 -1403 1662 -74 45 -141 87 -147 93 -7 6 -13 9 -13 6 0
-3 -69 28 -152 69 -329 158 -700 265 -1083 311 -138 16 -662 27 -671 13z"/>
<path d="M4630 6498 c-28 -31 -25 -46 15 -69 19 -12 35 -26 35 -31 0 -18 -90
-376 -102 -406 -28 -69 -30 -72 -69 -72 -30 0 -39 -5 -44 -21 -11 -33 22 -57
90 -68 33 -5 72 -12 86 -16 18 -4 31 -1 42 10 20 19 13 39 -18 53 -13 6 -26
20 -30 31 -3 12 -18 28 -33 37 l-27 15 26 -5 c16 -4 31 -1 37 7 5 6 22 57 36
112 15 55 33 116 41 135 8 19 20 56 26 83 6 26 15 49 19 52 15 9 29 -51 26
-110 -2 -37 3 -82 15 -119 13 -43 15 -64 7 -81 -12 -28 26 -195 52 -228 l18
-21 67 69 c37 39 79 88 93 110 15 22 29 42 32 45 4 3 16 21 28 41 12 21 45 56
72 80 28 24 50 51 50 59 0 15 29 62 30 49 0 -4 -7 -25 -15 -48 -8 -23 -24 -81
-35 -128 -11 -48 -24 -91 -29 -97 -5 -6 -11 -42 -15 -81 -4 -38 -14 -80 -22
-92 -12 -20 -20 -22 -59 -16 -36 5 -46 3 -51 -11 -12 -30 20 -49 88 -54 35 -2
70 -11 79 -19 10 -8 41 -15 75 -16 51 -2 59 1 62 17 3 13 -7 29 -28 46 -26 21
-31 33 -32 69 0 29 7 52 22 73 17 23 20 37 15 64 -9 52 30 202 68 260 27 41
39 50 75 57 38 7 42 11 42 37 0 31 -4 33 -96 55 -70 16 -132 19 -150 7 -7 -4
-19 -23 -27 -42 -9 -19 -39 -59 -66 -89 -28 -30 -51 -63 -51 -73 0 -10 -6 -21
-14 -24 -7 -3 -42 -41 -77 -85 -35 -43 -66 -79 -69 -79 -3 0 -6 15 -7 33 -6
108 -11 145 -25 172 -8 17 -16 44 -16 60 -2 63 -21 205 -31 223 -6 12 -38 26
-89 40 -99 27 -116 27 -142 0z"/>
<path d="M4205 6499 c-64 -37 -90 -60 -126 -116 l-41 -62 16 -54 c8 -29 26
-69 39 -87 27 -42 91 -80 133 -80 57 0 93 -20 119 -64 18 -30 22 -49 17 -67
-11 -40 -45 -75 -77 -82 -26 -5 -36 1 -75 41 -25 26 -54 66 -65 88 -27 57 -48
53 -72 -14 -18 -51 -16 -123 3 -151 13 -18 23 -22 46 -17 17 3 38 0 51 -8 89
-56 244 -1 289 103 23 54 18 130 -12 196 -36 78 -63 95 -149 95 -79 0 -90 5
-112 57 -33 76 -25 116 27 133 49 16 82 -3 119 -70 31 -56 68 -77 86 -48 11
17 4 161 -9 184 -7 12 -23 19 -49 20 -21 1 -60 5 -88 8 -31 4 -58 2 -70 -5z"/>
<path d="M3025 6155 c-5 -2 -35 -11 -67 -20 -31 -9 -82 -33 -115 -54 -32 -21
-88 -55 -124 -75 -37 -19 -69 -43 -73 -51 -10 -27 16 -55 51 -55 43 0 69 -26
144 -145 153 -245 172 -289 138 -319 -25 -21 -24 -43 2 -56 28 -15 64 -5 113
31 22 16 44 29 48 29 5 0 49 28 99 62 75 52 94 71 119 119 39 75 41 122 7 176
-21 32 -38 46 -82 62 -31 12 -68 21 -84 21 -38 0 -43 8 -25 41 10 20 14 54 13
107 -1 42 -4 71 -7 64 -3 -10 -16 -2 -41 22 -35 34 -88 53 -116 41z m-14 -108
c15 -7 44 -27 65 -46 l38 -33 -15 -41 c-10 -31 -28 -50 -69 -79 -30 -21 -59
-38 -63 -38 -18 0 -77 69 -77 89 0 13 -13 36 -30 51 -16 15 -30 33 -30 38 0
13 108 70 135 71 11 0 32 -5 46 -12z m212 -275 c23 -24 40 -122 26 -159 -4
-12 -33 -34 -67 -51 l-60 -31 -36 40 c-20 23 -36 47 -36 54 0 8 -11 31 -25 51
-14 20 -25 42 -25 49 0 14 25 37 65 59 42 23 129 16 158 -12z"/>
<path d="M5705 6087 c-90 -23 -197 -118 -215 -189 -5 -18 -16 -60 -25 -93 -18
-64 -14 -169 7 -209 26 -50 105 -129 152 -154 61 -31 178 -39 233 -15 19 7 39
13 46 11 38 -7 167 90 167 126 0 10 9 33 19 50 11 17 27 61 36 98 14 56 15 74
4 105 -22 69 -66 153 -99 189 -68 76 -209 110 -325 81z m238 -105 c9 -8 17
-26 17 -40 0 -14 7 -33 15 -43 10 -10 18 -45 22 -87 l6 -70 -47 -65 c-25 -35
-46 -69 -46 -74 0 -11 -45 -53 -82 -76 -33 -21 -165 -24 -191 -4 -22 16 -67
106 -67 132 2 61 42 156 84 196 14 13 26 34 26 46 0 25 36 63 59 63 9 0 30 8
46 18 38 24 132 26 158 4z"/>
<path d="M2455 5794 c-27 -19 -54 -33 -60 -30 -7 2 -25 -25 -42 -59 -29 -60
-30 -65 -14 -79 22 -20 41 -20 69 0 20 14 24 14 50 -4 15 -11 40 -34 56 -51
17 -17 35 -31 42 -31 7 0 16 -9 19 -21 4 -11 25 -33 46 -49 44 -32 69 -60 91
-105 21 -41 30 -109 19 -138 -13 -33 -60 -76 -107 -96 -34 -15 -43 -16 -78 -3
-22 7 -51 12 -63 9 -18 -3 -23 0 -23 18 0 15 -9 26 -27 34 -16 6 -36 25 -45
41 -9 17 -30 35 -45 42 -44 19 -83 59 -84 87 0 23 -1 23 -8 7 -6 -16 -9 -17
-17 -5 -29 46 -30 54 -10 82 23 32 14 60 -21 65 -43 6 -187 -136 -199 -196 -5
-25 -2 -33 21 -48 22 -14 30 -15 44 -6 46 34 72 23 140 -58 26 -31 52 -55 58
-53 6 2 41 -23 77 -55 78 -71 112 -88 193 -97 54 -7 67 -4 115 19 37 18 60 37
71 59 10 18 36 61 59 97 40 61 42 69 41 132 -1 67 -2 68 -62 141 -61 76 -237
247 -252 247 -15 0 -10 28 11 62 25 41 25 55 2 67 -15 8 -29 2 -67 -25z"/>
<path d="M3530 5792 c-39 -19 -49 -51 -29 -88 10 -19 21 -24 50 -24 32 0 37
-3 32 -17 -3 -10 -14 -27 -23 -38 -26 -29 -32 -59 -17 -79 12 -17 17 -17 51
-5 80 29 101 86 80 216 -3 20 -12 34 -25 38 -46 15 -86 14 -119 -3z"/>
<path d="M6352 5736 c-8 -18 -7 -28 3 -43 17 -21 20 -73 5 -73 -6 0 -30 -19
-53 -42 -24 -24 -85 -79 -137 -123 -51 -44 -105 -92 -119 -107 -31 -31 -64
-37 -109 -19 -27 11 -37 12 -57 1 -21 -11 -22 -16 -13 -34 17 -33 98 -120 124
-134 13 -7 31 -26 39 -43 18 -34 31 -34 58 3 16 21 17 32 10 54 -9 27 -6 33
39 77 27 26 53 47 58 47 5 0 12 10 16 22 6 19 7 19 16 5 15 -28 2 -159 -22
-210 -20 -43 -24 -46 -57 -44 -20 1 -38 -3 -40 -9 -2 -7 24 -43 57 -80 34 -38
67 -79 72 -91 6 -13 24 -28 40 -35 24 -11 28 -19 28 -51 0 -45 32 -112 70
-147 17 -17 29 -41 33 -67 4 -26 16 -48 30 -60 13 -10 40 -49 62 -88 21 -38
51 -81 67 -94 29 -23 30 -23 85 -8 141 41 135 95 -13 123 -21 4 -52 17 -68 28
-32 24 -112 174 -99 187 17 17 177 109 190 109 8 0 27 -27 43 -61 l28 -61 -24
-35 c-25 -37 -28 -51 -18 -77 4 -11 14 -14 33 -9 38 9 115 49 130 67 8 9 22
16 32 16 25 0 49 27 49 55 0 26 -22 35 -86 35 -35 0 -47 6 -73 35 -51 59 -44
76 55 130 47 25 93 45 102 43 10 -2 28 -26 42 -53 26 -52 31 -113 20 -234 -4
-44 -2 -55 13 -65 15 -9 26 -2 72 49 34 37 55 69 55 84 0 30 -90 208 -147 290
-25 35 -46 73 -47 85 -5 37 -36 86 -55 86 -24 0 -35 -15 -50 -67 -9 -34 -23
-51 -64 -81 -82 -61 -206 -137 -280 -173 -57 -28 -70 -32 -85 -21 -9 7 -29 20
-44 30 -15 9 -28 26 -29 37 -5 65 4 199 16 253 8 35 15 78 15 96 0 50 11 94
24 99 6 3 36 1 66 -4 30 -5 88 -10 128 -10 60 -1 78 -5 100 -23 38 -32 77 -40
96 -20 9 8 16 18 16 20 0 33 -163 193 -197 194 -29 0 -49 -35 -32 -56 24 -30
-5 -36 -179 -36 -24 -1 -47 3 -52 8 -6 6 20 34 64 70 69 58 74 61 99 48 30
-16 53 -10 60 15 4 17 -111 170 -150 199 -26 19 -49 14 -61 -12z"/>
<path d="M4259 5606 c-2 -2 -44 -6 -94 -10 -290 -20 -640 -145 -912 -326 -501
-332 -821 -834 -908 -1425 -8 -55 -15 -106 -15 -112 0 -10 -35 -13 -142 -13
l-143 0 -28 36 c-38 46 -77 45 -89 -3 -8 -30 -12 -33 -45 -33 -22 0 -45 8 -57
19 -17 16 -46 22 -166 30 -427 32 -694 31 -804 -3 -57 -17 -106 -60 -106 -92
0 -34 44 -69 119 -95 90 -31 246 -35 629 -15 284 15 342 23 342 46 0 6 18 10
41 10 30 0 46 -6 58 -22 12 -14 29 -21 51 -21 22 0 39 7 51 21 16 21 26 22
146 22 l129 0 12 -177 c14 -196 36 -324 83 -482 200 -675 753 -1211 1433
-1391 177 -46 279 -61 471 -67 273 -9 492 25 745 112 337 117 667 345 895 620
32 39 61 72 64 75 23 18 152 234 206 344 128 260 205 571 205 828 l0 88 115 0
115 0 19 -38 c25 -50 121 -138 174 -162 155 -69 362 -67 681 6 122 27 233 39
494 53 153 8 209 18 191 35 -2 3 -62 10 -133 17 -170 16 -466 7 -671 -21 -208
-28 -391 -25 -477 9 -61 24 -121 81 -132 127 -15 60 59 142 154 172 79 24 287
21 455 -6 205 -33 390 -45 598 -39 190 7 239 15 201 34 -23 13 -91 20 -309 33
-93 6 -213 20 -265 31 -311 67 -385 80 -490 85 -129 7 -211 -7 -304 -51 -60
-28 -161 -128 -177 -175 l-11 -30 -91 0 c-141 0 -132 -7 -146 126 -59 546
-337 1047 -776 1396 -140 112 -342 227 -502 289 -35 13 -63 28 -63 32 0 5 -4
6 -9 3 -5 -3 -42 6 -82 20 -99 33 -289 71 -424 84 -106 10 -297 14 -306 6z
m281 -1049 c330 -79 640 -253 904 -507 119 -115 184 -199 236 -305 50 -100 70
-179 70 -270 0 -130 -42 -240 -127 -335 -102 -113 -233 -172 -388 -173 -84 0
-101 3 -260 59 -163 56 -174 58 -270 58 -174 1 -261 -38 -490 -216 -193 -150
-304 -198 -460 -198 -250 0 -485 134 -618 352 -122 201 -152 548 -68 790 20
60 96 211 115 231 6 7 24 31 40 54 38 56 175 187 256 245 173 123 359 198 600
242 14 3 99 3 190 1 132 -3 186 -9 270 -28z m-1535 -1403 c75 -260 310 -488
568 -549 91 -22 257 -19 351 5 117 30 188 69 355 193 296 221 407 247 684 158
227 -74 293 -83 421 -56 205 43 347 184 391 388 11 51 14 55 14 27 2 -98 -63
-243 -146 -327 -86 -86 -188 -134 -328 -154 -88 -12 -170 -1 -335 46 -295 84
-364 70 -640 -135 -247 -183 -365 -230 -575 -231 -164 -1 -313 44 -441 132
-60 41 -172 152 -213 213 -78 114 -133 271 -145 416 l-5 75 13 -71 c7 -38 21
-97 31 -130z"/>
<path d="M4270 4517 c0 -8 7 -34 15 -57 19 -55 19 -59 -7 -70 -39 -16 -455
-170 -460 -170 -3 0 -24 45 -47 100 -24 55 -47 98 -51 95 -5 -3 7 -51 26 -107
18 -56 33 -103 31 -104 -5 -6 -461 -194 -468 -194 -4 0 -11 9 -14 20 -10 30
-25 24 -19 -8 5 -24 1 -30 -30 -45 -36 -17 -52 -45 -18 -32 65 25 69 23 95
-61 14 -44 53 -157 87 -253 33 -96 57 -178 53 -182 -5 -4 -75 -35 -158 -70
-136 -56 -197 -89 -169 -89 6 0 87 27 179 60 92 33 169 59 170 58 3 -4 185
-469 185 -473 0 -2 -40 -20 -90 -41 -49 -21 -88 -39 -86 -41 1 -2 42 11 91 27
49 17 92 27 96 23 4 -5 18 -35 32 -68 18 -43 31 -61 46 -63 12 -2 21 -2 21 1
0 2 -11 37 -25 77 -14 40 -23 75 -21 78 3 2 96 37 208 77 112 40 215 78 230
83 26 11 27 9 49 -43 17 -41 26 -52 35 -44 10 8 9 19 -3 55 -9 26 -12 49 -7
54 5 4 106 45 224 90 118 45 222 86 231 91 13 6 22 -7 49 -69 59 -137 85 -141
40 -7 -17 49 -27 92 -22 97 4 4 75 35 157 68 83 34 164 67 180 75 102 45 137
57 144 49 4 -5 41 -89 81 -186 67 -162 90 -203 90 -164 0 8 -27 93 -60 189
-33 95 -60 178 -60 184 0 6 61 37 135 69 74 31 134 59 132 61 -2 1 -64 -17
-137 -42 -74 -25 -137 -45 -141 -45 -4 0 -11 12 -17 28 -31 78 -162 435 -162
441 0 4 26 18 58 31 69 28 81 37 58 46 -9 4 -42 -3 -73 -15 -31 -12 -58 -19
-60 -17 -3 2 -22 46 -43 98 -28 68 -46 98 -66 110 -16 10 -29 16 -31 14 -3 -2
41 -129 76 -219 8 -21 8 -29 -2 -32 -6 -2 -115 -42 -241 -90 -126 -47 -231
-84 -233 -82 -9 9 -185 454 -187 471 -1 15 21 28 107 65 59 25 107 49 107 53
0 17 -52 7 -146 -27 -53 -19 -98 -34 -99 -33 -1 2 -10 24 -20 50 -19 51 -45
83 -45 55z m71 -222 c35 -96 150 -420 152 -428 1 -5 -36 -23 -83 -42 -277
-109 -373 -145 -377 -141 -7 7 -184 449 -186 465 -1 9 75 45 228 106 127 51
234 92 239 91 5 -1 17 -24 27 -51z m-460 -376 c99 -274 95 -259 79 -269 -8 -5
-10 -17 -6 -34 5 -21 11 -26 25 -21 16 5 28 -19 85 -167 38 -95 78 -195 91
-223 21 -46 22 -51 7 -63 -15 -11 -18 -9 -23 15 l-7 28 -1 -30 c-2 -29 -6 -32
-202 -113 -110 -45 -204 -80 -209 -77 -5 3 -16 29 -25 58 -18 54 -60 169 -100
272 -13 34 -21 74 -19 90 2 17 1 24 -2 17 -3 -6 -10 -10 -15 -6 -12 7 -11 42
2 46 16 5 -1 38 -21 38 -14 0 -30 32 -71 133 -29 72 -74 183 -101 246 -27 63
-47 115 -46 116 2 1 82 29 178 63 96 34 202 72 235 85 33 13 61 23 62 22 1 0
39 -102 84 -226z m1188 58 c5 -18 39 -108 76 -202 83 -211 88 -225 84 -229 -2
-2 -38 -15 -79 -29 -41 -14 -149 -53 -239 -87 -90 -33 -167 -57 -171 -53 -12
14 -161 434 -158 445 4 12 460 198 470 192 4 -3 12 -19 17 -37z m-467 -387
c44 -113 81 -214 82 -224 1 -16 -38 -34 -224 -107 -124 -49 -230 -89 -236 -89
-6 0 -28 51 -48 113 -21 61 -41 121 -46 132 -5 11 -25 62 -44 113 l-34 93 21
9 c104 44 434 169 440 167 5 -1 44 -95 89 -207z"/>
<path d="M3652 3759 c-75 -37 -115 -124 -98 -214 14 -71 107 -145 186 -145 78
0 159 62 180 138 12 46 12 58 0 104 -31 112 -163 169 -268 117z"/>
<path d="M1801 4933 c-73 -36 -131 -123 -109 -165 13 -27 40 -22 81 16 47 43
78 51 122 30 54 -25 104 -121 83 -159 -20 -35 -43 -55 -64 -55 -33 0 -140 58
-186 101 -23 21 -48 39 -55 39 -20 0 -114 -151 -111 -179 5 -39 33 -49 61 -23
35 33 73 27 162 -24 44 -25 112 -62 150 -82 39 -19 88 -47 110 -61 22 -14 47
-29 55 -32 10 -4 14 -17 12 -41 -3 -34 16 -68 39 -68 11 0 52 64 73 115 9 20
27 50 41 67 28 33 32 69 10 88 -13 11 -22 8 -55 -19 l-39 -31 -63 30 c-79 37
-127 83 -109 104 12 15 110 40 271 71 47 9 95 20 107 25 34 14 89 133 76 166
-9 23 -49 17 -67 -11 -24 -37 -61 -52 -191 -76 -114 -21 -119 -21 -132 -4 -7
11 -13 27 -13 37 0 38 -33 80 -92 119 -68 44 -111 49 -167 22z"/>
<path d="M980 3163 c-43 -59 -77 -110 -74 -115 3 -4 27 -8 53 -8 l48 0 7 -52
c4 -29 21 -114 38 -188 149 -659 474 -1236 964 -1710 546 -529 1230 -849 2009
-942 142 -16 586 -17 730 0 403 46 766 151 1134 328 73 35 138 61 144 57 5 -3
7 -1 4 5 -4 6 21 26 60 48 110 60 310 196 428 291 61 48 187 164 280 257 94
93 173 169 177 168 5 -1 7 2 5 6 -1 5 32 52 74 105 306 383 531 832 648 1297
39 158 71 329 63 349 -17 50 -74 68 -106 32 -10 -11 -30 -85 -52 -190 -96
-472 -298 -930 -568 -1289 l-55 -74 -4 39 c-3 36 -4 36 -5 -9 -2 -51 -3 -53
-131 -198 -193 -221 -447 -436 -719 -608 -45 -29 -86 -51 -91 -48 -5 3 -11 0
-14 -8 -7 -17 -243 -138 -380 -195 -249 -103 -551 -183 -843 -222 -187 -25
-571 -30 -744 -10 -578 66 -1065 245 -1525 558 -692 472 -1178 1193 -1358
2013 -14 63 -28 134 -32 158 l-7 42 51 0 c27 0 53 4 56 10 6 10 -163 210 -177
210 -5 0 -44 -48 -88 -107z"/>
<path d="M6751 3218 c-5 -13 -16 -53 -25 -90 -8 -38 -42 -125 -75 -195 -32
-71 -64 -148 -71 -172 -10 -37 -35 -83 -75 -137 -16 -23 20 -81 72 -114 35
-22 60 -30 94 -30 72 0 73 23 7 114 -18 26 -28 51 -28 75 0 41 32 101 54 101
18 0 426 -167 443 -182 7 -6 13 -26 13 -45 0 -19 5 -43 10 -54 25 -45 100 -2
100 58 0 17 16 70 37 118 37 91 37 106 -1 129 -14 9 -23 4 -50 -27 l-32 -38
-84 40 c-47 21 -137 56 -200 77 -63 20 -135 45 -159 56 -41 17 -43 20 -37 50
4 18 19 44 35 59 16 14 32 35 35 47 6 19 15 22 60 22 57 0 76 12 76 47 0 17
-12 29 -52 49 -29 15 -64 35 -77 45 -32 25 -59 24 -70 -3z"/>
<path d="M2014 3183 c-21 -67 -43 -88 -146 -140 -127 -65 -270 -123 -303 -123
-13 0 -35 11 -49 25 -27 27 -55 32 -74 13 -28 -28 -3 -146 40 -195 11 -11 22
-41 25 -65 3 -23 15 -56 27 -73 12 -16 33 -58 45 -92 13 -34 36 -76 51 -93 28
-31 29 -32 95 -25 64 7 105 28 105 54 0 14 -49 45 -104 66 -66 24 -84 45 -122
141 -38 97 -41 90 73 140 112 48 118 47 141 -28 l20 -63 -29 -33 c-29 -33 -35
-57 -21 -79 10 -16 83 1 141 33 24 13 54 24 66 24 29 0 47 22 43 52 -2 19 -12
25 -57 33 -38 8 -60 19 -77 38 -26 30 -39 69 -31 90 7 18 179 79 200 72 19 -8
34 -44 47 -112 8 -45 6 -63 -15 -128 -29 -89 -29 -89 -9 -109 23 -23 29 -21
81 29 25 25 50 45 54 45 34 0 -31 220 -103 347 -18 31 -31 67 -30 80 1 13 -5
40 -13 58 -11 27 -20 35 -40 35 -16 0 -28 -7 -31 -17z"/>
<path d="M2285 2305 c-44 -14 -91 -27 -105 -29 -117 -19 -167 -30 -176 -37 -6
-5 -48 -16 -93 -24 -79 -15 -83 -15 -107 4 -29 23 -46 19 -68 -14 -13 -20 -13
-25 1 -44 8 -12 12 -28 9 -36 -3 -8 3 -16 13 -20 10 -3 31 -25 46 -49 32 -51
63 -71 94 -61 19 6 21 11 15 43 -4 20 -11 39 -15 40 -16 6 -9 31 10 42 11 5
29 10 41 10 11 0 34 7 50 15 35 18 38 16 100 -80 49 -75 50 -71 -19 -152 -31
-38 -37 -41 -51 -28 -22 20 -69 19 -77 -2 -8 -21 29 -90 77 -142 21 -23 42
-50 45 -61 4 -14 15 -20 36 -20 38 0 52 32 31 69 -13 25 -11 30 41 111 30 47
67 99 82 115 33 36 115 159 115 173 0 6 14 22 30 36 34 28 100 111 100 125 0
18 -27 29 -85 35 -48 4 -76 1 -140 -19z"/>
<path d="M6299 2289 c-8 -15 -8 -24 0 -32 6 -6 11 -25 11 -41 0 -22 18 -55 59
-111 33 -44 73 -107 90 -140 17 -34 51 -85 76 -114 25 -29 45 -57 45 -62 0 -5
11 -27 25 -49 21 -33 23 -44 14 -66 -13 -36 -7 -49 30 -62 28 -10 33 -9 47 13
9 14 23 25 30 25 8 0 14 7 14 15 0 8 16 35 35 61 36 46 45 90 24 111 -15 15
-59 -1 -81 -30 -16 -21 -17 -21 -37 -3 -12 11 -21 25 -21 32 0 7 -10 21 -23
31 -42 33 -41 41 17 118 31 41 61 75 67 75 25 0 149 -43 149 -51 0 -5 -4 -9
-10 -9 -5 0 -10 -11 -10 -24 0 -27 24 -56 45 -56 16 0 105 120 105 141 0 7 11
23 25 34 20 18 23 27 17 50 -6 23 -14 29 -34 29 -15 0 -35 -10 -45 -21 l-18
-22 -100 24 c-55 14 -120 32 -145 41 -73 26 -143 44 -175 44 -17 0 -41 7 -54
16 -20 14 -133 54 -153 54 -4 0 -12 -9 -19 -21z"/>
<path d="M2663 2017 c-60 -22 -133 -109 -133 -156 0 -26 39 -30 96 -11 73 26
94 25 134 -2 74 -51 76 -46 -82 -239 -78 -96 -151 -181 -162 -190 -15 -13 -27
-14 -62 -6 -50 12 -74 -1 -74 -40 0 -37 17 -61 48 -68 16 -3 64 -34 106 -69
82 -66 106 -73 127 -34 9 16 6 27 -15 56 l-25 35 58 66 c32 36 104 128 159
204 56 75 108 137 115 137 18 0 67 -45 67 -61 0 -7 12 -25 26 -40 25 -27 26
-29 14 -78 -10 -41 -10 -55 0 -66 21 -25 39 -17 111 48 86 77 86 90 3 134 -34
18 -113 78 -175 133 -62 56 -132 114 -156 129 -24 16 -62 52 -84 80 -44 55
-47 56 -96 38z"/>
<path d="M5995 1913 c-46 -24 -206 -158 -244 -204 -18 -22 -52 -49 -75 -59
-50 -21 -69 -42 -64 -72 3 -20 10 -24 61 -29 51 -6 63 -12 109 -55 71 -66 202
-210 235 -256 l26 -38 -18 -41 c-22 -49 -13 -73 31 -77 38 -4 118 47 144 92
13 20 35 39 60 49 22 8 47 28 57 45 11 17 44 52 76 77 55 46 87 92 87 124 -1
24 -52 112 -75 127 -33 22 -46 3 -57 -87 -5 -46 -16 -96 -24 -110 -7 -15 -43
-50 -79 -79 -57 -45 -68 -50 -83 -39 -31 23 -112 113 -127 141 -14 26 -13 28
23 56 61 48 71 51 108 36 42 -17 55 -17 78 -1 18 13 17 17 -17 70 -20 31 -45
61 -56 67 -12 6 -28 24 -36 40 -16 31 -42 44 -70 34 -15 -6 -16 -15 -11 -66 6
-50 4 -64 -14 -94 -24 -37 -54 -58 -74 -51 -8 3 -41 39 -75 81 -71 86 -71 95
2 144 51 35 102 52 142 47 53 -7 115 6 126 27 13 25 -1 43 -55 69 -23 10 -50
26 -61 33 -17 13 -24 13 -50 -1z"/>
<path d="M5373 1508 c-31 -15 -61 -28 -68 -28 -6 0 -24 -13 -40 -30 -20 -20
-39 -30 -59 -30 -64 0 -116 -52 -94 -93 8 -16 17 -18 49 -13 39 6 40 6 58 -36
46 -108 65 -144 82 -161 11 -10 19 -26 19 -36 0 -27 28 -91 56 -128 39 -52 47
-81 24 -93 -26 -14 -42 -46 -35 -70 9 -30 68 -45 102 -26 16 8 37 18 48 22 11
4 40 15 64 23 55 21 69 40 55 78 -8 23 -16 29 -49 31 -47 4 -85 35 -85 69 0
13 -11 45 -24 72 l-25 48 53 26 c29 15 58 27 64 27 18 0 91 70 108 101 19 38
18 123 -3 177 -14 37 -24 48 -62 64 -25 11 -77 24 -114 27 -63 6 -74 4 -124
-21z m120 -84 c32 -17 67 -69 67 -99 0 -33 -53 -112 -93 -139 -45 -31 -50 -32
-43 -8 5 13 -1 22 -19 30 -14 7 -22 17 -20 25 3 7 -8 43 -25 80 -16 36 -30 71
-30 77 0 18 61 48 98 48 20 0 49 -7 65 -14z"/>
<path d="M4817 1330 c-53 -10 -124 -27 -156 -38 -39 -13 -73 -18 -103 -15 -93
11 -116 -36 -43 -88 47 -34 50 -40 94 -194 25 -87 51 -227 51 -269 -1 -24 -8
-36 -33 -51 -38 -24 -45 -49 -20 -77 16 -18 26 -20 98 -14 56 4 82 10 88 21 6
12 23 15 65 14 35 -1 69 4 87 13 17 9 60 21 97 27 37 6 83 20 101 31 32 19 35
25 40 84 7 76 1 103 -25 111 -25 8 -43 -8 -85 -73 -19 -29 -48 -61 -65 -71
-35 -22 -185 -48 -198 -35 -15 16 -51 207 -42 216 11 11 77 27 112 28 18 0 32
-11 48 -35 17 -27 29 -35 52 -35 30 0 30 0 30 59 0 32 -6 74 -14 92 -8 19 -12
45 -9 59 3 17 -2 31 -16 44 -31 28 -53 17 -71 -37 -11 -31 -28 -56 -46 -68
-29 -19 -98 -26 -108 -11 -2 4 -12 50 -21 102 -20 115 -16 120 82 127 69 5 87
1 168 -44 56 -31 66 -34 86 -28 23 8 26 47 4 65 -8 7 -15 16 -15 21 0 5 -11
27 -25 49 -23 37 -29 40 -68 39 -23 0 -86 -9 -140 -19z"/>
<path d="M3785 1324 c-23 -24 -15 -47 22 -63 44 -19 49 -51 29 -192 -8 -63
-20 -164 -27 -226 l-12 -112 -32 -11 c-40 -13 -57 -32 -49 -53 6 -18 37 -26
115 -32 30 -2 77 -6 104 -10 40 -6 53 -4 64 9 19 22 9 40 -33 60 -35 16 -36
19 -36 70 0 65 26 155 47 163 21 8 41 -17 155 -189 57 -86 98 -138 111 -142
29 -8 131 -8 151 0 32 12 11 64 -26 64 -30 0 -82 55 -141 148 -75 118 -75 116
-33 142 51 31 72 66 85 142 14 85 1 124 -60 167 -75 55 -170 65 -184 20 -8
-24 20 -59 46 -59 29 0 79 -58 79 -92 0 -40 -34 -102 -70 -128 -40 -28 -92
-21 -117 16 -15 23 -15 36 -4 116 6 50 18 100 26 112 17 24 19 52 5 61 -9 6
-170 35 -192 35 -4 0 -14 -7 -23 -16z"/>
<path d="M3021 1034 c-26 -34 -27 -60 -1 -76 39 -25 15 -48 -52 -48 -29 0 -60
-33 -51 -55 6 -16 74 -45 106 -45 29 0 116 66 139 106 16 27 17 36 7 58 -7 14
-16 26 -21 26 -4 0 -8 6 -8 13 0 14 -60 47 -85 47 -7 0 -23 -12 -34 -26z"/>
</g>
</svg>
