<?xml version="1.0" standalone="no"?>
<!DOCTYPE svg PUBLIC "-//W3C//DTD SVG 20010904//EN"
 "http://www.w3.org/TR/2001/REC-SVG-20010904/DTD/svg10.dtd">
<svg version="1.0" xmlns="http://www.w3.org/2000/svg"
 width="359.000000pt" height="358.000000pt" viewBox="0 0 359.000000 358.000000"
 preserveAspectRatio="xMidYMid meet">

<g transform="translate(0.000000,358.000000) scale(0.100000,-0.100000)"
fill="#000000" stroke="none">
<path d="M1490 3334 c-431 -92 -767 -389 -904 -799 -39 -116 -56 -231 -56
-375 0 -206 37 -364 125 -540 166 -328 468 -557 840 -634 94 -20 357 -20 450
0 375 79 674 304 840 634 50 101 101 254 115 348 14 100 12 308 -5 403 -18
106 -61 231 -113 334 -164 324 -468 552 -837 629 -91 19 -365 19 -455 0z m461
-30 c226 -43 436 -160 610 -341 185 -193 282 -397 316 -667 17 -129 17 -143 0
-272 -34 -270 -131 -474 -316 -667 -232 -241 -505 -359 -836 -360 -335 -1
-608 114 -840 355 -193 199 -290 403 -323 678 -15 117 -14 163 3 288 35 253
135 459 314 645 204 212 443 329 736 361 68 7 251 -4 336 -20z"/>
<path d="M950 2465 l-155 -155 463 -463 462 -462 462 462 463 463 -155 155
-155 155 -615 0 -615 0 -155 -155z m597 -2 l-127 -128 -127 128 -128 127 255
0 255 0 -128 -127z m600 0 l-127 -128 -127 128 -128 127 255 0 255 0 -128
-127z m-1047 -18 l0 -115 -117 0 -118 0 115 115 c63 63 116 115 117 115 2 0 3
-52 3 -115z m160 0 l115 -115 -118 0 -117 0 0 115 c0 63 1 115 3 115 1 0 54
-52 117 -115z m440 0 l0 -115 -117 0 -118 0 115 115 c63 63 116 115 117 115 2
0 3 -52 3 -115z m160 0 l115 -115 -118 0 -117 0 0 115 c0 63 1 115 3 115 1 0
54 -52 117 -115z m440 0 l0 -115 -117 0 -118 0 115 115 c63 63 116 115 117
115 2 0 3 -52 3 -115z m160 0 l115 -115 -118 0 -117 0 0 115 c0 63 1 115 3
115 1 0 54 -52 117 -115z m-1298 -327 c32 -94 56 -173 55 -175 -2 -1 -81 76
-177 172 l-175 175 120 0 120 0 57 -172z m300 0 c32 -94 56 -173 55 -175 -2
-1 -81 76 -177 172 l-175 175 120 0 120 0 57 -172z m225 160 c-2 -7 -28 -86
-58 -175 -29 -90 -56 -163 -59 -163 -4 0 -105 288 -118 338 -3 9 26 12 118 12
94 0 121 -3 117 -12z m301 0 c-13 -50 -114 -338 -118 -338 -3 0 -30 73 -59
163 -30 89 -56 168 -58 175 -4 9 23 12 117 12 92 0 121 -3 118 -12z m112 -163
c-96 -96 -175 -173 -177 -172 -1 2 23 81 55 175 l57 172 120 0 120 0 -175
-175z m300 0 c-96 -96 -175 -173 -177 -172 -1 2 23 81 55 175 l57 172 120 0
120 0 -175 -175z m-794 -430 c32 -93 59 -177 62 -185 2 -8 -81 70 -187 175
l-191 190 -56 170 c-32 93 -59 177 -62 185 -2 8 81 -70 187 -175 l191 -190 56
-170z m181 360 l61 -184 -61 -186 c-33 -102 -64 -185 -67 -185 -3 0 -34 83
-67 185 l-61 186 61 184 c34 102 64 185 67 185 3 0 33 -83 67 -185z m423 -1
l-60 -179 -187 -187 c-103 -103 -188 -186 -190 -184 -1 1 24 83 57 182 l60
179 187 187 c103 103 188 186 190 184 1 -1 -24 -83 -57 -182z"/>
<path d="M2480 800 c-8 -5 -33 -10 -55 -11 l-40 -2 40 -6 40 -6 3 -197 2 -198
-40 0 c-22 0 -40 -4 -40 -10 0 -6 38 -10 95 -10 53 0 95 4 95 9 0 6 -17 11
-37 13 l-38 3 -5 212 c-4 186 -7 211 -20 203z"/>
<path d="M443 779 c15 -9 17 -30 17 -204 0 -167 -2 -195 -15 -195 -8 0 -15 -4
-15 -10 0 -5 23 -10 50 -10 28 0 50 5 50 10 0 6 -7 10 -15 10 -24 0 -21 157 5
190 10 14 21 23 23 20 11 -12 87 -184 87 -196 0 -8 -4 -14 -10 -14 -5 0 -10
-4 -10 -10 0 -5 23 -10 50 -10 49 0 66 12 35 24 -15 5 -125 225 -125 247 0 20
84 130 109 144 25 14 24 14 -28 15 -49 0 -53 -1 -36 -14 18 -13 17 -17 -28
-82 -26 -38 -56 -80 -67 -94 l-20 -25 0 97 c0 82 3 99 18 107 13 8 4 10 -38
10 -42 0 -51 -2 -37 -10z"/>
<path d="M753 779 c15 -9 17 -30 17 -200 0 -159 -2 -191 -15 -195 -27 -11 -16
-24 20 -24 19 0 35 5 35 10 0 6 -7 10 -15 10 -13 0 -15 25 -15 167 0 91 2 164
5 162 2 -3 21 -82 41 -177 21 -95 40 -172 44 -172 3 0 26 82 50 183 l45 182 3
-165 c2 -138 0 -167 -13 -176 -25 -19 -17 -24 35 -24 28 0 50 5 50 10 0 6 -7
10 -15 10 -13 0 -15 28 -15 195 0 174 2 195 18 204 13 8 9 10 -25 11 l-41 0
-31 -132 c-17 -73 -34 -148 -37 -165 -4 -18 -9 -33 -13 -33 -4 0 -20 62 -35
138 -40 189 -41 192 -79 192 -27 -1 -29 -2 -14 -11z"/>
<path d="M1251 777 c-9 -12 -8 -18 4 -31 20 -20 58 -4 53 22 -4 22 -41 27 -57
9z"/>
<path d="M1265 649 c-11 -4 -33 -9 -50 -10 -30 -2 -30 -2 5 -8 l35 -6 3 -147
c2 -137 1 -149 -18 -168 -26 -26 -76 -26 -92 0 -17 26 -48 26 -48 0 0 -38 77
-52 135 -24 49 23 56 50 53 220 -3 146 -4 151 -23 143z"/>
<path d="M1481 632 c-92 -50 -96 -214 -6 -256 53 -26 102 -21 136 13 16 16 29
35 29 41 0 7 -13 -2 -29 -19 -61 -65 -161 -25 -161 63 l0 26 100 0 c112 0 116
3 86 73 -28 67 -94 92 -155 59z m84 -8 c19 -8 45 -55 45 -84 0 -18 -6 -20 -80
-20 -78 0 -80 1 -80 24 0 54 64 99 115 80z"/>
<path d="M2121 632 c-92 -50 -96 -214 -6 -256 53 -26 102 -21 136 13 16 16 29
35 29 41 0 7 -13 -2 -29 -19 -61 -65 -161 -25 -161 63 l0 26 101 0 102 0 -7
43 c-13 82 -96 127 -165 89z m89 -12 c17 -9 40 -58 40 -86 0 -11 -19 -14 -80
-14 -78 0 -80 1 -80 24 0 14 12 38 26 55 27 32 59 39 94 21z"/>
<path d="M2700 642 l-35 -5 35 -6 35 -6 3 -122 3 -123 -36 0 c-19 0 -35 -4
-35 -10 0 -6 37 -10 90 -10 88 0 126 16 53 22 l-38 3 -3 64 c-4 77 9 111 55
151 41 37 59 38 67 5 4 -14 13 -25 21 -25 37 0 28 55 -11 64 -29 8 -57 -6
-101 -47 l-33 -31 0 42 c0 45 2 44 -70 34z"/>
<path d="M1703 628 c11 -8 29 -60 48 -140 17 -71 35 -128 39 -128 5 0 15 31
24 69 28 125 30 125 56 22 12 -51 26 -89 31 -84 4 4 21 62 38 128 19 75 36
124 47 132 15 11 12 13 -26 13 -39 0 -42 -1 -25 -13 17 -13 17 -16 0 -88 -26
-109 -31 -112 -49 -31 -19 85 -20 119 -3 125 6 3 -10 5 -38 5 -27 0 -44 -2
-37 -5 28 -11 33 -41 16 -110 -9 -37 -20 -72 -24 -76 -8 -9 -40 119 -40 158 0
13 6 26 13 28 6 3 -10 6 -37 6 -42 1 -47 -1 -33 -11z"/>
<path d="M3018 623 c11 -10 39 -69 62 -131 l43 -112 -18 -40 c-20 -43 -25 -46
-55 -28 -27 17 -50 -3 -30 -27 31 -37 81 -6 108 68 10 28 35 100 56 158 27 77
43 109 59 117 18 9 13 11 -33 11 -30 -1 -48 -3 -40 -6 8 -3 18 -10 21 -16 6
-8 -43 -173 -54 -184 -2 -2 -19 38 -37 88 -31 88 -32 93 -14 106 16 11 12 13
-35 13 -52 0 -53 -1 -33 -17z"/>
</g>
</svg>
