<?xml version="1.0" standalone="no"?>
<!DOCTYPE svg PUBLIC "-//W3C//DTD SVG 20010904//EN"
 "http://www.w3.org/TR/2001/REC-SVG-20010904/DTD/svg10.dtd">
<svg version="1.0" xmlns="http://www.w3.org/2000/svg"
 width="320.000000pt" height="96.000000pt" viewBox="0 0 320.000000 96.000000"
 preserveAspectRatio="xMidYMid meet">
<metadata>
Created by potrace 1.16, written by Peter Selinger 2001-2019
</metadata>
<g transform="translate(0.000000,96.000000) scale(0.100000,-0.100000)"
fill="#000000" stroke="none">
<path d="M212 933 c-84 -41 -116 -153 -73 -252 11 -28 21 -64 21 -81 0 -45
-34 -99 -84 -137 -53 -39 -76 -85 -76 -153 0 -79 37 -133 112 -165 51 -21 80
-19 165 10 99 35 134 26 200 -51 54 -62 82 -80 142 -90 55 -9 121 17 160 62
37 42 45 69 39 139 -11 127 -142 193 -269 135 -56 -25 -100 -25 -150 0 -52 27
-79 72 -79 133 0 60 18 92 77 136 148 110 83 332 -97 331 -30 0 -70 -8 -88
-17z"/>
<path d="M693 725 c-28 -20 -46 -75 -34 -106 38 -101 186 -76 186 30 0 56 -35
91 -90 91 -22 0 -50 -7 -62 -15z"/>
<path d="M2880 485 l0 -245 50 0 50 0 0 105 c0 92 3 108 20 125 24 24 63 26
84 4 13 -12 16 -39 16 -125 l0 -109 50 0 50 0 0 119 c0 131 -10 172 -46 196
-33 21 -117 22 -149 1 l-25 -16 0 95 0 95 -50 0 -50 0 0 -245z"/>
<path d="M1130 686 c0 -19 -28 -358 -34 -408 l-4 -38 54 0 54 0 1 33 c0 17 6
90 12 161 l12 128 53 -161 54 -162 36 3 35 3 52 155 52 155 6 -61 c4 -34 9
-105 13 -158 l7 -96 54 0 54 0 -5 42 c-3 24 -10 104 -16 178 -6 74 -13 159
-16 188 l-6 53 -70 -3 -71 -3 -46 -133 -46 -133 -45 136 -44 135 -73 0 c-57 0
-73 -3 -73 -14z"/>
<path d="M1930 639 c0 -44 -17 -69 -45 -69 -22 0 -25 -4 -25 -40 0 -38 2 -40
30 -40 l30 0 0 -90 c0 -133 20 -160 120 -160 l50 0 0 39 c0 37 -2 40 -32 43
l-33 3 -3 83 -3 82 36 0 c34 0 35 1 35 40 0 39 -1 40 -35 40 l-35 0 0 50 0 50
-45 0 c-44 0 -45 -1 -45 -31z"/>
<path d="M2244 570 c-76 -17 -124 -81 -124 -164 0 -88 42 -145 122 -166 65
-18 127 -3 171 40 49 50 48 67 -5 72 -35 4 -49 0 -72 -19 -21 -18 -36 -23 -55
-18 -25 6 -61 39 -61 56 0 5 53 10 118 11 l117 3 -3 45 c-5 82 -53 132 -137
143 -22 2 -54 1 -71 -3z"/>
<path d="M2622 568 c-84 -14 -132 -74 -132 -163 0 -88 55 -155 141 -170 74
-14 166 33 187 95 11 29 10 29 -33 36 -39 5 -47 3 -67 -19 -51 -57 -128 -25
-128 54 0 79 83 121 128 64 20 -25 57 -32 94 -17 17 7 17 9 0 41 -33 66 -103
95 -190 79z"/>
<path d="M1710 405 l0 -165 50 0 50 0 0 165 0 165 -50 0 -50 0 0 -165z"/>
</g>
</svg>
