<svg id="logo2" width="385" height="41" viewBox="0 0 385 41" fill="none" xmlns="http://www.w3.org/2000/svg">
<path d="M1.75781 25.3008C2.20052 25.5091 2.64323 25.7174 3.08594 25.9258C3.54167 26.1211 4.04297 26.3164 4.58984 26.5117C4.68099 26.2643 4.72656 25.8737 4.72656 25.3398C4.72656 24.9753 4.72005 24.6953 4.70703 24.5C4.65495 23.4974 4.55078 21.974 4.39453 19.9297C4.23828 17.7943 4.12109 16.056 4.04297 14.7148C3.96484 13.3737 3.92578 12.1042 3.92578 10.9062C3.92578 10.5417 3.9388 10.0339 3.96484 9.38281L4.02344 8.46484L1.11328 8.05469C0.94401 7.57292 0.813802 7.04557 0.722656 6.47266C0.63151 5.88672 0.585938 5.32031 0.585938 4.77344C0.585938 4.35677 0.61849 3.90104 0.683594 3.40625C2.24609 2.80729 4.21224 2.3776 6.58203 2.11719C8.95182 1.85677 11.3997 1.72656 13.9258 1.72656C16.4779 1.72656 18.2357 1.83724 19.1992 2.05859L19.2188 2.03906C19.9219 2.45573 20.5339 2.89193 21.0547 3.34766C21.5885 3.79036 22.0964 4.33073 22.5781 4.96875C22.5781 5.86719 22.4674 6.90234 22.2461 8.07422C22.0378 9.23307 21.7643 10.3008 21.4258 11.2773C21.1003 12.2539 20.7617 12.944 20.4102 13.3477C20.0977 13.4909 19.7591 13.6016 19.3945 13.6797C19.0299 13.7448 18.5872 13.7773 18.0664 13.7773C17.5195 13.7773 17.1029 13.7383 16.8164 13.6602C16.543 13.582 16.2435 13.4518 15.918 13.2695L15.2539 8.36719C14.8242 8.27604 14.3034 8.23047 13.6914 8.23047C13.1445 8.23047 12.5651 8.26302 11.9531 8.32812C11.9141 8.9401 11.8685 9.94922 11.8164 11.3555C11.7904 12.3841 11.7513 13.3802 11.6992 14.3438L11.543 17.7422C14.7201 17.3516 17.3698 16.9414 19.4922 16.5117C20.013 17.2799 20.2734 18.2695 20.2734 19.4805C20.2734 20.2747 20.1693 21.0365 19.9609 21.7656C19.7526 22.4948 19.5247 22.9961 19.2773 23.2695C18.8737 23.3346 18.3398 23.3672 17.6758 23.3672C16.6862 23.3672 15.625 23.276 14.4922 23.0938C13.3724 22.8984 12.3047 22.6315 11.2891 22.293C11.2109 23.4518 11.1133 24.5716 10.9961 25.6523C10.8789 26.681 10.7161 27.5794 10.5078 28.3477C10.3125 29.1029 10.0065 29.7604 9.58984 30.3203C9.05599 31.0234 8.3724 31.5443 7.53906 31.8828C6.71875 32.2214 5.83333 32.3906 4.88281 32.3906C4.01042 32.3906 3.15104 32.1888 2.30469 31.7852C1.47135 31.3815 0.78776 30.6979 0.253906 29.7344C0.266927 28.888 0.371094 28.1263 0.566406 27.4492C0.77474 26.7721 1.17188 26.056 1.75781 25.3008Z" fill="white"/>
<path d="M24.7461 26.7656C24.7461 26.2057 24.7591 24.832 24.7852 22.6445C24.8242 18.3477 24.8438 15.9974 24.8438 15.5938L23.0469 15.3008C22.7995 14.5586 22.6237 13.862 22.5195 13.2109C22.4154 12.5599 22.3633 11.9023 22.3633 11.2383C22.3633 10.9648 22.3698 10.7565 22.3828 10.6133C22.6042 10.418 22.9492 10.1836 23.418 9.91016C23.8867 9.63672 24.4401 9.39583 25.0781 9.1875C25.7161 8.96615 26.3672 8.85547 27.0312 8.85547C28.5807 8.85547 29.7005 9.20052 30.3906 9.89062C31.0938 10.5807 31.4453 11.5898 31.4453 12.918C31.4453 13.7253 31.3411 14.7604 31.1328 16.0234C30.9375 17.2734 30.7357 18.1654 30.5273 18.6992L31.2305 18.8164L32.4023 14.4023C32.9232 12.4102 33.5742 10.9909 34.3555 10.1445C35.1367 9.28516 36.0156 8.85547 36.9922 8.85547C37.6302 8.85547 38.2617 8.95312 38.8867 9.14844C39.5247 9.34375 40.013 9.58464 40.3516 9.87109C40.7161 10.6784 40.8984 11.7526 40.8984 13.0938C40.8984 14.0312 40.8073 14.9622 40.625 15.8867C40.4427 16.7982 40.2083 17.5339 39.9219 18.0938L35.8203 17.5469C34.987 18.4323 34.1016 19.6628 33.1641 21.2383C32.2266 22.8008 31.4779 24.2396 30.918 25.5547L30.8984 26.5703L34.6875 25.6719C35.3255 26.6484 35.6966 27.8073 35.8008 29.1484C35.8008 29.2266 35.5078 29.5456 34.9219 30.1055C34.3359 30.6654 33.5612 31.1862 32.5977 31.668C31.6471 32.1367 30.5534 32.3711 29.3164 32.3711C28.0404 32.3711 26.9727 32.0326 26.1133 31.3555C25.2669 30.6654 24.8177 29.5065 24.7656 27.8789C24.7526 27.6836 24.7461 27.3125 24.7461 26.7656Z" fill="white"/>
<path d="M42.3242 20.457C42.3242 18.1003 42.7018 16.056 43.457 14.3242C44.2122 12.5924 45.3711 11.2513 46.9336 10.3008C48.4961 9.33724 50.4557 8.85547 52.8125 8.85547C55.4167 8.85547 57.4609 9.34375 58.9453 10.3203C60.4297 11.2839 61.4648 12.625 62.0508 14.3438C62.6497 16.0625 62.9492 18.1654 62.9492 20.6523C62.9492 22.9049 62.5521 24.9167 61.7578 26.6875C60.9766 28.4453 59.7917 29.8385 58.2031 30.8672C56.6276 31.8828 54.694 32.3906 52.4023 32.3906C48.8607 32.3906 46.2956 31.3034 44.707 29.1289C43.1185 26.9414 42.3242 24.0508 42.3242 20.457ZM53.2031 26.668C53.8672 26.668 54.2708 26.6159 54.4141 26.5117C54.7135 25.9909 54.9414 25.2552 55.0977 24.3047C55.2539 23.3542 55.332 22.3255 55.332 21.2188C55.332 20.2031 55.2669 19.2526 55.1367 18.3672C55.0065 17.4688 54.8242 16.7656 54.5898 16.2578C54.4466 16.0885 54.1602 15.9648 53.7305 15.8867C53.3008 15.7956 52.832 15.75 52.3242 15.75C51.6602 15.75 51.2044 15.8216 50.957 15.9648C50.306 17.0846 49.9805 18.6406 49.9805 20.6328C49.9805 21.5703 50.0521 22.5273 50.1953 23.5039C50.3385 24.4805 50.5208 25.3659 50.7422 26.1602C50.8984 26.3294 51.2174 26.4596 51.6992 26.5508C52.181 26.6289 52.6823 26.668 53.2031 26.668Z" fill="white"/>
<path d="M67.4414 25.2031C67.4414 23.0807 67.4674 21.4792 67.5195 20.3984C67.5716 19.3047 67.7083 17.7031 67.9297 15.5938L65.6641 15.3008C65.3906 14.4544 65.2083 13.6992 65.1172 13.0352C65.0391 12.3711 65 11.5117 65 10.457C65.2083 10.2747 65.5534 10.0599 66.0352 9.8125C66.5299 9.55208 67.1159 9.33073 67.793 9.14844C68.4701 8.95312 69.1536 8.85547 69.8438 8.85547C71.4193 8.85547 72.5326 9.19401 73.1836 9.87109C73.8477 10.5482 74.1797 11.5638 74.1797 12.918C74.1797 13.6732 74.069 14.6953 73.8477 15.9844C73.4831 18.0547 73.3008 19.1419 73.3008 19.2461C73.3008 19.3112 73.3464 19.3763 73.4375 19.4414C73.5286 19.4935 73.6263 19.5195 73.7305 19.5195C73.8477 19.5195 73.9258 19.474 73.9648 19.3828C74.4857 17.3125 75.0065 15.5807 75.5273 14.1875C76.0482 12.7943 76.8359 11.5573 77.8906 10.4766C78.9453 9.39583 80.3125 8.85547 81.9922 8.85547C84.0755 8.85547 85.5729 9.49349 86.4844 10.7695C87.3958 12.0326 87.8516 13.6276 87.8516 15.5547C87.8516 17.2734 87.6497 18.9336 87.2461 20.5352C86.8424 22.1237 86.3411 23.7839 85.7422 25.5156C85.7682 25.4505 85.6771 25.7044 85.4688 26.2773L85.5078 26.3164L88.3594 25.1445C89.375 26.0169 89.9674 27.1758 90.1367 28.6211C90.1367 28.7122 89.8438 29.0833 89.2578 29.7344C88.6849 30.3854 87.9232 30.9909 86.9727 31.5508C86.0221 32.1107 84.9284 32.3906 83.6914 32.3906C82.4544 32.3906 81.4453 32.0586 80.6641 31.3945C79.8828 30.7305 79.4922 29.5977 79.4922 27.9961C79.4922 26.7201 79.5443 25.0143 79.6484 22.8789C79.7526 20.7435 79.8568 19.0247 79.9609 17.7227C79.6224 17.3581 79.2057 17.1628 78.7109 17.1367C78.2552 17.7227 77.5846 18.8945 76.6992 20.6523C75.8138 22.4102 75.1888 23.7253 74.8242 24.5977C74.7982 24.7799 74.7852 24.9557 74.7852 25.125C74.7852 25.776 74.8828 26.6549 75.0781 27.7617C75.2734 28.8555 75.5143 29.8776 75.8008 30.8281C75.5664 31.2708 75.0846 31.6419 74.3555 31.9414C73.6263 32.2409 72.7279 32.3906 71.6602 32.3906C70.6966 32.3906 69.9219 32.3125 69.3359 32.1562C68.763 32 68.3594 31.8372 68.125 31.668C67.8906 31.4857 67.7734 31.375 67.7734 31.3359C67.7604 31.2188 67.7279 30.9128 67.6758 30.418C67.6237 29.9102 67.5716 29.207 67.5195 28.3086C67.4674 27.3971 67.4414 26.362 67.4414 25.2031Z" fill="white"/>
<path d="M93.2227 21.2188C93.2227 19.0964 93.2552 17.1628 93.3203 15.418L91.1914 15.0469C91.0221 14.3958 90.9049 13.8229 90.8398 13.3281C90.7747 12.8333 90.7422 12.306 90.7422 11.7461L90.7812 11.3555C90.8203 11.1732 90.8398 11.0234 90.8398 10.9062L93.6719 10.2812C93.737 9.47396 93.8867 8.5625 94.1211 7.54688C94.3555 6.53125 94.6029 5.78255 94.8633 5.30078C95.2799 4.98828 95.7812 4.75391 96.3672 4.59766C96.9531 4.44141 97.5846 4.36328 98.2617 4.36328C98.8346 4.36328 99.388 4.42188 99.9219 4.53906C100.469 4.64323 100.944 4.78646 101.348 4.96875C101.387 5.41146 101.406 5.91927 101.406 6.49219C101.406 7.42969 101.361 8.49089 101.27 9.67578L104.707 9.05078C105.189 9.88411 105.43 10.7891 105.43 11.7656C105.43 12.4427 105.345 13.0547 105.176 13.6016C105.02 14.1484 104.798 14.7669 104.512 15.457C103.652 15.6003 102.474 15.6914 100.977 15.7305C100.794 17.8529 100.391 20.9714 99.7656 25.0859L99.668 25.75L99.707 25.7891L104.297 24.3633C105.247 25.1576 105.827 26.3815 106.035 28.0352C106.035 28.1263 105.612 28.556 104.766 29.3242C103.932 30.0794 102.884 30.7826 101.621 31.4336C100.358 32.0716 98.9844 32.3906 97.5 32.3906C94.9089 32.3906 93.5286 30.8086 93.3594 27.6445C93.2682 26.043 93.2227 23.901 93.2227 21.2188Z" fill="white"/>
<path d="M107.363 20.6523C107.363 18.3997 107.741 16.388 108.496 14.6172C109.251 12.8464 110.417 11.4466 111.992 10.418C113.581 9.3763 115.56 8.85547 117.93 8.85547C119.167 8.85547 120.404 9.00521 121.641 9.30469C122.878 9.59115 123.926 10.0729 124.785 10.75C125.579 11.388 126.152 12.2344 126.504 13.2891C126.868 14.3307 127.051 15.4896 127.051 16.7656C127.051 17.612 126.979 18.4779 126.836 19.3633C126.68 19.6237 126.374 19.9688 125.918 20.3984C125.462 20.8151 124.928 21.2253 124.316 21.6289C123.704 22.0326 123.112 22.3451 122.539 22.5664C121.992 22.6055 121.426 22.625 120.84 22.625C119.811 22.625 118.77 22.5794 117.715 22.4883C116.66 22.3971 115.736 22.293 114.941 22.1758C115.046 23.2826 115.384 24.2461 115.957 25.0664C116.53 25.8867 117.441 26.2969 118.691 26.2969C118.809 26.2969 118.997 26.2839 119.258 26.2578C120.052 26.1797 120.977 25.9714 122.031 25.6328C123.099 25.2812 124.16 24.8776 125.215 24.4219C125.71 24.9167 126.074 25.4115 126.309 25.9062C126.543 26.401 126.706 27.1107 126.797 28.0352C126.393 28.5039 125.736 29.0768 124.824 29.7539C123.926 30.431 122.826 31.043 121.523 31.5898C120.221 32.1237 118.861 32.3906 117.441 32.3906C115.306 32.3906 113.477 31.8763 111.953 30.8477C110.443 29.806 109.297 28.3997 108.516 26.6289C107.747 24.8451 107.363 22.8529 107.363 20.6523ZM119.941 16.1602C119.759 15.9648 119.453 15.8151 119.023 15.7109C118.594 15.5938 118.145 15.5352 117.676 15.5352C117.298 15.5352 116.914 15.5677 116.523 15.6328C116.146 15.6979 115.918 15.7695 115.84 15.8477C115.397 16.7201 115.117 17.7096 115 18.8164L120.215 18.3086L119.941 16.1602Z" fill="white"/>
<path d="M131.504 25.2031C131.504 23.0807 131.53 21.4792 131.582 20.3984C131.634 19.3047 131.771 17.7031 131.992 15.5938L129.727 15.3008C129.453 14.4544 129.271 13.6992 129.18 13.0352C129.102 12.3711 129.062 11.5117 129.062 10.457C129.271 10.2747 129.616 10.0599 130.098 9.8125C130.592 9.55208 131.178 9.33073 131.855 9.14844C132.533 8.95312 133.216 8.85547 133.906 8.85547C135.482 8.85547 136.595 9.19401 137.246 9.87109C137.91 10.5482 138.242 11.5638 138.242 12.918C138.242 13.6732 138.132 14.6953 137.91 15.9844C137.546 18.0547 137.363 19.1419 137.363 19.2461C137.363 19.3112 137.409 19.3763 137.5 19.4414C137.591 19.4935 137.689 19.5195 137.793 19.5195C137.91 19.5195 137.988 19.474 138.027 19.3828C138.548 17.3125 139.069 15.5807 139.59 14.1875C140.111 12.7943 140.898 11.5573 141.953 10.4766C143.008 9.39583 144.375 8.85547 146.055 8.85547C148.138 8.85547 149.635 9.49349 150.547 10.7695C151.458 12.0326 151.914 13.6276 151.914 15.5547C151.914 17.2734 151.712 18.9336 151.309 20.5352C150.905 22.1237 150.404 23.7839 149.805 25.5156C149.831 25.4505 149.74 25.7044 149.531 26.2773L149.57 26.3164L152.422 25.1445C153.438 26.0169 154.03 27.1758 154.199 28.6211C154.199 28.7122 153.906 29.0833 153.32 29.7344C152.747 30.3854 151.986 30.9909 151.035 31.5508C150.085 32.1107 148.991 32.3906 147.754 32.3906C146.517 32.3906 145.508 32.0586 144.727 31.3945C143.945 30.7305 143.555 29.5977 143.555 27.9961C143.555 26.7201 143.607 25.0143 143.711 22.8789C143.815 20.7435 143.919 19.0247 144.023 17.7227C143.685 17.3581 143.268 17.1628 142.773 17.1367C142.318 17.7227 141.647 18.8945 140.762 20.6523C139.876 22.4102 139.251 23.7253 138.887 24.5977C138.861 24.7799 138.848 24.9557 138.848 25.125C138.848 25.776 138.945 26.6549 139.141 27.7617C139.336 28.8555 139.577 29.8776 139.863 30.8281C139.629 31.2708 139.147 31.6419 138.418 31.9414C137.689 32.2409 136.79 32.3906 135.723 32.3906C134.759 32.3906 133.984 32.3125 133.398 32.1562C132.826 32 132.422 31.8372 132.188 31.668C131.953 31.4857 131.836 31.375 131.836 31.3359C131.823 31.2188 131.79 30.9128 131.738 30.418C131.686 29.9102 131.634 29.207 131.582 28.3086C131.53 27.3971 131.504 26.362 131.504 25.2031Z" fill="white"/>
<path d="M155.781 20.7305C155.781 18.7513 156.055 16.8568 156.602 15.0469C157.161 13.237 158.034 11.7526 159.219 10.5938C160.417 9.4349 161.921 8.85547 163.73 8.85547C165.762 8.85547 167.702 9.5 169.551 10.7891L169.863 10.5938C169.824 9.07031 169.635 7.6901 169.297 6.45312L165.332 6.19922C165.15 5.96484 165.007 5.61979 164.902 5.16406C164.798 4.69531 164.746 4.21354 164.746 3.71875C164.746 3.05469 164.824 2.48177 164.98 2C165.762 1.4401 166.764 1.01693 167.988 0.730469C169.212 0.44401 170.436 0.300781 171.66 0.300781C173.014 0.300781 174.036 0.58724 174.727 1.16016C175.417 1.72005 175.879 2.57292 176.113 3.71875C176.361 4.85156 176.484 6.42708 176.484 8.44531C176.484 11.1016 176.374 14.1159 176.152 17.4883C175.931 20.8607 175.645 23.6146 175.293 25.75L175.215 26.082L177.48 25.1055C177.858 25.5091 178.19 26.0039 178.477 26.5898C178.776 27.1628 178.965 27.8268 179.043 28.582C178.861 28.9727 178.464 29.474 177.852 30.0859C177.24 30.6849 176.491 31.2188 175.605 31.6875C174.72 32.1562 173.796 32.3906 172.832 32.3906C171.751 32.3906 170.918 32.0716 170.332 31.4336C169.759 30.7826 169.473 29.9557 169.473 28.9531C169.473 28.6927 169.538 28.1589 169.668 27.3516C169.811 26.5443 169.928 25.9844 170.02 25.6719L169.434 25.4961C168.77 27.8268 167.891 29.5586 166.797 30.6914C165.703 31.8242 164.349 32.3906 162.734 32.3906C161.003 32.3906 159.616 31.8177 158.574 30.6719C157.546 29.513 156.823 28.0612 156.406 26.3164C155.99 24.5716 155.781 22.7096 155.781 20.7305ZM169.18 20.3789C169.258 19.9102 169.297 19.3633 169.297 18.7383C169.297 18.3346 169.277 17.9505 169.238 17.5859C169.212 17.2214 169.18 16.9609 169.141 16.8047C168.62 16.4271 168.027 16.1602 167.363 16.0039C166.712 15.8477 166.113 15.7695 165.566 15.7695C165.228 15.7695 164.863 15.8021 164.473 15.8672C164.212 16.1276 164.004 16.694 163.848 17.5664C163.691 18.4258 163.613 19.3958 163.613 20.4766C163.613 21.6354 163.691 22.7617 163.848 23.8555C164.017 24.9362 164.251 25.7826 164.551 26.3945C164.759 26.3945 165.163 26.0755 165.762 25.4375C166.374 24.7865 167.005 23.9922 167.656 23.0547C168.307 22.1042 168.815 21.2122 169.18 20.3789Z" fill="white"/>
<path d="M188.672 27.6641C188.672 27 188.783 26.3164 189.004 25.6133C190.124 25.3008 191.172 25.151 192.148 25.1641C191.901 22.625 191.693 19.8516 191.523 16.8438C191.354 13.8229 191.237 11.0365 191.172 8.48438H191.152L188.359 8.07422C188.19 7.59245 188.06 7.05859 187.969 6.47266C187.878 5.88672 187.832 5.32031 187.832 4.77344C187.832 4.35677 187.865 3.90104 187.93 3.40625C189.323 2.79427 191.51 2.36458 194.492 2.11719C197.474 1.85677 200.436 1.72656 203.379 1.72656C205.358 1.72656 207.038 1.88281 208.418 2.19531C209.798 2.50781 210.951 3.21745 211.875 4.32422C212.812 5.41797 213.281 7.05859 213.281 9.24609C213.281 13.2956 212.305 18.6081 210.352 25.1836C210.026 26.2643 209.661 27.2344 209.258 28.0938C208.854 28.9531 208.34 29.6953 207.715 30.3203C207.181 30.9193 206.628 31.375 206.055 31.6875C205.495 31.987 204.818 32.1367 204.023 32.1367C203.62 32.1367 203.073 32.0716 202.383 31.9414C201.523 31.7721 200.762 31.5573 200.098 31.2969C199.434 31.0234 198.88 30.75 198.438 30.4766C198.008 30.2031 197.493 29.8581 196.895 29.4414C196.634 29.819 196.198 30.2357 195.586 30.6914C194.987 31.1471 194.323 31.5378 193.594 31.8633C192.865 32.1888 192.188 32.3646 191.562 32.3906C190.664 32.0521 189.954 31.4531 189.434 30.5938C188.926 29.7214 188.672 28.7448 188.672 27.6641ZM203.711 25.0078C204.076 23.2109 204.362 21.1276 204.57 18.7578C204.779 16.375 204.954 13.8034 205.098 11.043L205.176 9.65625C205.098 9.51302 204.779 9.36979 204.219 9.22656C203.672 9.08333 202.949 9.01172 202.051 9.01172L200.527 8.99219C199.798 8.99219 199.212 9.02474 198.77 9.08984C198.77 9.63672 198.776 10.099 198.789 10.4766C198.828 12.7422 198.848 14.7669 198.848 16.5508C198.848 18.6211 198.828 21.5638 198.789 25.3789C200.495 25.3789 202.135 25.2552 203.711 25.0078Z" fill="white"/>
<path d="M215.293 20.6523C215.293 18.3997 215.671 16.388 216.426 14.6172C217.181 12.8464 218.346 11.4466 219.922 10.418C221.51 9.3763 223.49 8.85547 225.859 8.85547C227.096 8.85547 228.333 9.00521 229.57 9.30469C230.807 9.59115 231.855 10.0729 232.715 10.75C233.509 11.388 234.082 12.2344 234.434 13.2891C234.798 14.3307 234.98 15.4896 234.98 16.7656C234.98 17.612 234.909 18.4779 234.766 19.3633C234.609 19.6237 234.303 19.9688 233.848 20.3984C233.392 20.8151 232.858 21.2253 232.246 21.6289C231.634 22.0326 231.042 22.3451 230.469 22.5664C229.922 22.6055 229.355 22.625 228.77 22.625C227.741 22.625 226.699 22.5794 225.645 22.4883C224.59 22.3971 223.665 22.293 222.871 22.1758C222.975 23.2826 223.314 24.2461 223.887 25.0664C224.46 25.8867 225.371 26.2969 226.621 26.2969C226.738 26.2969 226.927 26.2839 227.188 26.2578C227.982 26.1797 228.906 25.9714 229.961 25.6328C231.029 25.2812 232.09 24.8776 233.145 24.4219C233.639 24.9167 234.004 25.4115 234.238 25.9062C234.473 26.401 234.635 27.1107 234.727 28.0352C234.323 28.5039 233.665 29.0768 232.754 29.7539C231.855 30.431 230.755 31.043 229.453 31.5898C228.151 32.1237 226.79 32.3906 225.371 32.3906C223.236 32.3906 221.406 31.8763 219.883 30.8477C218.372 29.806 217.227 28.3997 216.445 26.6289C215.677 24.8451 215.293 22.8529 215.293 20.6523ZM227.871 16.1602C227.689 15.9648 227.383 15.8151 226.953 15.7109C226.523 15.5938 226.074 15.5352 225.605 15.5352C225.228 15.5352 224.844 15.5677 224.453 15.6328C224.076 15.6979 223.848 15.7695 223.77 15.8477C223.327 16.7201 223.047 17.7096 222.93 18.8164L228.145 18.3086L227.871 16.1602Z" fill="white"/>
<path d="M237.051 16.2383C236.855 15.6784 236.699 15.0339 236.582 14.3047C236.465 13.5755 236.406 12.8659 236.406 12.1758C236.745 11.2122 237.331 10.4115 238.164 9.77344C239.01 9.13542 240.046 8.81641 241.27 8.81641C242.441 8.81641 243.385 9.1875 244.102 9.92969C244.831 10.6589 245.475 11.8047 246.035 13.3672C246.621 15.0078 247.096 16.9479 247.461 19.1875C247.826 21.4271 248.079 23.8424 248.223 26.4336L248.789 26.4531C249.362 25.3073 249.857 23.6732 250.273 21.5508C250.69 19.4154 250.905 17.3906 250.918 15.4766L248.477 15.0469C248.307 14.4089 248.19 13.849 248.125 13.3672C248.06 12.8724 248.027 12.332 248.027 11.7461L248.047 11.1992C248.281 10.8607 248.672 10.5091 249.219 10.1445C249.766 9.77995 250.417 9.47396 251.172 9.22656C251.94 8.97917 252.741 8.85547 253.574 8.85547C256.934 8.85547 258.613 10.5417 258.613 13.9141C258.613 15.9193 258.255 18.0677 257.539 20.3594C256.823 22.638 255.788 24.8125 254.434 26.8828C253.092 28.9531 251.51 30.6589 249.688 32C249.049 32.2604 248.184 32.3906 247.09 32.3906C246.504 32.3906 245.846 32.2604 245.117 32C244.388 31.7526 243.848 31.4922 243.496 31.2188L243.086 29.8516C242.148 26.6745 241.302 23.9401 240.547 21.6484C239.792 19.3438 239.102 17.6315 238.477 16.5117L237.051 16.2383Z" fill="white"/>
<path d="M260.605 20.6523C260.605 18.3997 260.983 16.388 261.738 14.6172C262.493 12.8464 263.659 11.4466 265.234 10.418C266.823 9.3763 268.802 8.85547 271.172 8.85547C272.409 8.85547 273.646 9.00521 274.883 9.30469C276.12 9.59115 277.168 10.0729 278.027 10.75C278.822 11.388 279.395 12.2344 279.746 13.2891C280.111 14.3307 280.293 15.4896 280.293 16.7656C280.293 17.612 280.221 18.4779 280.078 19.3633C279.922 19.6237 279.616 19.9688 279.16 20.3984C278.704 20.8151 278.171 21.2253 277.559 21.6289C276.947 22.0326 276.354 22.3451 275.781 22.5664C275.234 22.6055 274.668 22.625 274.082 22.625C273.053 22.625 272.012 22.5794 270.957 22.4883C269.902 22.3971 268.978 22.293 268.184 22.1758C268.288 23.2826 268.626 24.2461 269.199 25.0664C269.772 25.8867 270.684 26.2969 271.934 26.2969C272.051 26.2969 272.24 26.2839 272.5 26.2578C273.294 26.1797 274.219 25.9714 275.273 25.6328C276.341 25.2812 277.402 24.8776 278.457 24.4219C278.952 24.9167 279.316 25.4115 279.551 25.9062C279.785 26.401 279.948 27.1107 280.039 28.0352C279.635 28.5039 278.978 29.0768 278.066 29.7539C277.168 30.431 276.068 31.043 274.766 31.5898C273.464 32.1237 272.103 32.3906 270.684 32.3906C268.548 32.3906 266.719 31.8763 265.195 30.8477C263.685 29.806 262.539 28.3997 261.758 26.6289C260.99 24.8451 260.605 22.8529 260.605 20.6523ZM273.184 16.1602C273.001 15.9648 272.695 15.8151 272.266 15.7109C271.836 15.5938 271.387 15.5352 270.918 15.5352C270.54 15.5352 270.156 15.5677 269.766 15.6328C269.388 15.6979 269.16 15.7695 269.082 15.8477C268.639 16.7201 268.359 17.7096 268.242 18.8164L273.457 18.3086L273.184 16.1602Z" fill="white"/>
<path d="M282.363 6.45312C282.168 5.65885 282.038 5.0013 281.973 4.48047C281.908 3.94661 281.882 3.33464 281.895 2.64453C282.168 2.29297 282.591 1.94141 283.164 1.58984C283.75 1.22526 284.427 0.919271 285.195 0.671875C285.977 0.424479 286.784 0.300781 287.617 0.300781C289.245 0.300781 290.495 0.710938 291.367 1.53125C292.24 2.35156 292.676 3.5625 292.676 5.16406C292.676 6.3099 292.578 8.15234 292.383 10.6914C292.188 13.2305 291.908 15.9323 291.543 18.7969C291.178 21.6484 290.762 24.1419 290.293 26.2773L290.332 26.3164L293.223 25.1055C294.238 25.9779 294.831 27.1367 295 28.582C295 28.6732 294.707 29.0508 294.121 29.7148C293.535 30.3659 292.76 30.9779 291.797 31.5508C290.846 32.1107 289.753 32.3906 288.516 32.3906C287.227 32.3906 286.178 32.0326 285.371 31.3164C284.577 30.6003 284.199 29.3763 284.238 27.6445L284.277 24.1289C284.29 20.7956 284.323 17.7943 284.375 15.125C284.44 12.4557 284.57 9.70182 284.766 6.86328L282.363 6.45312Z" fill="white"/>
<path d="M296.582 20.457C296.582 18.1003 296.96 16.056 297.715 14.3242C298.47 12.5924 299.629 11.2513 301.191 10.3008C302.754 9.33724 304.714 8.85547 307.07 8.85547C309.674 8.85547 311.719 9.34375 313.203 10.3203C314.688 11.2839 315.723 12.625 316.309 14.3438C316.908 16.0625 317.207 18.1654 317.207 20.6523C317.207 22.9049 316.81 24.9167 316.016 26.6875C315.234 28.4453 314.049 29.8385 312.461 30.8672C310.885 31.8828 308.952 32.3906 306.66 32.3906C303.118 32.3906 300.553 31.3034 298.965 29.1289C297.376 26.9414 296.582 24.0508 296.582 20.457ZM307.461 26.668C308.125 26.668 308.529 26.6159 308.672 26.5117C308.971 25.9909 309.199 25.2552 309.355 24.3047C309.512 23.3542 309.59 22.3255 309.59 21.2188C309.59 20.2031 309.525 19.2526 309.395 18.3672C309.264 17.4688 309.082 16.7656 308.848 16.2578C308.704 16.0885 308.418 15.9648 307.988 15.8867C307.559 15.7956 307.09 15.75 306.582 15.75C305.918 15.75 305.462 15.8216 305.215 15.9648C304.564 17.0846 304.238 18.6406 304.238 20.6328C304.238 21.5703 304.31 22.5273 304.453 23.5039C304.596 24.4805 304.779 25.3659 305 26.1602C305.156 26.3294 305.475 26.4596 305.957 26.5508C306.439 26.6289 306.94 26.668 307.461 26.668Z" fill="white"/>
<path d="M319.473 15.2422C319.199 14.3958 319.017 13.6406 318.926 12.9766C318.848 12.3125 318.809 11.4531 318.809 10.3984C319.017 10.2161 319.355 10.0078 319.824 9.77344C320.293 9.52604 320.853 9.3112 321.504 9.12891C322.155 8.94661 322.826 8.85547 323.516 8.85547C325.091 8.85547 326.204 9.19401 326.855 9.87109C327.52 10.5482 327.852 11.5638 327.852 12.918C327.852 13.6732 327.741 14.6953 327.52 15.9844C327.155 18.0547 326.973 19.1419 326.973 19.2461C326.973 19.3112 327.018 19.3763 327.109 19.4414C327.201 19.4935 327.298 19.5195 327.402 19.5195C327.52 19.5195 327.598 19.474 327.637 19.3828L327.832 18.6016L328.262 16.9414C328.9 14.5326 329.85 12.5859 331.113 11.1016C332.376 9.60417 333.965 8.85547 335.879 8.85547C337.311 8.85547 338.477 9.16797 339.375 9.79297C340.286 10.4049 340.944 11.2188 341.348 12.2344C341.751 13.237 341.953 14.3438 341.953 15.5547C341.953 17.1953 341.797 19.0378 341.484 21.082C341.172 23.1133 340.755 25.0143 340.234 26.7852C339.727 28.5169 338.88 29.8906 337.695 30.9062C336.523 31.9089 335.059 32.4102 333.301 32.4102C332.663 32.4102 331.914 32.306 331.055 32.0977C330.208 31.9023 329.134 31.5573 327.832 31.0625L327.051 34.7539L327.09 34.793L330.82 34.5391C331.068 34.8906 331.25 35.3138 331.367 35.8086C331.497 36.3164 331.608 36.8958 331.699 37.5469L331.758 37.9375C331.758 37.9896 331.471 38.2305 330.898 38.6602C330.326 39.1029 329.564 39.5065 328.613 39.8711C327.663 40.2487 326.569 40.4375 325.332 40.4375C322.533 40.4375 321.133 38.9466 321.133 35.9648V34.6172C321.133 30.6458 321.159 27.1107 321.211 24.0117C321.276 20.8997 321.406 18.0938 321.602 15.5938L319.473 15.2422ZM333.223 27.1953C333.691 25.4375 333.926 22.7747 333.926 19.207C333.926 18.5951 333.893 18.1003 333.828 17.7227C333.529 17.3451 333.099 17.1562 332.539 17.1562C332.357 17.3125 331.732 18.3411 330.664 20.2422C329.596 22.1302 328.809 23.582 328.301 24.5977V25.5352C329.017 26.0299 329.844 26.4401 330.781 26.7656C331.719 27.0781 332.435 27.2344 332.93 27.2344C333.047 27.2344 333.145 27.2214 333.223 27.1953Z" fill="white"/>
<path d="M344.238 20.6523C344.238 18.3997 344.616 16.388 345.371 14.6172C346.126 12.8464 347.292 11.4466 348.867 10.418C350.456 9.3763 352.435 8.85547 354.805 8.85547C356.042 8.85547 357.279 9.00521 358.516 9.30469C359.753 9.59115 360.801 10.0729 361.66 10.75C362.454 11.388 363.027 12.2344 363.379 13.2891C363.743 14.3307 363.926 15.4896 363.926 16.7656C363.926 17.612 363.854 18.4779 363.711 19.3633C363.555 19.6237 363.249 19.9688 362.793 20.3984C362.337 20.8151 361.803 21.2253 361.191 21.6289C360.579 22.0326 359.987 22.3451 359.414 22.5664C358.867 22.6055 358.301 22.625 357.715 22.625C356.686 22.625 355.645 22.5794 354.59 22.4883C353.535 22.3971 352.611 22.293 351.816 22.1758C351.921 23.2826 352.259 24.2461 352.832 25.0664C353.405 25.8867 354.316 26.2969 355.566 26.2969C355.684 26.2969 355.872 26.2839 356.133 26.2578C356.927 26.1797 357.852 25.9714 358.906 25.6328C359.974 25.2812 361.035 24.8776 362.09 24.4219C362.585 24.9167 362.949 25.4115 363.184 25.9062C363.418 26.401 363.581 27.1107 363.672 28.0352C363.268 28.5039 362.611 29.0768 361.699 29.7539C360.801 30.431 359.701 31.043 358.398 31.5898C357.096 32.1237 355.736 32.3906 354.316 32.3906C352.181 32.3906 350.352 31.8763 348.828 30.8477C347.318 29.806 346.172 28.3997 345.391 26.6289C344.622 24.8451 344.238 22.8529 344.238 20.6523ZM356.816 16.1602C356.634 15.9648 356.328 15.8151 355.898 15.7109C355.469 15.5938 355.02 15.5352 354.551 15.5352C354.173 15.5352 353.789 15.5677 353.398 15.6328C353.021 15.6979 352.793 15.7695 352.715 15.8477C352.272 16.7201 351.992 17.7096 351.875 18.8164L357.09 18.3086L356.816 16.1602Z" fill="white"/>
<path d="M368.496 26.7656C368.496 26.2057 368.509 24.832 368.535 22.6445C368.574 18.3477 368.594 15.9974 368.594 15.5938L366.797 15.3008C366.549 14.5586 366.374 13.862 366.27 13.2109C366.165 12.5599 366.113 11.9023 366.113 11.2383C366.113 10.9648 366.12 10.7565 366.133 10.6133C366.354 10.418 366.699 10.1836 367.168 9.91016C367.637 9.63672 368.19 9.39583 368.828 9.1875C369.466 8.96615 370.117 8.85547 370.781 8.85547C372.331 8.85547 373.451 9.20052 374.141 9.89062C374.844 10.5807 375.195 11.5898 375.195 12.918C375.195 13.7253 375.091 14.7604 374.883 16.0234C374.688 17.2734 374.486 18.1654 374.277 18.6992L374.98 18.8164L376.152 14.4023C376.673 12.4102 377.324 10.9909 378.105 10.1445C378.887 9.28516 379.766 8.85547 380.742 8.85547C381.38 8.85547 382.012 8.95312 382.637 9.14844C383.275 9.34375 383.763 9.58464 384.102 9.87109C384.466 10.6784 384.648 11.7526 384.648 13.0938C384.648 14.0312 384.557 14.9622 384.375 15.8867C384.193 16.7982 383.958 17.5339 383.672 18.0938L379.57 17.5469C378.737 18.4323 377.852 19.6628 376.914 21.2383C375.977 22.8008 375.228 24.2396 374.668 25.5547L374.648 26.5703L378.438 25.6719C379.076 26.6484 379.447 27.8073 379.551 29.1484C379.551 29.2266 379.258 29.5456 378.672 30.1055C378.086 30.6654 377.311 31.1862 376.348 31.668C375.397 32.1367 374.303 32.3711 373.066 32.3711C371.79 32.3711 370.723 32.0326 369.863 31.3555C369.017 30.6654 368.568 29.5065 368.516 27.8789C368.503 27.6836 368.496 27.3125 368.496 26.7656Z" fill="white"/>
</svg>
