<svg id="logo2" width="485" height="141" viewBox="0 0 485 141" fill="none" xmlns="http://www.w3.org/2000/svg">
<g filter="url(#filter0_dd_13_8)">
<path d="M51.7578 75.3008C52.2005 75.5091 52.6432 75.7174 53.0859 75.9258C53.5417 76.1211 54.043 76.3164 54.5898 76.5117C54.681 76.2643 54.7266 75.8737 54.7266 75.3398C54.7266 74.9753 54.7201 74.6953 54.707 74.5C54.6549 73.4974 54.5508 71.974 54.3945 69.9297C54.2383 67.7943 54.1211 66.056 54.043 64.7148C53.9648 63.3737 53.9258 62.1042 53.9258 60.9062C53.9258 60.5417 53.9388 60.0339 53.9648 59.3828L54.0234 58.4648L51.1133 58.0547C50.944 57.5729 50.8138 57.0456 50.7227 56.4727C50.6315 55.8867 50.5859 55.3203 50.5859 54.7734C50.5859 54.3568 50.6185 53.901 50.6836 53.4062C52.2461 52.8073 54.2122 52.3776 56.582 52.1172C58.9518 51.8568 61.3997 51.7266 63.9258 51.7266C66.4779 51.7266 68.2357 51.8372 69.1992 52.0586L69.2188 52.0391C69.9219 52.4557 70.5339 52.8919 71.0547 53.3477C71.5885 53.7904 72.0964 54.3307 72.5781 54.9688C72.5781 55.8672 72.4674 56.9023 72.2461 58.0742C72.0378 59.2331 71.7643 60.3008 71.4258 61.2773C71.1003 62.2539 70.7617 62.944 70.4102 63.3477C70.0977 63.4909 69.7591 63.6016 69.3945 63.6797C69.0299 63.7448 68.5872 63.7773 68.0664 63.7773C67.5195 63.7773 67.1029 63.7383 66.8164 63.6602C66.543 63.582 66.2435 63.4518 65.918 63.2695L65.2539 58.3672C64.8242 58.276 64.3034 58.2305 63.6914 58.2305C63.1445 58.2305 62.5651 58.263 61.9531 58.3281C61.9141 58.9401 61.8685 59.9492 61.8164 61.3555C61.7904 62.3841 61.7513 63.3802 61.6992 64.3438L61.543 67.7422C64.7201 67.3516 67.3698 66.9414 69.4922 66.5117C70.013 67.2799 70.2734 68.2695 70.2734 69.4805C70.2734 70.2747 70.1693 71.0365 69.9609 71.7656C69.7526 72.4948 69.5247 72.9961 69.2773 73.2695C68.8737 73.3346 68.3398 73.3672 67.6758 73.3672C66.6862 73.3672 65.625 73.276 64.4922 73.0938C63.3724 72.8984 62.3047 72.6315 61.2891 72.293C61.2109 73.4518 61.1133 74.5716 60.9961 75.6523C60.8789 76.681 60.7161 77.5794 60.5078 78.3477C60.3125 79.1029 60.0065 79.7604 59.5898 80.3203C59.056 81.0234 58.3724 81.5443 57.5391 81.8828C56.7188 82.2214 55.8333 82.3906 54.8828 82.3906C54.0104 82.3906 53.151 82.1888 52.3047 81.7852C51.4714 81.3815 50.7878 80.6979 50.2539 79.7344C50.2669 78.888 50.3711 78.1263 50.5664 77.4492C50.7747 76.7721 51.1719 76.056 51.7578 75.3008Z" fill="white"/>
<path d="M74.7461 76.7656C74.7461 76.2057 74.7591 74.832 74.7852 72.6445C74.8242 68.3477 74.8438 65.9974 74.8438 65.5938L73.0469 65.3008C72.7995 64.5586 72.6237 63.862 72.5195 63.2109C72.4154 62.5599 72.3633 61.9023 72.3633 61.2383C72.3633 60.9648 72.3698 60.7565 72.3828 60.6133C72.6042 60.418 72.9492 60.1836 73.418 59.9102C73.8867 59.6367 74.4401 59.3958 75.0781 59.1875C75.7161 58.9661 76.3672 58.8555 77.0312 58.8555C78.5807 58.8555 79.7005 59.2005 80.3906 59.8906C81.0938 60.5807 81.4453 61.5898 81.4453 62.918C81.4453 63.7253 81.3411 64.7604 81.1328 66.0234C80.9375 67.2734 80.7357 68.1654 80.5273 68.6992L81.2305 68.8164L82.4023 64.4023C82.9232 62.4102 83.5742 60.9909 84.3555 60.1445C85.1367 59.2852 86.0156 58.8555 86.9922 58.8555C87.6302 58.8555 88.2617 58.9531 88.8867 59.1484C89.5247 59.3438 90.013 59.5846 90.3516 59.8711C90.7161 60.6784 90.8984 61.7526 90.8984 63.0938C90.8984 64.0312 90.8073 64.9622 90.625 65.8867C90.4427 66.7982 90.2083 67.5339 89.9219 68.0938L85.8203 67.5469C84.987 68.4323 84.1016 69.6628 83.1641 71.2383C82.2266 72.8008 81.4779 74.2396 80.918 75.5547L80.8984 76.5703L84.6875 75.6719C85.3255 76.6484 85.6966 77.8073 85.8008 79.1484C85.8008 79.2266 85.5078 79.5456 84.9219 80.1055C84.3359 80.6654 83.5612 81.1862 82.5977 81.668C81.6471 82.1367 80.5534 82.3711 79.3164 82.3711C78.0404 82.3711 76.9727 82.0326 76.1133 81.3555C75.2669 80.6654 74.8177 79.5065 74.7656 77.8789C74.7526 77.6836 74.7461 77.3125 74.7461 76.7656Z" fill="white"/>
<path d="M92.3242 70.457C92.3242 68.1003 92.7018 66.056 93.457 64.3242C94.2122 62.5924 95.3711 61.2513 96.9336 60.3008C98.4961 59.3372 100.456 58.8555 102.812 58.8555C105.417 58.8555 107.461 59.3438 108.945 60.3203C110.43 61.2839 111.465 62.625 112.051 64.3438C112.65 66.0625 112.949 68.1654 112.949 70.6523C112.949 72.9049 112.552 74.9167 111.758 76.6875C110.977 78.4453 109.792 79.8385 108.203 80.8672C106.628 81.8828 104.694 82.3906 102.402 82.3906C98.8607 82.3906 96.2956 81.3034 94.707 79.1289C93.1185 76.9414 92.3242 74.0508 92.3242 70.457ZM103.203 76.668C103.867 76.668 104.271 76.6159 104.414 76.5117C104.714 75.9909 104.941 75.2552 105.098 74.3047C105.254 73.3542 105.332 72.3255 105.332 71.2188C105.332 70.2031 105.267 69.2526 105.137 68.3672C105.007 67.4688 104.824 66.7656 104.59 66.2578C104.447 66.0885 104.16 65.9648 103.73 65.8867C103.301 65.7956 102.832 65.75 102.324 65.75C101.66 65.75 101.204 65.8216 100.957 65.9648C100.306 67.0846 99.9805 68.6406 99.9805 70.6328C99.9805 71.5703 100.052 72.5273 100.195 73.5039C100.339 74.4805 100.521 75.3659 100.742 76.1602C100.898 76.3294 101.217 76.4596 101.699 76.5508C102.181 76.6289 102.682 76.668 103.203 76.668Z" fill="white"/>
<path d="M117.441 75.2031C117.441 73.0807 117.467 71.4792 117.52 70.3984C117.572 69.3047 117.708 67.7031 117.93 65.5938L115.664 65.3008C115.391 64.4544 115.208 63.6992 115.117 63.0352C115.039 62.3711 115 61.5117 115 60.457C115.208 60.2747 115.553 60.0599 116.035 59.8125C116.53 59.5521 117.116 59.3307 117.793 59.1484C118.47 58.9531 119.154 58.8555 119.844 58.8555C121.419 58.8555 122.533 59.194 123.184 59.8711C123.848 60.5482 124.18 61.5638 124.18 62.918C124.18 63.6732 124.069 64.6953 123.848 65.9844C123.483 68.0547 123.301 69.1419 123.301 69.2461C123.301 69.3112 123.346 69.3763 123.438 69.4414C123.529 69.4935 123.626 69.5195 123.73 69.5195C123.848 69.5195 123.926 69.474 123.965 69.3828C124.486 67.3125 125.007 65.5807 125.527 64.1875C126.048 62.7943 126.836 61.5573 127.891 60.4766C128.945 59.3958 130.312 58.8555 131.992 58.8555C134.076 58.8555 135.573 59.4935 136.484 60.7695C137.396 62.0326 137.852 63.6276 137.852 65.5547C137.852 67.2734 137.65 68.9336 137.246 70.5352C136.842 72.1237 136.341 73.7839 135.742 75.5156C135.768 75.4505 135.677 75.7044 135.469 76.2773L135.508 76.3164L138.359 75.1445C139.375 76.0169 139.967 77.1758 140.137 78.6211C140.137 78.7122 139.844 79.0833 139.258 79.7344C138.685 80.3854 137.923 80.9909 136.973 81.5508C136.022 82.1107 134.928 82.3906 133.691 82.3906C132.454 82.3906 131.445 82.0586 130.664 81.3945C129.883 80.7305 129.492 79.5977 129.492 77.9961C129.492 76.7201 129.544 75.0143 129.648 72.8789C129.753 70.7435 129.857 69.0247 129.961 67.7227C129.622 67.3581 129.206 67.1628 128.711 67.1367C128.255 67.7227 127.585 68.8945 126.699 70.6523C125.814 72.4102 125.189 73.7253 124.824 74.5977C124.798 74.7799 124.785 74.9557 124.785 75.125C124.785 75.776 124.883 76.6549 125.078 77.7617C125.273 78.8555 125.514 79.8776 125.801 80.8281C125.566 81.2708 125.085 81.6419 124.355 81.9414C123.626 82.2409 122.728 82.3906 121.66 82.3906C120.697 82.3906 119.922 82.3125 119.336 82.1562C118.763 82 118.359 81.8372 118.125 81.668C117.891 81.4857 117.773 81.375 117.773 81.3359C117.76 81.2188 117.728 80.9128 117.676 80.418C117.624 79.9102 117.572 79.207 117.52 78.3086C117.467 77.3971 117.441 76.362 117.441 75.2031Z" fill="white"/>
<path d="M143.223 71.2188C143.223 69.0964 143.255 67.1628 143.32 65.418L141.191 65.0469C141.022 64.3958 140.905 63.8229 140.84 63.3281C140.775 62.8333 140.742 62.306 140.742 61.7461L140.781 61.3555C140.82 61.1732 140.84 61.0234 140.84 60.9062L143.672 60.2812C143.737 59.474 143.887 58.5625 144.121 57.5469C144.355 56.5312 144.603 55.7826 144.863 55.3008C145.28 54.9883 145.781 54.7539 146.367 54.5977C146.953 54.4414 147.585 54.3633 148.262 54.3633C148.835 54.3633 149.388 54.4219 149.922 54.5391C150.469 54.6432 150.944 54.7865 151.348 54.9688C151.387 55.4115 151.406 55.9193 151.406 56.4922C151.406 57.4297 151.361 58.4909 151.27 59.6758L154.707 59.0508C155.189 59.8841 155.43 60.7891 155.43 61.7656C155.43 62.4427 155.345 63.0547 155.176 63.6016C155.02 64.1484 154.798 64.7669 154.512 65.457C153.652 65.6003 152.474 65.6914 150.977 65.7305C150.794 67.8529 150.391 70.9714 149.766 75.0859L149.668 75.75L149.707 75.7891L154.297 74.3633C155.247 75.1576 155.827 76.3815 156.035 78.0352C156.035 78.1263 155.612 78.556 154.766 79.3242C153.932 80.0794 152.884 80.7826 151.621 81.4336C150.358 82.0716 148.984 82.3906 147.5 82.3906C144.909 82.3906 143.529 80.8086 143.359 77.6445C143.268 76.043 143.223 73.901 143.223 71.2188Z" fill="white"/>
<path d="M157.363 70.6523C157.363 68.3997 157.741 66.388 158.496 64.6172C159.251 62.8464 160.417 61.4466 161.992 60.418C163.581 59.3763 165.56 58.8555 167.93 58.8555C169.167 58.8555 170.404 59.0052 171.641 59.3047C172.878 59.5911 173.926 60.0729 174.785 60.75C175.579 61.388 176.152 62.2344 176.504 63.2891C176.868 64.3307 177.051 65.4896 177.051 66.7656C177.051 67.612 176.979 68.4779 176.836 69.3633C176.68 69.6237 176.374 69.9688 175.918 70.3984C175.462 70.8151 174.928 71.2253 174.316 71.6289C173.704 72.0326 173.112 72.3451 172.539 72.5664C171.992 72.6055 171.426 72.625 170.84 72.625C169.811 72.625 168.77 72.5794 167.715 72.4883C166.66 72.3971 165.736 72.293 164.941 72.1758C165.046 73.2826 165.384 74.2461 165.957 75.0664C166.53 75.8867 167.441 76.2969 168.691 76.2969C168.809 76.2969 168.997 76.2839 169.258 76.2578C170.052 76.1797 170.977 75.9714 172.031 75.6328C173.099 75.2812 174.16 74.8776 175.215 74.4219C175.71 74.9167 176.074 75.4115 176.309 75.9062C176.543 76.401 176.706 77.1107 176.797 78.0352C176.393 78.5039 175.736 79.0768 174.824 79.7539C173.926 80.431 172.826 81.043 171.523 81.5898C170.221 82.1237 168.861 82.3906 167.441 82.3906C165.306 82.3906 163.477 81.8763 161.953 80.8477C160.443 79.806 159.297 78.3997 158.516 76.6289C157.747 74.8451 157.363 72.8529 157.363 70.6523ZM169.941 66.1602C169.759 65.9648 169.453 65.8151 169.023 65.7109C168.594 65.5938 168.145 65.5352 167.676 65.5352C167.298 65.5352 166.914 65.5677 166.523 65.6328C166.146 65.6979 165.918 65.7695 165.84 65.8477C165.397 66.7201 165.117 67.7096 165 68.8164L170.215 68.3086L169.941 66.1602Z" fill="white"/>
<path d="M181.504 75.2031C181.504 73.0807 181.53 71.4792 181.582 70.3984C181.634 69.3047 181.771 67.7031 181.992 65.5938L179.727 65.3008C179.453 64.4544 179.271 63.6992 179.18 63.0352C179.102 62.3711 179.062 61.5117 179.062 60.457C179.271 60.2747 179.616 60.0599 180.098 59.8125C180.592 59.5521 181.178 59.3307 181.855 59.1484C182.533 58.9531 183.216 58.8555 183.906 58.8555C185.482 58.8555 186.595 59.194 187.246 59.8711C187.91 60.5482 188.242 61.5638 188.242 62.918C188.242 63.6732 188.132 64.6953 187.91 65.9844C187.546 68.0547 187.363 69.1419 187.363 69.2461C187.363 69.3112 187.409 69.3763 187.5 69.4414C187.591 69.4935 187.689 69.5195 187.793 69.5195C187.91 69.5195 187.988 69.474 188.027 69.3828C188.548 67.3125 189.069 65.5807 189.59 64.1875C190.111 62.7943 190.898 61.5573 191.953 60.4766C193.008 59.3958 194.375 58.8555 196.055 58.8555C198.138 58.8555 199.635 59.4935 200.547 60.7695C201.458 62.0326 201.914 63.6276 201.914 65.5547C201.914 67.2734 201.712 68.9336 201.309 70.5352C200.905 72.1237 200.404 73.7839 199.805 75.5156C199.831 75.4505 199.74 75.7044 199.531 76.2773L199.57 76.3164L202.422 75.1445C203.438 76.0169 204.03 77.1758 204.199 78.6211C204.199 78.7122 203.906 79.0833 203.32 79.7344C202.747 80.3854 201.986 80.9909 201.035 81.5508C200.085 82.1107 198.991 82.3906 197.754 82.3906C196.517 82.3906 195.508 82.0586 194.727 81.3945C193.945 80.7305 193.555 79.5977 193.555 77.9961C193.555 76.7201 193.607 75.0143 193.711 72.8789C193.815 70.7435 193.919 69.0247 194.023 67.7227C193.685 67.3581 193.268 67.1628 192.773 67.1367C192.318 67.7227 191.647 68.8945 190.762 70.6523C189.876 72.4102 189.251 73.7253 188.887 74.5977C188.861 74.7799 188.848 74.9557 188.848 75.125C188.848 75.776 188.945 76.6549 189.141 77.7617C189.336 78.8555 189.577 79.8776 189.863 80.8281C189.629 81.2708 189.147 81.6419 188.418 81.9414C187.689 82.2409 186.79 82.3906 185.723 82.3906C184.759 82.3906 183.984 82.3125 183.398 82.1562C182.826 82 182.422 81.8372 182.188 81.668C181.953 81.4857 181.836 81.375 181.836 81.3359C181.823 81.2188 181.79 80.9128 181.738 80.418C181.686 79.9102 181.634 79.207 181.582 78.3086C181.53 77.3971 181.504 76.362 181.504 75.2031Z" fill="white"/>
<path d="M205.781 70.7305C205.781 68.7513 206.055 66.8568 206.602 65.0469C207.161 63.237 208.034 61.7526 209.219 60.5938C210.417 59.4349 211.921 58.8555 213.73 58.8555C215.762 58.8555 217.702 59.5 219.551 60.7891L219.863 60.5938C219.824 59.0703 219.635 57.6901 219.297 56.4531L215.332 56.1992C215.15 55.9648 215.007 55.6198 214.902 55.1641C214.798 54.6953 214.746 54.2135 214.746 53.7188C214.746 53.0547 214.824 52.4818 214.98 52C215.762 51.4401 216.764 51.0169 217.988 50.7305C219.212 50.444 220.436 50.3008 221.66 50.3008C223.014 50.3008 224.036 50.5872 224.727 51.1602C225.417 51.7201 225.879 52.5729 226.113 53.7188C226.361 54.8516 226.484 56.4271 226.484 58.4453C226.484 61.1016 226.374 64.1159 226.152 67.4883C225.931 70.8607 225.645 73.6146 225.293 75.75L225.215 76.082L227.48 75.1055C227.858 75.5091 228.19 76.0039 228.477 76.5898C228.776 77.1628 228.965 77.8268 229.043 78.582C228.861 78.9727 228.464 79.474 227.852 80.0859C227.24 80.6849 226.491 81.2188 225.605 81.6875C224.72 82.1562 223.796 82.3906 222.832 82.3906C221.751 82.3906 220.918 82.0716 220.332 81.4336C219.759 80.7826 219.473 79.9557 219.473 78.9531C219.473 78.6927 219.538 78.1589 219.668 77.3516C219.811 76.5443 219.928 75.9844 220.02 75.6719L219.434 75.4961C218.77 77.8268 217.891 79.5586 216.797 80.6914C215.703 81.8242 214.349 82.3906 212.734 82.3906C211.003 82.3906 209.616 81.8177 208.574 80.6719C207.546 79.513 206.823 78.0612 206.406 76.3164C205.99 74.5716 205.781 72.7096 205.781 70.7305ZM219.18 70.3789C219.258 69.9102 219.297 69.3633 219.297 68.7383C219.297 68.3346 219.277 67.9505 219.238 67.5859C219.212 67.2214 219.18 66.9609 219.141 66.8047C218.62 66.4271 218.027 66.1602 217.363 66.0039C216.712 65.8477 216.113 65.7695 215.566 65.7695C215.228 65.7695 214.863 65.8021 214.473 65.8672C214.212 66.1276 214.004 66.694 213.848 67.5664C213.691 68.4258 213.613 69.3958 213.613 70.4766C213.613 71.6354 213.691 72.7617 213.848 73.8555C214.017 74.9362 214.251 75.7826 214.551 76.3945C214.759 76.3945 215.163 76.0755 215.762 75.4375C216.374 74.7865 217.005 73.9922 217.656 73.0547C218.307 72.1042 218.815 71.2122 219.18 70.3789Z" fill="white"/>
<path d="M238.672 77.6641C238.672 77 238.783 76.3164 239.004 75.6133C240.124 75.3008 241.172 75.151 242.148 75.1641C241.901 72.625 241.693 69.8516 241.523 66.8438C241.354 63.8229 241.237 61.0365 241.172 58.4844H241.152L238.359 58.0742C238.19 57.5924 238.06 57.0586 237.969 56.4727C237.878 55.8867 237.832 55.3203 237.832 54.7734C237.832 54.3568 237.865 53.901 237.93 53.4062C239.323 52.7943 241.51 52.3646 244.492 52.1172C247.474 51.8568 250.436 51.7266 253.379 51.7266C255.358 51.7266 257.038 51.8828 258.418 52.1953C259.798 52.5078 260.951 53.2174 261.875 54.3242C262.812 55.418 263.281 57.0586 263.281 59.2461C263.281 63.2956 262.305 68.6081 260.352 75.1836C260.026 76.2643 259.661 77.2344 259.258 78.0938C258.854 78.9531 258.34 79.6953 257.715 80.3203C257.181 80.9193 256.628 81.375 256.055 81.6875C255.495 81.987 254.818 82.1367 254.023 82.1367C253.62 82.1367 253.073 82.0716 252.383 81.9414C251.523 81.7721 250.762 81.5573 250.098 81.2969C249.434 81.0234 248.88 80.75 248.438 80.4766C248.008 80.2031 247.493 79.8581 246.895 79.4414C246.634 79.819 246.198 80.2357 245.586 80.6914C244.987 81.1471 244.323 81.5378 243.594 81.8633C242.865 82.1888 242.188 82.3646 241.562 82.3906C240.664 82.0521 239.954 81.4531 239.434 80.5938C238.926 79.7214 238.672 78.7448 238.672 77.6641ZM253.711 75.0078C254.076 73.2109 254.362 71.1276 254.57 68.7578C254.779 66.375 254.954 63.8034 255.098 61.043L255.176 59.6562C255.098 59.513 254.779 59.3698 254.219 59.2266C253.672 59.0833 252.949 59.0117 252.051 59.0117L250.527 58.9922C249.798 58.9922 249.212 59.0247 248.77 59.0898C248.77 59.6367 248.776 60.099 248.789 60.4766C248.828 62.7422 248.848 64.7669 248.848 66.5508C248.848 68.6211 248.828 71.5638 248.789 75.3789C250.495 75.3789 252.135 75.2552 253.711 75.0078Z" fill="white"/>
<path d="M265.293 70.6523C265.293 68.3997 265.671 66.388 266.426 64.6172C267.181 62.8464 268.346 61.4466 269.922 60.418C271.51 59.3763 273.49 58.8555 275.859 58.8555C277.096 58.8555 278.333 59.0052 279.57 59.3047C280.807 59.5911 281.855 60.0729 282.715 60.75C283.509 61.388 284.082 62.2344 284.434 63.2891C284.798 64.3307 284.98 65.4896 284.98 66.7656C284.98 67.612 284.909 68.4779 284.766 69.3633C284.609 69.6237 284.303 69.9688 283.848 70.3984C283.392 70.8151 282.858 71.2253 282.246 71.6289C281.634 72.0326 281.042 72.3451 280.469 72.5664C279.922 72.6055 279.355 72.625 278.77 72.625C277.741 72.625 276.699 72.5794 275.645 72.4883C274.59 72.3971 273.665 72.293 272.871 72.1758C272.975 73.2826 273.314 74.2461 273.887 75.0664C274.46 75.8867 275.371 76.2969 276.621 76.2969C276.738 76.2969 276.927 76.2839 277.188 76.2578C277.982 76.1797 278.906 75.9714 279.961 75.6328C281.029 75.2812 282.09 74.8776 283.145 74.4219C283.639 74.9167 284.004 75.4115 284.238 75.9062C284.473 76.401 284.635 77.1107 284.727 78.0352C284.323 78.5039 283.665 79.0768 282.754 79.7539C281.855 80.431 280.755 81.043 279.453 81.5898C278.151 82.1237 276.79 82.3906 275.371 82.3906C273.236 82.3906 271.406 81.8763 269.883 80.8477C268.372 79.806 267.227 78.3997 266.445 76.6289C265.677 74.8451 265.293 72.8529 265.293 70.6523ZM277.871 66.1602C277.689 65.9648 277.383 65.8151 276.953 65.7109C276.523 65.5938 276.074 65.5352 275.605 65.5352C275.228 65.5352 274.844 65.5677 274.453 65.6328C274.076 65.6979 273.848 65.7695 273.77 65.8477C273.327 66.7201 273.047 67.7096 272.93 68.8164L278.145 68.3086L277.871 66.1602Z" fill="white"/>
<path d="M287.051 66.2383C286.855 65.6784 286.699 65.0339 286.582 64.3047C286.465 63.5755 286.406 62.8659 286.406 62.1758C286.745 61.2122 287.331 60.4115 288.164 59.7734C289.01 59.1354 290.046 58.8164 291.27 58.8164C292.441 58.8164 293.385 59.1875 294.102 59.9297C294.831 60.6589 295.475 61.8047 296.035 63.3672C296.621 65.0078 297.096 66.9479 297.461 69.1875C297.826 71.4271 298.079 73.8424 298.223 76.4336L298.789 76.4531C299.362 75.3073 299.857 73.6732 300.273 71.5508C300.69 69.4154 300.905 67.3906 300.918 65.4766L298.477 65.0469C298.307 64.4089 298.19 63.849 298.125 63.3672C298.06 62.8724 298.027 62.332 298.027 61.7461L298.047 61.1992C298.281 60.8607 298.672 60.5091 299.219 60.1445C299.766 59.7799 300.417 59.474 301.172 59.2266C301.94 58.9792 302.741 58.8555 303.574 58.8555C306.934 58.8555 308.613 60.5417 308.613 63.9141C308.613 65.9193 308.255 68.0677 307.539 70.3594C306.823 72.638 305.788 74.8125 304.434 76.8828C303.092 78.9531 301.51 80.6589 299.688 82C299.049 82.2604 298.184 82.3906 297.09 82.3906C296.504 82.3906 295.846 82.2604 295.117 82C294.388 81.7526 293.848 81.4922 293.496 81.2188L293.086 79.8516C292.148 76.6745 291.302 73.9401 290.547 71.6484C289.792 69.3438 289.102 67.6315 288.477 66.5117L287.051 66.2383Z" fill="white"/>
<path d="M310.605 70.6523C310.605 68.3997 310.983 66.388 311.738 64.6172C312.493 62.8464 313.659 61.4466 315.234 60.418C316.823 59.3763 318.802 58.8555 321.172 58.8555C322.409 58.8555 323.646 59.0052 324.883 59.3047C326.12 59.5911 327.168 60.0729 328.027 60.75C328.822 61.388 329.395 62.2344 329.746 63.2891C330.111 64.3307 330.293 65.4896 330.293 66.7656C330.293 67.612 330.221 68.4779 330.078 69.3633C329.922 69.6237 329.616 69.9688 329.16 70.3984C328.704 70.8151 328.171 71.2253 327.559 71.6289C326.947 72.0326 326.354 72.3451 325.781 72.5664C325.234 72.6055 324.668 72.625 324.082 72.625C323.053 72.625 322.012 72.5794 320.957 72.4883C319.902 72.3971 318.978 72.293 318.184 72.1758C318.288 73.2826 318.626 74.2461 319.199 75.0664C319.772 75.8867 320.684 76.2969 321.934 76.2969C322.051 76.2969 322.24 76.2839 322.5 76.2578C323.294 76.1797 324.219 75.9714 325.273 75.6328C326.341 75.2812 327.402 74.8776 328.457 74.4219C328.952 74.9167 329.316 75.4115 329.551 75.9062C329.785 76.401 329.948 77.1107 330.039 78.0352C329.635 78.5039 328.978 79.0768 328.066 79.7539C327.168 80.431 326.068 81.043 324.766 81.5898C323.464 82.1237 322.103 82.3906 320.684 82.3906C318.548 82.3906 316.719 81.8763 315.195 80.8477C313.685 79.806 312.539 78.3997 311.758 76.6289C310.99 74.8451 310.605 72.8529 310.605 70.6523ZM323.184 66.1602C323.001 65.9648 322.695 65.8151 322.266 65.7109C321.836 65.5938 321.387 65.5352 320.918 65.5352C320.54 65.5352 320.156 65.5677 319.766 65.6328C319.388 65.6979 319.16 65.7695 319.082 65.8477C318.639 66.7201 318.359 67.7096 318.242 68.8164L323.457 68.3086L323.184 66.1602Z" fill="white"/>
<path d="M332.363 56.4531C332.168 55.6589 332.038 55.0013 331.973 54.4805C331.908 53.9466 331.882 53.3346 331.895 52.6445C332.168 52.293 332.591 51.9414 333.164 51.5898C333.75 51.2253 334.427 50.9193 335.195 50.6719C335.977 50.4245 336.784 50.3008 337.617 50.3008C339.245 50.3008 340.495 50.7109 341.367 51.5312C342.24 52.3516 342.676 53.5625 342.676 55.1641C342.676 56.3099 342.578 58.1523 342.383 60.6914C342.188 63.2305 341.908 65.9323 341.543 68.7969C341.178 71.6484 340.762 74.1419 340.293 76.2773L340.332 76.3164L343.223 75.1055C344.238 75.9779 344.831 77.1367 345 78.582C345 78.6732 344.707 79.0508 344.121 79.7148C343.535 80.3659 342.76 80.9779 341.797 81.5508C340.846 82.1107 339.753 82.3906 338.516 82.3906C337.227 82.3906 336.178 82.0326 335.371 81.3164C334.577 80.6003 334.199 79.3763 334.238 77.6445L334.277 74.1289C334.29 70.7956 334.323 67.7943 334.375 65.125C334.44 62.4557 334.57 59.7018 334.766 56.8633L332.363 56.4531Z" fill="white"/>
<path d="M346.582 70.457C346.582 68.1003 346.96 66.056 347.715 64.3242C348.47 62.5924 349.629 61.2513 351.191 60.3008C352.754 59.3372 354.714 58.8555 357.07 58.8555C359.674 58.8555 361.719 59.3438 363.203 60.3203C364.688 61.2839 365.723 62.625 366.309 64.3438C366.908 66.0625 367.207 68.1654 367.207 70.6523C367.207 72.9049 366.81 74.9167 366.016 76.6875C365.234 78.4453 364.049 79.8385 362.461 80.8672C360.885 81.8828 358.952 82.3906 356.66 82.3906C353.118 82.3906 350.553 81.3034 348.965 79.1289C347.376 76.9414 346.582 74.0508 346.582 70.457ZM357.461 76.668C358.125 76.668 358.529 76.6159 358.672 76.5117C358.971 75.9909 359.199 75.2552 359.355 74.3047C359.512 73.3542 359.59 72.3255 359.59 71.2188C359.59 70.2031 359.525 69.2526 359.395 68.3672C359.264 67.4688 359.082 66.7656 358.848 66.2578C358.704 66.0885 358.418 65.9648 357.988 65.8867C357.559 65.7956 357.09 65.75 356.582 65.75C355.918 65.75 355.462 65.8216 355.215 65.9648C354.564 67.0846 354.238 68.6406 354.238 70.6328C354.238 71.5703 354.31 72.5273 354.453 73.5039C354.596 74.4805 354.779 75.3659 355 76.1602C355.156 76.3294 355.475 76.4596 355.957 76.5508C356.439 76.6289 356.94 76.668 357.461 76.668Z" fill="white"/>
<path d="M369.473 65.2422C369.199 64.3958 369.017 63.6406 368.926 62.9766C368.848 62.3125 368.809 61.4531 368.809 60.3984C369.017 60.2161 369.355 60.0078 369.824 59.7734C370.293 59.526 370.853 59.3112 371.504 59.1289C372.155 58.9466 372.826 58.8555 373.516 58.8555C375.091 58.8555 376.204 59.194 376.855 59.8711C377.52 60.5482 377.852 61.5638 377.852 62.918C377.852 63.6732 377.741 64.6953 377.52 65.9844C377.155 68.0547 376.973 69.1419 376.973 69.2461C376.973 69.3112 377.018 69.3763 377.109 69.4414C377.201 69.4935 377.298 69.5195 377.402 69.5195C377.52 69.5195 377.598 69.474 377.637 69.3828L377.832 68.6016L378.262 66.9414C378.9 64.5326 379.85 62.5859 381.113 61.1016C382.376 59.6042 383.965 58.8555 385.879 58.8555C387.311 58.8555 388.477 59.168 389.375 59.793C390.286 60.4049 390.944 61.2188 391.348 62.2344C391.751 63.237 391.953 64.3438 391.953 65.5547C391.953 67.1953 391.797 69.0378 391.484 71.082C391.172 73.1133 390.755 75.0143 390.234 76.7852C389.727 78.5169 388.88 79.8906 387.695 80.9062C386.523 81.9089 385.059 82.4102 383.301 82.4102C382.663 82.4102 381.914 82.306 381.055 82.0977C380.208 81.9023 379.134 81.5573 377.832 81.0625L377.051 84.7539L377.09 84.793L380.82 84.5391C381.068 84.8906 381.25 85.3138 381.367 85.8086C381.497 86.3164 381.608 86.8958 381.699 87.5469L381.758 87.9375C381.758 87.9896 381.471 88.2305 380.898 88.6602C380.326 89.1029 379.564 89.5065 378.613 89.8711C377.663 90.2487 376.569 90.4375 375.332 90.4375C372.533 90.4375 371.133 88.9466 371.133 85.9648V84.6172C371.133 80.6458 371.159 77.1107 371.211 74.0117C371.276 70.8997 371.406 68.0938 371.602 65.5938L369.473 65.2422ZM383.223 77.1953C383.691 75.4375 383.926 72.7747 383.926 69.207C383.926 68.5951 383.893 68.1003 383.828 67.7227C383.529 67.3451 383.099 67.1562 382.539 67.1562C382.357 67.3125 381.732 68.3411 380.664 70.2422C379.596 72.1302 378.809 73.582 378.301 74.5977V75.5352C379.017 76.0299 379.844 76.4401 380.781 76.7656C381.719 77.0781 382.435 77.2344 382.93 77.2344C383.047 77.2344 383.145 77.2214 383.223 77.1953Z" fill="white"/>
<path d="M394.238 70.6523C394.238 68.3997 394.616 66.388 395.371 64.6172C396.126 62.8464 397.292 61.4466 398.867 60.418C400.456 59.3763 402.435 58.8555 404.805 58.8555C406.042 58.8555 407.279 59.0052 408.516 59.3047C409.753 59.5911 410.801 60.0729 411.66 60.75C412.454 61.388 413.027 62.2344 413.379 63.2891C413.743 64.3307 413.926 65.4896 413.926 66.7656C413.926 67.612 413.854 68.4779 413.711 69.3633C413.555 69.6237 413.249 69.9688 412.793 70.3984C412.337 70.8151 411.803 71.2253 411.191 71.6289C410.579 72.0326 409.987 72.3451 409.414 72.5664C408.867 72.6055 408.301 72.625 407.715 72.625C406.686 72.625 405.645 72.5794 404.59 72.4883C403.535 72.3971 402.611 72.293 401.816 72.1758C401.921 73.2826 402.259 74.2461 402.832 75.0664C403.405 75.8867 404.316 76.2969 405.566 76.2969C405.684 76.2969 405.872 76.2839 406.133 76.2578C406.927 76.1797 407.852 75.9714 408.906 75.6328C409.974 75.2812 411.035 74.8776 412.09 74.4219C412.585 74.9167 412.949 75.4115 413.184 75.9062C413.418 76.401 413.581 77.1107 413.672 78.0352C413.268 78.5039 412.611 79.0768 411.699 79.7539C410.801 80.431 409.701 81.043 408.398 81.5898C407.096 82.1237 405.736 82.3906 404.316 82.3906C402.181 82.3906 400.352 81.8763 398.828 80.8477C397.318 79.806 396.172 78.3997 395.391 76.6289C394.622 74.8451 394.238 72.8529 394.238 70.6523ZM406.816 66.1602C406.634 65.9648 406.328 65.8151 405.898 65.7109C405.469 65.5938 405.02 65.5352 404.551 65.5352C404.173 65.5352 403.789 65.5677 403.398 65.6328C403.021 65.6979 402.793 65.7695 402.715 65.8477C402.272 66.7201 401.992 67.7096 401.875 68.8164L407.09 68.3086L406.816 66.1602Z" fill="white"/>
<path d="M418.496 76.7656C418.496 76.2057 418.509 74.832 418.535 72.6445C418.574 68.3477 418.594 65.9974 418.594 65.5938L416.797 65.3008C416.549 64.5586 416.374 63.862 416.27 63.2109C416.165 62.5599 416.113 61.9023 416.113 61.2383C416.113 60.9648 416.12 60.7565 416.133 60.6133C416.354 60.418 416.699 60.1836 417.168 59.9102C417.637 59.6367 418.19 59.3958 418.828 59.1875C419.466 58.9661 420.117 58.8555 420.781 58.8555C422.331 58.8555 423.451 59.2005 424.141 59.8906C424.844 60.5807 425.195 61.5898 425.195 62.918C425.195 63.7253 425.091 64.7604 424.883 66.0234C424.688 67.2734 424.486 68.1654 424.277 68.6992L424.98 68.8164L426.152 64.4023C426.673 62.4102 427.324 60.9909 428.105 60.1445C428.887 59.2852 429.766 58.8555 430.742 58.8555C431.38 58.8555 432.012 58.9531 432.637 59.1484C433.275 59.3438 433.763 59.5846 434.102 59.8711C434.466 60.6784 434.648 61.7526 434.648 63.0938C434.648 64.0312 434.557 64.9622 434.375 65.8867C434.193 66.7982 433.958 67.5339 433.672 68.0938L429.57 67.5469C428.737 68.4323 427.852 69.6628 426.914 71.2383C425.977 72.8008 425.228 74.2396 424.668 75.5547L424.648 76.5703L428.438 75.6719C429.076 76.6484 429.447 77.8073 429.551 79.1484C429.551 79.2266 429.258 79.5456 428.672 80.1055C428.086 80.6654 427.311 81.1862 426.348 81.668C425.397 82.1367 424.303 82.3711 423.066 82.3711C421.79 82.3711 420.723 82.0326 419.863 81.3555C419.017 80.6654 418.568 79.5065 418.516 77.8789C418.503 77.6836 418.496 77.3125 418.496 76.7656Z" fill="white"/>
</g>
<defs>
<filter id="filter0_dd_13_8" x="0.253906" y="0.300781" width="484.395" height="140.137" filterUnits="userSpaceOnUse" color-interpolation-filters="sRGB">
<feFlood flood-opacity="0" result="BackgroundImageFix"/>
<feColorMatrix in="SourceAlpha" type="matrix" values="0 0 0 0 0 0 0 0 0 0 0 0 0 0 0 0 0 0 127 0" result="hardAlpha"/>
<feOffset/>
<feGaussianBlur stdDeviation="25"/>
<feComposite in2="hardAlpha" operator="out"/>
<feColorMatrix type="matrix" values="0 0 0 0 0.00392157 0 0 0 0 0.74902 0 0 0 0 0.443137 0 0 0 1 0"/>
<feBlend mode="normal" in2="BackgroundImageFix" result="effect1_dropShadow_13_8"/>
<feColorMatrix in="SourceAlpha" type="matrix" values="0 0 0 0 0 0 0 0 0 0 0 0 0 0 0 0 0 0 127 0" result="hardAlpha"/>
<feOffset/>
<feGaussianBlur stdDeviation="10"/>
<feComposite in2="hardAlpha" operator="out"/>
<feColorMatrix type="matrix" values="0 0 0 0 0.00392157 0 0 0 0 0.74902 0 0 0 0 0.443137 0 0 0 1 0"/>
<feBlend mode="normal" in2="effect1_dropShadow_13_8" result="effect2_dropShadow_13_8"/>
<feBlend mode="normal" in="SourceGraphic" in2="effect2_dropShadow_13_8" result="shape"/>
</filter>
</defs>
</svg>
