<svg id="logo2" width="470" height="40" viewBox="0 0 470 40" fill="none" xmlns="http://www.w3.org/2000/svg">
<path d="M21.68 5.976H5.936V17.448H19.808V20.28H5.936V33H0.559998V3.144H21.68V5.976Z" fill="white"/>
<path d="M36.3897 9.72H40.9497V12.696H35.5257C33.3817 12.696 32.3097 13.896 32.3097 16.296V33H27.1737V9.72H32.3097V12.696C32.8537 10.712 34.2137 9.72 36.3897 9.72Z" fill="white"/>
<path d="M62.8299 28.68V14.04C62.8299 13.432 62.7339 13.032 62.5419 12.84C62.3499 12.648 61.9499 12.552 61.3419 12.552H51.6459C51.0379 12.552 50.6379 12.648 50.4459 12.84C50.2539 13.032 50.1579 13.432 50.1579 14.04V28.68C50.1579 29.32 50.2539 29.736 50.4459 29.928C50.6379 30.088 51.0379 30.168 51.6459 30.168H61.3419C61.9499 30.168 62.3499 30.088 62.5419 29.928C62.7339 29.736 62.8299 29.32 62.8299 28.68ZM48.8619 9.72H64.1259C66.6539 9.72 67.9179 10.984 67.9179 13.512V29.208C67.9179 31.736 66.6539 33 64.1259 33H48.8619C46.3339 33 45.0699 31.736 45.0699 29.208V13.512C45.0699 10.984 46.3339 9.72 48.8619 9.72Z" fill="white"/>
<path d="M83.4665 9.72H94.5545C97.0825 9.72 98.3465 10.984 98.3465 13.512V33H93.2585V14.04C93.2585 13.432 93.1625 13.032 92.9705 12.84C92.7785 12.648 92.3785 12.552 91.7705 12.552H82.4585C81.8825 12.552 81.4665 12.68 81.2105 12.936C80.9545 13.16 80.8265 13.576 80.8265 14.184V15.72H80.7785V33H75.6425V9.72H80.7785V11.304C81.1305 10.248 82.0265 9.72 83.4665 9.72Z" fill="white"/>
<path d="M118.16 12.552H112.544V28.488C112.544 29.128 112.64 29.544 112.832 29.736C113.024 29.896 113.424 29.976 114.032 29.976H118.112V33H111.2C108.672 33 107.408 31.736 107.408 29.208V12.552H103.664V9.72H107.408V5.4H112.544V9.72H118.16V12.552Z" fill="white"/>
<path d="M128.768 19.656H141.776V14.04C141.776 13.432 141.68 13.032 141.488 12.84C141.296 12.648 140.896 12.552 140.288 12.552H130.256C129.616 12.552 129.2 12.648 129.008 12.84C128.848 13.032 128.768 13.432 128.768 14.04V19.656ZM127.424 9.72H143.024C145.552 9.72 146.816 10.984 146.816 13.512V22.488H128.768V28.68C128.768 29.32 128.848 29.736 129.008 29.928C129.2 30.088 129.616 30.168 130.256 30.168H140.192C140.8 30.168 141.2 30.088 141.392 29.928C141.584 29.736 141.68 29.32 141.68 28.68V26.232H146.72V29.208C146.72 31.736 145.456 33 142.928 33H127.424C124.896 33 123.632 31.736 123.632 29.208V13.512C123.632 10.984 124.896 9.72 127.424 9.72Z" fill="white"/>
<path d="M161.935 9.72H173.023C175.551 9.72 176.815 10.984 176.815 13.512V33H171.727V14.04C171.727 13.432 171.631 13.032 171.439 12.84C171.247 12.648 170.847 12.552 170.239 12.552H160.927C160.351 12.552 159.935 12.68 159.679 12.936C159.423 13.16 159.295 13.576 159.295 14.184V15.72H159.247V33H154.111V9.72H159.247V11.304C159.599 10.248 160.495 9.72 161.935 9.72Z" fill="white"/>
<path d="M190.725 30.168H200.037C200.613 30.168 201.029 30.056 201.285 29.832C201.541 29.576 201.669 29.144 201.669 28.536V14.184C201.669 13.576 201.541 13.16 201.285 12.936C201.029 12.68 200.613 12.552 200.037 12.552H190.725C190.085 12.552 189.669 12.648 189.477 12.84C189.317 13.032 189.237 13.432 189.237 14.04V28.68C189.237 29.32 189.317 29.736 189.477 29.928C189.669 30.088 190.085 30.168 190.725 30.168ZM201.669 0.888H206.805V33H201.669V31.512C201.253 32.504 200.373 33 199.029 33H187.893C185.365 33 184.101 31.736 184.101 29.208V13.512C184.101 10.984 185.365 9.72 187.893 9.72H199.029C200.373 9.72 201.253 10.216 201.669 11.208V0.888Z" fill="white"/>
<path d="M248.287 28.68V7.464C248.287 6.824 248.191 6.424 247.999 6.264C247.839 6.072 247.439 5.976 246.799 5.976H233.887V30.168H246.799C247.439 30.168 247.839 30.088 247.999 29.928C248.191 29.736 248.287 29.32 248.287 28.68ZM228.607 3.144H249.823C252.351 3.144 253.615 4.408 253.615 6.936V29.208C253.615 31.736 252.351 33 249.823 33H228.607V3.144Z" fill="white"/>
<path d="M266.487 19.656H279.495V14.04C279.495 13.432 279.399 13.032 279.207 12.84C279.015 12.648 278.615 12.552 278.007 12.552H267.975C267.335 12.552 266.919 12.648 266.727 12.84C266.567 13.032 266.487 13.432 266.487 14.04V19.656ZM265.143 9.72H280.743C283.271 9.72 284.535 10.984 284.535 13.512V22.488H266.487V28.68C266.487 29.32 266.567 29.736 266.727 29.928C266.919 30.088 267.335 30.168 267.975 30.168H277.911C278.519 30.168 278.919 30.088 279.111 29.928C279.303 29.736 279.399 29.32 279.399 28.68V26.232H284.439V29.208C284.439 31.736 283.175 33 280.647 33H265.143C262.615 33 261.351 31.736 261.351 29.208V13.512C261.351 10.984 262.615 9.72 265.143 9.72Z" fill="white"/>
<path d="M288.998 9.72H294.086L302.102 29.64L310.262 9.72H315.302L305.702 33H298.598L288.998 9.72Z" fill="white"/>
<path d="M325.362 19.656H338.37V14.04C338.37 13.432 338.274 13.032 338.082 12.84C337.89 12.648 337.49 12.552 336.882 12.552H326.85C326.21 12.552 325.794 12.648 325.602 12.84C325.442 13.032 325.362 13.432 325.362 14.04V19.656ZM324.018 9.72H339.618C342.146 9.72 343.41 10.984 343.41 13.512V22.488H325.362V28.68C325.362 29.32 325.442 29.736 325.602 29.928C325.794 30.088 326.21 30.168 326.85 30.168H336.786C337.394 30.168 337.794 30.088 337.986 29.928C338.178 29.736 338.274 29.32 338.274 28.68V26.232H343.314V29.208C343.314 31.736 342.05 33 339.522 33H324.018C321.49 33 320.226 31.736 320.226 29.208V13.512C320.226 10.984 321.49 9.72 324.018 9.72Z" fill="white"/>
<path d="M356.273 33H351.185V0.888H356.273V33Z" fill="white"/>
<path d="M382.236 28.68V14.04C382.236 13.432 382.14 13.032 381.948 12.84C381.756 12.648 381.356 12.552 380.748 12.552H371.052C370.444 12.552 370.044 12.648 369.852 12.84C369.66 13.032 369.564 13.432 369.564 14.04V28.68C369.564 29.32 369.66 29.736 369.852 29.928C370.044 30.088 370.444 30.168 371.052 30.168H380.748C381.356 30.168 381.756 30.088 381.948 29.928C382.14 29.736 382.236 29.32 382.236 28.68ZM368.268 9.72H383.532C386.06 9.72 387.324 10.984 387.324 13.512V29.208C387.324 31.736 386.06 33 383.532 33H368.268C365.74 33 364.476 31.736 364.476 29.208V13.512C364.476 10.984 365.74 9.72 368.268 9.72Z" fill="white"/>
<path d="M413.049 28.68V14.04C413.049 13.432 412.953 13.032 412.761 12.84C412.569 12.648 412.169 12.552 411.561 12.552H401.865C401.257 12.552 400.825 12.68 400.569 12.936C400.313 13.16 400.185 13.576 400.185 14.184V28.536C400.185 29.144 400.313 29.576 400.569 29.832C400.825 30.056 401.257 30.168 401.865 30.168H411.561C412.169 30.168 412.569 30.088 412.761 29.928C412.953 29.736 413.049 29.32 413.049 28.68ZM402.825 9.72H414.393C416.921 9.72 418.185 10.984 418.185 13.512V29.208C418.185 31.736 416.921 33 414.393 33H402.825C401.417 33 400.537 32.472 400.185 31.416V39.768H395.049V9.72H400.137V11.448C400.521 10.296 401.417 9.72 402.825 9.72Z" fill="white"/>
<path d="M430.596 19.656H443.604V14.04C443.604 13.432 443.508 13.032 443.316 12.84C443.124 12.648 442.724 12.552 442.116 12.552H432.085C431.445 12.552 431.028 12.648 430.836 12.84C430.676 13.032 430.596 13.432 430.596 14.04V19.656ZM429.253 9.72H444.853C447.381 9.72 448.645 10.984 448.645 13.512V22.488H430.596V28.68C430.596 29.32 430.676 29.736 430.836 29.928C431.028 30.088 431.445 30.168 432.085 30.168H442.021C442.629 30.168 443.028 30.088 443.22 29.928C443.412 29.736 443.509 29.32 443.509 28.68V26.232H448.548V29.208C448.548 31.736 447.285 33 444.757 33H429.253C426.725 33 425.461 31.736 425.461 29.208V13.512C425.461 10.984 426.725 9.72 429.253 9.72Z" fill="white"/>
<path d="M465.155 9.72H469.715V12.696H464.291C462.147 12.696 461.075 13.896 461.075 16.296V33H455.939V9.72H461.075V12.696C461.619 10.712 462.979 9.72 465.155 9.72Z" fill="white"/>
</svg>
