<svg id="logo" width="1170" height="118" viewBox="0 0 1170 118" fill="none" xmlns="http://www.w3.org/2000/svg">
<path d="M25.008 92C17.712 92 12.016 90.528 7.92 87.584C3.86667 84.64 1.328 80.096 0.304003 73.952C0.133336 72.0747 0.517335 70.6667 1.456 69.728C2.39467 68.7893 3.76 68.32 5.552 68.32C7.344 68.32 8.64534 68.7467 9.456 69.6C10.3093 70.4533 10.8853 71.776 11.184 73.568C11.824 76.512 13.1893 78.5387 15.28 79.648C17.4133 80.7147 20.656 81.248 25.008 81.248H43.44C48.944 81.248 52.6773 80.2667 54.64 78.304C56.6453 76.2987 57.648 72.5867 57.648 67.168C57.648 61.664 56.624 57.9093 54.576 55.904C52.528 53.856 48.816 52.832 43.44 52.832H27.568C19.504 52.832 13.5093 50.8693 9.584 46.944C5.70134 42.976 3.76 36.96 3.76 28.896C3.76 20.8747 5.68 14.9227 9.52 11.04C13.4027 7.15733 19.376 5.216 27.44 5.216H42.672C49.456 5.216 54.768 6.60266 58.608 9.376C62.4907 12.1493 64.944 16.3947 65.968 22.112C66.224 23.9467 65.8827 25.3547 64.944 26.336C64.0053 27.2747 62.5973 27.744 60.72 27.744C59.0133 27.744 57.7333 27.296 56.88 26.4C56.0267 25.504 55.472 24.2027 55.216 22.496C54.5333 19.9787 53.232 18.272 51.312 17.376C49.392 16.4373 46.512 15.968 42.672 15.968H27.44C22.32 15.968 18.8853 16.8853 17.136 18.72C15.3867 20.512 14.512 23.904 14.512 28.896C14.512 33.9307 15.408 37.3867 17.2 39.264C18.992 41.1413 22.448 42.08 27.568 42.08H43.44C51.8453 42.08 58.096 44.128 62.192 48.224C66.3307 52.32 68.4 58.6347 68.4 67.168C68.4 75.6587 66.352 81.9307 62.256 85.984C58.16 89.9947 51.888 92 43.44 92H25.008Z" fill="white"/>
<path d="M97.313 92C93.729 92 91.937 90.208 91.937 86.624V7.26399C91.937 3.67999 93.729 1.88799 97.313 1.88799C100.897 1.88799 102.689 3.67999 102.689 7.26399V34.592C107.212 29.6 113.868 27.104 122.657 27.104H126.241C134.774 27.104 141.089 29.152 145.185 33.248C149.281 37.344 151.329 43.6587 151.329 52.192V86.624C151.329 90.208 149.537 92 145.953 92C142.369 92 140.577 90.208 140.577 86.624V52.192C140.577 46.6027 139.553 42.8267 137.505 40.864C135.5 38.8587 131.745 37.856 126.241 37.856H122.657C117.537 37.856 113.078 38.4533 109.281 39.648C105.484 40.8 103.286 42.6347 102.689 45.152V86.624C102.689 90.208 100.897 92 97.313 92Z" fill="white"/>
<path d="M194.155 92C186.987 92 181.654 90.2507 178.155 86.752C174.656 83.2533 172.907 77.92 172.907 70.752C172.907 63.584 174.635 58.2507 178.091 54.752C181.59 51.2533 186.944 49.504 194.155 49.504H221.227C220.971 45.024 219.798 41.9733 217.707 40.352C215.616 38.688 212.032 37.856 206.955 37.856H199.531C195.264 37.856 192.086 38.1547 189.995 38.752C187.904 39.3067 186.432 40.3307 185.579 41.824C184.811 43.616 184.022 44.8533 183.211 45.536C182.4 46.2187 181.184 46.56 179.563 46.56C177.771 46.56 176.363 46.0693 175.339 45.088C174.315 44.064 174.016 42.72 174.443 41.056C175.723 36.2347 178.39 32.7147 182.443 30.496C186.539 28.2347 192.235 27.104 199.531 27.104H206.955C215.488 27.104 221.803 29.152 225.899 33.248C229.995 37.344 232.043 43.6587 232.043 52.192V86.624C232.043 90.208 230.251 92 226.667 92C223.083 92 221.291 90.208 221.291 86.624V83.744C216.726 89.248 210.07 92 201.323 92H194.155ZM194.155 81.248H201.323C204.48 81.248 207.446 80.9707 210.219 80.416C212.992 79.8187 215.36 78.752 217.323 77.216C219.328 75.68 220.651 73.4827 221.291 70.624V60.256H194.155C189.931 60.256 187.115 60.96 185.707 62.368C184.342 63.776 183.659 66.5707 183.659 70.752C183.659 74.976 184.342 77.792 185.707 79.2C187.115 80.5653 189.931 81.248 194.155 81.248Z" fill="white"/>
<path d="M262.813 92C259.229 92 257.437 90.208 257.437 86.624V32.48C257.437 28.896 259.229 27.104 262.813 27.104C266.397 27.104 268.189 28.896 268.189 32.48V34.592C272.712 29.6 279.368 27.104 288.157 27.104H291.741C300.274 27.104 306.589 29.152 310.685 33.248C314.781 37.344 316.829 43.6587 316.829 52.192V86.624C316.829 90.208 315.037 92 311.453 92C307.869 92 306.077 90.208 306.077 86.624V52.192C306.077 46.6027 305.053 42.8267 303.005 40.864C301 38.8587 297.245 37.856 291.741 37.856H288.157C283.037 37.856 278.578 38.4533 274.781 39.648C270.984 40.8 268.786 42.6347 268.189 45.152V86.624C268.189 90.208 266.397 92 262.813 92Z" fill="white"/>
<path d="M369.579 92C361.131 92 354.902 89.9947 350.891 85.984C346.88 81.9733 344.875 75.7867 344.875 67.424V37.856H338.603C335.019 37.856 333.227 36.064 333.227 32.48C333.227 28.896 335.019 27.104 338.603 27.104H344.875V17.76C344.875 14.176 346.667 12.384 350.251 12.384C353.835 12.384 355.627 14.176 355.627 17.76V27.104H370.347C373.931 27.104 375.723 28.896 375.723 32.48C375.723 36.064 373.931 37.856 370.347 37.856H355.627V67.424C355.627 72.8427 356.608 76.512 358.571 78.432C360.534 80.3093 364.203 81.248 369.579 81.248C371.243 81.248 372.544 81.6747 373.483 82.528C374.464 83.3813 374.955 84.7467 374.955 86.624C374.955 90.208 373.163 92 369.579 92Z" fill="white"/>
<path d="M431.966 91.488C428.553 90.1653 427.529 87.8187 428.894 84.448L459.358 9.43999C460.638 6.624 462.643 5.216 465.374 5.216H465.63C468.403 5.344 470.281 6.752 471.262 9.43999L502.238 84.448C503.603 87.8187 502.622 90.1653 499.294 91.488C495.923 92.8107 493.577 91.8293 492.254 88.544L485.342 71.776H445.47L438.878 88.544C437.555 91.872 435.251 92.8533 431.966 91.488ZM449.694 61.024H480.926L464.99 22.24L449.694 61.024Z" fill="white"/>
<path d="M525.438 92C521.854 92 520.062 90.208 520.062 86.624V32.48C520.062 28.896 521.854 27.104 525.438 27.104C529.022 27.104 530.814 28.896 530.814 32.48V37.472C533.331 34.0587 536.531 31.4773 540.414 29.728C544.339 27.9787 548.819 27.104 553.854 27.104C557.438 27.104 559.23 28.896 559.23 32.48C559.23 36.064 557.438 37.856 553.854 37.856C546.473 37.856 540.841 39.2213 536.958 41.952C533.075 44.6827 531.027 48.288 530.814 52.768V86.624C530.814 90.208 529.022 92 525.438 92Z" fill="white"/>
<path d="M590.78 92C583.612 92 578.279 90.2507 574.78 86.752C571.281 83.2533 569.532 77.92 569.532 70.752C569.532 63.584 571.26 58.2507 574.716 54.752C578.215 51.2533 583.569 49.504 590.78 49.504H617.852C617.596 45.024 616.423 41.9733 614.332 40.352C612.241 38.688 608.657 37.856 603.58 37.856H596.156C591.889 37.856 588.711 38.1547 586.62 38.752C584.529 39.3067 583.057 40.3307 582.204 41.824C581.436 43.616 580.647 44.8533 579.836 45.536C579.025 46.2187 577.809 46.56 576.188 46.56C574.396 46.56 572.988 46.0693 571.964 45.088C570.94 44.064 570.641 42.72 571.068 41.056C572.348 36.2347 575.015 32.7147 579.068 30.496C583.164 28.2347 588.86 27.104 596.156 27.104H603.58C612.113 27.104 618.428 29.152 622.524 33.248C626.62 37.344 628.668 43.6587 628.668 52.192V86.624C628.668 90.208 626.876 92 623.292 92C619.708 92 617.916 90.208 617.916 86.624V83.744C613.351 89.248 606.695 92 597.948 92H590.78ZM590.78 81.248H597.948C601.105 81.248 604.071 80.9707 606.844 80.416C609.617 79.8187 611.985 78.752 613.948 77.216C615.953 75.68 617.276 73.4827 617.916 70.624V60.256H590.78C586.556 60.256 583.74 60.96 582.332 62.368C580.967 63.776 580.284 66.5707 580.284 70.752C580.284 74.976 580.967 77.792 582.332 79.2C583.74 80.5653 586.556 81.248 590.78 81.248Z" fill="white"/>
<path d="M659.438 92C655.854 92 654.062 90.208 654.062 86.624V7.26399C654.062 3.67999 655.854 1.88799 659.438 1.88799C663.022 1.88799 664.814 3.67999 664.814 7.26399V33.952C667.033 31.6907 669.806 29.984 673.134 28.832C676.462 27.68 680.345 27.104 684.782 27.104H689.646C698.179 27.104 704.494 29.152 708.59 33.248C712.686 37.344 714.734 43.6587 714.734 52.192V66.912C714.734 75.4027 712.686 81.7173 708.59 85.856C704.494 89.952 698.179 92 689.646 92H684.782C680.345 92 676.462 91.424 673.134 90.272C669.806 89.12 667.033 87.4347 664.814 85.216V86.624C664.814 90.208 663.022 92 659.438 92ZM684.782 81.248H689.646C695.235 81.248 699.011 80.2453 700.974 78.24C702.979 76.192 703.982 72.416 703.982 66.912V52.192C703.982 46.6027 702.958 42.8267 700.91 40.864C698.905 38.8587 695.15 37.856 689.646 37.856H684.782C679.15 37.856 674.414 38.5813 670.574 40.032C666.734 41.44 664.814 43.6587 664.814 46.688V72.416C664.814 75.4027 666.734 77.6213 670.574 79.072C674.414 80.5227 679.15 81.248 684.782 81.248Z" fill="white"/>
<path d="M758.28 92C751.112 92 745.779 90.2507 742.28 86.752C738.781 83.2533 737.032 77.92 737.032 70.752C737.032 63.584 738.76 58.2507 742.216 54.752C745.715 51.2533 751.069 49.504 758.28 49.504H785.352C785.096 45.024 783.923 41.9733 781.832 40.352C779.741 38.688 776.157 37.856 771.08 37.856H763.656C759.389 37.856 756.211 38.1547 754.12 38.752C752.029 39.3067 750.557 40.3307 749.704 41.824C748.936 43.616 748.147 44.8533 747.336 45.536C746.525 46.2187 745.309 46.56 743.688 46.56C741.896 46.56 740.488 46.0693 739.464 45.088C738.44 44.064 738.141 42.72 738.568 41.056C739.848 36.2347 742.515 32.7147 746.568 30.496C750.664 28.2347 756.36 27.104 763.656 27.104H771.08C779.613 27.104 785.928 29.152 790.024 33.248C794.12 37.344 796.168 43.6587 796.168 52.192V86.624C796.168 90.208 794.376 92 790.792 92C787.208 92 785.416 90.208 785.416 86.624V83.744C780.851 89.248 774.195 92 765.448 92H758.28ZM758.28 81.248H765.448C768.605 81.248 771.571 80.9707 774.344 80.416C777.117 79.8187 779.485 78.752 781.448 77.216C783.453 75.68 784.776 73.4827 785.416 70.624V60.256H758.28C754.056 60.256 751.24 60.96 749.832 62.368C748.467 63.776 747.784 66.5707 747.784 70.752C747.784 74.976 748.467 77.792 749.832 79.2C751.24 80.5653 754.056 81.248 758.28 81.248Z" fill="white"/>
<path d="M836.922 117.6C831.759 117.6 827.685 116.555 824.698 114.464C821.754 112.373 819.855 109.195 819.002 104.928C818.703 103.136 819.023 101.728 819.962 100.704C820.901 99.68 822.33 99.168 824.25 99.168C825.871 99.168 827.045 99.5947 827.77 100.448C828.538 101.344 829.199 102.667 829.754 104.416C830.266 105.355 831.055 105.995 832.122 106.336C833.231 106.677 834.831 106.848 836.922 106.848H860.73C863.93 106.848 865.999 106.336 866.938 105.312C867.919 104.331 868.41 102.283 868.41 99.168V84.256C866.106 86.7733 863.247 88.6933 859.834 90.016C856.463 91.3387 852.666 92 848.442 92H843.578C835.087 92 828.773 89.952 824.634 85.856C820.538 81.76 818.49 75.488 818.49 67.04V52.192C818.49 43.616 820.517 37.3013 824.57 33.248C828.666 29.152 835.002 27.104 843.578 27.104H854.074C857.103 27.104 859.813 27.552 862.202 28.448C864.634 29.344 866.703 30.7093 868.41 32.544V32.48C868.41 28.896 870.202 27.104 873.786 27.104C877.37 27.104 879.162 28.896 879.162 32.48V99.168C879.162 105.44 877.647 110.069 874.618 113.056C871.631 116.085 867.002 117.6 860.73 117.6H836.922ZM843.578 81.248H848.442C854.074 81.248 858.81 80.544 862.65 79.136C866.49 77.728 868.41 75.488 868.41 72.416V46.816C868.41 43.36 867.151 41.0133 864.634 39.776C862.159 38.496 858.639 37.856 854.074 37.856H843.578C838.074 37.856 834.298 38.8373 832.25 40.8C830.245 42.7627 829.242 46.56 829.242 52.192V67.04C829.242 72.4587 830.245 76.192 832.25 78.24C834.255 80.2453 838.031 81.248 843.578 81.248Z" fill="white"/>
<path d="M909.938 92C906.354 92 904.562 90.208 904.562 86.624V7.26399C904.562 3.67999 906.354 1.88799 909.938 1.88799C913.522 1.88799 915.314 3.67999 915.314 7.26399V34.592C919.837 29.6 926.493 27.104 935.282 27.104H938.866C947.399 27.104 953.714 29.152 957.81 33.248C961.906 37.344 963.954 43.6587 963.954 52.192V86.624C963.954 90.208 962.162 92 958.578 92C954.994 92 953.202 90.208 953.202 86.624V52.192C953.202 46.6027 952.178 42.8267 950.13 40.864C948.125 38.8587 944.37 37.856 938.866 37.856H935.282C930.162 37.856 925.703 38.4533 921.906 39.648C918.109 40.8 915.911 42.6347 915.314 45.152V86.624C915.314 90.208 913.522 92 909.938 92Z" fill="white"/>
<path d="M992.896 16.608C988.843 16.608 986.816 14.56 986.816 10.464V6.688C986.816 2.67733 988.843 0.671997 992.896 0.671997H996.608C1000.49 0.671997 1002.43 2.67733 1002.43 6.688V10.464C1002.43 14.56 1000.49 16.608 996.608 16.608H992.896ZM994.688 92C991.104 92 989.312 90.208 989.312 86.624V32.48C989.312 28.896 991.104 27.104 994.688 27.104C998.272 27.104 1000.06 28.896 1000.06 32.48V86.624C1000.06 90.208 998.272 92 994.688 92Z" fill="white"/>
<path d="M1046.65 92C1039.49 92 1034.15 90.2507 1030.65 86.752C1027.16 83.2533 1025.41 77.92 1025.41 70.752C1025.41 63.584 1027.13 58.2507 1030.59 54.752C1034.09 51.2533 1039.44 49.504 1046.65 49.504H1073.73C1073.47 45.024 1072.3 41.9733 1070.21 40.352C1068.12 38.688 1064.53 37.856 1059.45 37.856H1052.03C1047.76 37.856 1044.59 38.1547 1042.49 38.752C1040.4 39.3067 1038.93 40.3307 1038.08 41.824C1037.31 43.616 1036.52 44.8533 1035.71 45.536C1034.9 46.2187 1033.68 46.56 1032.06 46.56C1030.27 46.56 1028.86 46.0693 1027.84 45.088C1026.81 44.064 1026.52 42.72 1026.94 41.056C1028.22 36.2347 1030.89 32.7147 1034.94 30.496C1039.04 28.2347 1044.73 27.104 1052.03 27.104H1059.45C1067.99 27.104 1074.3 29.152 1078.4 33.248C1082.5 37.344 1084.54 43.6587 1084.54 52.192V86.624C1084.54 90.208 1082.75 92 1079.17 92C1075.58 92 1073.79 90.208 1073.79 86.624V83.744C1069.23 89.248 1062.57 92 1053.82 92H1046.65ZM1046.65 81.248H1053.82C1056.98 81.248 1059.95 80.9707 1062.72 80.416C1065.49 79.8187 1067.86 78.752 1069.82 77.216C1071.83 75.68 1073.15 73.4827 1073.79 70.624V60.256H1046.65C1042.43 60.256 1039.62 60.96 1038.21 62.368C1036.84 63.776 1036.16 66.5707 1036.16 70.752C1036.16 74.976 1036.84 77.792 1038.21 79.2C1039.62 80.5653 1042.43 81.248 1046.65 81.248Z" fill="white"/>
<path d="M1115.31 92C1111.73 92 1109.94 90.208 1109.94 86.624V32.48C1109.94 28.896 1111.73 27.104 1115.31 27.104C1118.9 27.104 1120.69 28.896 1120.69 32.48V34.592C1125.21 29.6 1131.87 27.104 1140.66 27.104H1144.24C1152.77 27.104 1159.09 29.152 1163.19 33.248C1167.28 37.344 1169.33 43.6587 1169.33 52.192V86.624C1169.33 90.208 1167.54 92 1163.95 92C1160.37 92 1158.58 90.208 1158.58 86.624V52.192C1158.58 46.6027 1157.55 42.8267 1155.5 40.864C1153.5 38.8587 1149.74 37.856 1144.24 37.856H1140.66C1135.54 37.856 1131.08 38.4533 1127.28 39.648C1123.48 40.8 1121.29 42.6347 1120.69 45.152V86.624C1120.69 90.208 1118.9 92 1115.31 92Z" fill="white"/>
</svg>
