<?xml version="1.0" standalone="no"?>
<!DOCTYPE svg PUBLIC "-//W3C//DTD SVG 20010904//EN"
 "http://www.w3.org/TR/2001/REC-SVG-20010904/DTD/svg10.dtd">
<svg version="1.0" xmlns="http://www.w3.org/2000/svg"
 width="267.000000pt" height="230.000000pt" viewBox="0 0 267.000000 230.000000"
 preserveAspectRatio="xMidYMid meet">

<g transform="translate(0.000000,230.000000) scale(0.100000,-0.100000)"
fill="#000000" stroke="none">
<path d="M2419 1936 c-2 -2 -155 -7 -339 -11 -184 -4 -436 -10 -560 -14 l-225
-6 -2 -85 c-1 -47 -5 -84 -10 -83 -4 1 -37 13 -73 27 -204 76 -457 51 -653
-65 -86 -51 -218 -181 -266 -261 -84 -144 -115 -270 -108 -438 9 -210 75 -359
227 -511 81 -82 109 -102 190 -142 119 -58 188 -77 315 -84 226 -13 417 62
599 235 59 55 71 62 107 62 24 0 38 -4 34 -10 -3 -5 0 -10 8 -10 7 0 14 6 14
13 0 11 14 69 30 121 5 17 1 18 -28 12 -20 -3 -28 -2 -21 2 7 5 12 13 10 18
-5 17 45 164 56 164 6 -1 158 -18 338 -39 l328 -37 5 30 c3 17 19 155 36 306
17 151 34 277 39 280 6 4 31 170 26 177 -1 1 -103 14 -226 27 -124 14 -366 41
-538 61 -172 19 -315 35 -318 35 -3 0 -3 4 0 9 6 9 229 18 666 26 151 3 308 8
348 11 l72 6 0 89 0 89 -38 0 c-21 0 -41 -2 -43 -4z m-144 -96 l-80 -80 -80 0
-80 0 80 80 80 80 80 0 80 0 -80 -80z m215 5 l0 -75 -77 0 -77 0 74 75 c41 41
76 75 77 75 2 0 3 -34 3 -75z m-515 -15 l-80 -80 -80 0 -80 0 80 80 80 80 80
0 80 0 -80 -80z m-525 62 c0 -4 -31 -38 -69 -76 l-69 -69 -4 71 -3 71 55 4
c30 2 63 4 73 5 9 1 17 -1 17 -6z m231 -66 l-73 -73 -75 -7 c-41 -4 -78 -4
-81 -1 -3 3 27 39 68 80 l74 75 80 0 80 0 -73 -74z m-588 -50 c112 -22 191
-56 195 -84 l4 -23 -42 21 c-118 60 -326 78 -474 40 -126 -32 -228 -91 -326
-190 -128 -128 -186 -244 -210 -419 -45 -333 166 -666 489 -770 339 -110 711
46 866 363 54 111 65 150 41 144 -11 -2 -25 -24 -36 -55 -95 -270 -355 -453
-645 -453 -300 0 -552 183 -656 477 -30 84 -37 256 -15 355 91 410 527 642
921 490 l70 -27 6 -60 c4 -39 -6 -165 -27 -355 -18 -162 -29 -298 -26 -301 4
-3 102 -16 217 -28 116 -13 218 -25 228 -28 15 -4 17 -11 12 -36 -21 -98 -98
-231 -189 -325 -86 -89 -187 -154 -304 -196 -83 -29 -95 -31 -237 -31 -138 1
-156 3 -230 28 -324 113 -525 389 -525 722 0 127 24 229 82 345 74 147 235
293 398 358 125 50 275 64 413 38z m287 -4 c0 -13 -12 -22 -22 -16 -10 6 -1
24 13 24 5 0 9 -4 9 -8z m58 -82 c10 -5 -7 -23 -55 -60 -37 -29 -74 -58 -81
-64 -12 -8 -13 0 -7 49 11 99 8 96 73 89 31 -4 63 -10 70 -14z m281 -29 l34
-6 -82 -65 c-88 -69 -94 -71 -206 -51 l-40 6 85 66 c91 71 95 72 209 50z m281
-29 l54 -7 -86 -68 -87 -67 -58 6 c-32 4 -64 8 -71 9 -26 3 -13 20 59 77 79
61 82 62 189 50z m328 -41 c8 -5 -15 -29 -68 -70 l-81 -62 -79 7 c-44 3 -80 9
-79 13 0 3 37 34 81 69 l82 62 65 -6 c36 -4 72 -10 79 -13z m145 -95 l-6 -69
-70 7 c-66 6 -86 11 -76 19 116 90 152 117 155 114 2 -2 1 -34 -3 -71z m-636
-146 c470 -52 535 -61 518 -67 -14 -4 -976 104 -983 112 -8 8 -15 8 465 -45z
m21 -132 c265 -29 482 -57 482 -61 0 -4 -15 -5 -32 -3 -18 3 -238 29 -488 56
-250 28 -459 52 -465 55 -27 10 56 2 503 -47z m-5 -128 c246 -28 454 -50 463
-50 8 0 13 -4 10 -8 -2 -4 -68 -1 -146 8 -77 9 -143 14 -145 11 -2 -4 -7 -40
-10 -81 -4 -41 -12 -82 -17 -90 -6 -10 -7 -2 -4 25 16 122 18 155 8 155 -5 0
-89 9 -187 21 -97 11 -178 19 -180 17 -2 -2 -9 -44 -15 -93 -6 -49 -13 -91
-16 -94 -7 -7 -4 49 6 119 6 43 6 66 -1 71 -6 3 -71 12 -145 19 -74 7 -134 17
-134 21 0 4 15 6 33 3 17 -2 233 -27 480 -54z"/>
<path d="M1125 1543 c-11 -3 -35 -16 -53 -30 -91 -69 -83 -209 17 -267 36 -21
124 -27 142 -9 5 5 13 37 17 72 9 60 8 64 -17 87 -29 27 -121 74 -145 74 -24
0 -19 17 9 36 39 26 95 28 138 6 25 -14 37 -16 37 -8 0 25 -98 52 -145 39z"/>
<path d="M620 1498 c-61 -31 -90 -77 -90 -143 0 -93 66 -157 160 -157 64 0
112 29 139 86 27 55 26 101 -2 151 -24 43 -91 85 -137 85 -14 0 -46 -10 -70
-22z m139 -20 c21 -15 20 -16 -37 -51 -32 -20 -80 -59 -106 -86 -26 -28 -49
-51 -51 -51 -11 0 -21 68 -14 98 8 38 31 66 74 94 35 22 99 20 134 -4z"/>
<path d="M914 1226 c-10 -26 4 -48 28 -44 17 2 23 10 23 28 0 18 -6 26 -23 28
-13 2 -25 -3 -28 -12z m36 -16 c0 -5 -4 -10 -10 -10 -5 0 -10 5 -10 10 0 6 5
10 10 10 6 0 10 -4 10 -10z"/>
<path d="M926 1139 c-69 -19 -101 -88 -71 -152 32 -68 125 -85 174 -33 79 84
7 215 -103 185z m91 -41 c30 -28 36 -63 18 -102 -31 -66 -119 -72 -156 -13
-22 37 -24 56 -7 93 24 53 99 65 145 22z"/>
<path d="M1094 1116 c-10 -26 4 -48 28 -44 17 2 23 10 23 28 0 18 -6 26 -23
28 -13 2 -25 -3 -28 -12z m36 -16 c0 -5 -4 -10 -10 -10 -5 0 -10 5 -10 10 0 6
5 10 10 10 6 0 10 -4 10 -10z"/>
<path d="M754 1096 c-10 -26 4 -48 28 -44 17 2 23 10 23 28 0 18 -6 26 -23 28
-13 2 -25 -3 -28 -12z m36 -16 c0 -5 -4 -10 -10 -10 -5 0 -10 5 -10 10 0 6 5
10 10 10 6 0 10 -4 10 -10z"/>
<path d="M492 1033 c-47 -23 -75 -67 -80 -129 -6 -71 24 -126 86 -155 113 -55
239 30 229 154 -10 114 -131 181 -235 130z m11 -75 c4 -32 22 -84 46 -130 l39
-78 -30 0 c-17 0 -46 9 -65 21 -75 47 -87 150 -25 222 23 26 29 21 35 -35z"/>
<path d="M1194 995 c-19 -47 -18 -73 9 -125 29 -57 64 -82 125 -88 59 -5 113
17 143 60 27 37 16 50 -12 14 -22 -28 -68 -56 -93 -56 -13 0 -12 7 4 43 l19
42 -37 7 c-20 4 -59 11 -87 15 l-50 8 0 58 c0 31 -1 57 -3 57 -2 0 -10 -16
-18 -35z"/>
<path d="M1041 916 c-16 -20 -3 -46 24 -46 13 0 26 7 29 16 7 19 -10 44 -29
44 -7 0 -18 -6 -24 -14z m39 -16 c0 -5 -7 -10 -15 -10 -8 0 -15 5 -15 10 0 6
7 10 15 10 8 0 15 -4 15 -10z"/>
<path d="M843 913 c-19 -7 -16 -50 4 -57 24 -10 51 20 37 41 -12 19 -23 24
-41 16z m27 -21 c0 -13 -12 -22 -22 -16 -10 6 -1 24 13 24 5 0 9 -4 9 -8z"/>
<path d="M927 786 c-141 -41 -155 -231 -23 -296 110 -53 226 23 226 147 0 107
-98 179 -203 149z m183 -192 c0 -21 -45 -74 -74 -88 -42 -20 -76 -20 -120 -2
-29 12 -76 58 -76 75 0 3 39 4 88 3 48 -2 103 1 122 6 43 12 60 14 60 6z"/>
<path d="M2063 763 c-18 -7 -16 -23 2 -23 8 0 15 7 15 15 0 8 -1 15 -2 14 -2
0 -9 -3 -15 -6z"/>
<path d="M2097 764 c-8 -8 1 -24 14 -24 5 0 9 7 9 15 0 15 -12 20 -23 9z"/>
<path d="M2135 761 c-6 -11 9 -23 19 -14 9 9 7 23 -3 23 -6 0 -12 -4 -16 -9z"/>
<path d="M2175 761 c-6 -11 9 -23 19 -14 9 9 7 23 -3 23 -6 0 -12 -4 -16 -9z"/>
<path d="M2215 759 c-4 -6 -5 -13 -2 -16 7 -7 27 6 27 18 0 12 -17 12 -25 -2z"/>
<path d="M2257 763 c-12 -11 -8 -23 8 -23 8 0 15 7 15 15 0 16 -12 20 -23 8z"/>
<path d="M2297 763 c-12 -11 -8 -23 8 -23 8 0 15 7 15 15 0 16 -12 20 -23 8z"/>
<path d="M1940 750 c-8 -5 -11 -12 -7 -16 4 -4 13 -2 19 4 15 15 7 24 -12 12z"/>
<path d="M1975 750 c-3 -5 1 -10 9 -10 9 0 16 5 16 10 0 6 -4 10 -9 10 -6 0
-13 -4 -16 -10z"/>
<path d="M2015 750 c-3 -5 1 -10 9 -10 9 0 16 5 16 10 0 6 -4 10 -9 10 -6 0
-13 -4 -16 -10z"/>
<path d="M2330 750 c0 -5 4 -10 9 -10 6 0 13 5 16 10 3 6 -1 10 -9 10 -9 0
-16 -4 -16 -10z"/>
<path d="M2370 745 c0 -8 4 -15 9 -15 5 0 11 7 15 15 3 9 0 15 -9 15 -8 0 -15
-7 -15 -15z"/>
<path d="M2410 745 c0 -8 5 -15 10 -15 6 0 10 7 10 15 0 8 -4 15 -10 15 -5 0
-10 -7 -10 -15z"/>
<path d="M2447 746 c-3 -8 -2 -18 3 -21 13 -8 24 15 12 27 -6 6 -11 4 -15 -6z"/>
<path d="M1890 740 c0 -5 7 -10 15 -10 8 0 15 5 15 10 0 6 -7 10 -15 10 -8 0
-15 -4 -15 -10z"/>
<path d="M2487 743 c-12 -11 -8 -23 8 -23 8 0 15 7 15 15 0 16 -12 20 -23 8z"/>
<path d="M1810 730 c0 -5 4 -10 9 -10 6 0 13 5 16 10 3 6 -1 10 -9 10 -9 0
-16 -4 -16 -10z"/>
<path d="M1850 730 c0 -5 7 -7 15 -4 8 4 15 8 15 10 0 2 -7 4 -15 4 -8 0 -15
-4 -15 -10z"/>
<path d="M1770 720 c0 -5 7 -7 15 -4 8 4 15 8 15 10 0 2 -7 4 -15 4 -8 0 -15
-4 -15 -10z"/>
<path d="M1945 721 c-14 -6 -28 -32 -43 -81 -13 -39 -22 -73 -20 -74 1 -2 40
-6 85 -9 l81 -5 28 77 c15 42 29 82 32 89 5 14 -129 17 -163 3z"/>
<path d="M2126 722 c-3 -5 -18 -45 -35 -90 l-30 -82 22 -4 c12 -2 48 -10 80
-16 32 -6 60 -10 62 -8 10 11 81 198 77 203 -9 8 -170 6 -176 -3z"/>
<path d="M1695 710 c-3 -5 -1 -10 4 -10 6 0 11 5 11 10 0 6 -2 10 -4 10 -3 0
-8 -4 -11 -10z"/>
<path d="M1796 706 l-70 -11 -13 -50 c-20 -78 -22 -75 70 -75 l83 0 18 58 c10
31 20 65 22 75 6 20 -6 20 -110 3z"/>
<path d="M2281 620 c-23 -56 -41 -103 -39 -104 6 -4 152 -45 154 -43 1 1 24
52 52 114 38 84 46 113 36 117 -7 3 -46 8 -87 12 l-74 6 -42 -102z"/>
<path d="M1690 550 c0 -5 5 -10 10 -10 6 0 10 5 10 10 0 6 -4 10 -10 10 -5 0
-10 -4 -10 -10z"/>
<path d="M1730 550 c0 -5 5 -10 10 -10 6 0 10 5 10 10 0 6 -4 10 -10 10 -5 0
-10 -4 -10 -10z"/>
<path d="M1765 550 c-3 -5 1 -10 10 -10 9 0 13 5 10 10 -3 6 -8 10 -10 10 -2
0 -7 -4 -10 -10z"/>
<path d="M1800 550 c0 -5 5 -10 10 -10 6 0 10 5 10 10 0 6 -4 10 -10 10 -5 0
-10 -4 -10 -10z"/>
<path d="M1840 550 c0 -5 5 -10 10 -10 6 0 10 5 10 10 0 6 -4 10 -10 10 -5 0
-10 -4 -10 -10z"/>
<path d="M1875 540 c4 -6 11 -8 16 -5 14 9 11 15 -7 15 -8 0 -12 -5 -9 -10z"/>
<path d="M1910 540 c0 -5 5 -10 10 -10 6 0 10 5 10 10 0 6 -4 10 -10 10 -5 0
-10 -4 -10 -10z"/>
<path d="M1945 540 c-3 -5 1 -10 9 -10 9 0 16 5 16 10 0 6 -4 10 -9 10 -6 0
-13 -4 -16 -10z"/>
<path d="M1985 539 c-10 -15 3 -25 16 -12 7 7 7 13 1 17 -6 3 -14 1 -17 -5z"/>
<path d="M2020 530 c0 -5 5 -10 10 -10 6 0 10 5 10 10 0 6 -4 10 -10 10 -5 0
-10 -4 -10 -10z"/>
<path d="M2055 529 c-10 -15 3 -25 16 -12 7 7 7 13 1 17 -6 3 -14 1 -17 -5z"/>
<path d="M2090 521 c0 -6 5 -13 10 -16 6 -3 10 1 10 9 0 9 -4 16 -10 16 -5 0
-10 -4 -10 -9z"/>
<path d="M2125 510 c-3 -5 1 -10 9 -10 9 0 16 5 16 10 0 6 -4 10 -9 10 -6 0
-13 -4 -16 -10z"/>
<path d="M2160 505 c0 -8 5 -15 10 -15 6 0 10 7 10 15 0 8 -4 15 -10 15 -5 0
-10 -7 -10 -15z"/>
<path d="M2197 503 c-12 -11 -8 -23 8 -23 8 0 15 7 15 15 0 16 -12 20 -23 8z"/>
<path d="M2230 485 c0 -8 5 -15 10 -15 6 0 10 7 10 15 0 8 -4 15 -10 15 -5 0
-10 -7 -10 -15z"/>
<path d="M2265 479 c-4 -6 -5 -13 -2 -16 7 -7 27 6 27 18 0 12 -17 12 -25 -2z"/>
<path d="M2300 465 c0 -8 5 -15 10 -15 6 0 10 7 10 15 0 8 -4 15 -10 15 -5 0
-10 -7 -10 -15z"/>
<path d="M2330 455 c0 -8 4 -15 9 -15 5 0 11 7 15 15 3 9 0 15 -9 15 -8 0 -15
-7 -15 -15z"/>
<path d="M2365 449 c-4 -6 -5 -13 -2 -16 7 -7 27 6 27 18 0 12 -17 12 -25 -2z"/>
</g>
</svg>
