<?xml version="1.0" standalone="no"?>
<!DOCTYPE svg PUBLIC "-//W3C//DTD SVG 20010904//EN"
 "http://www.w3.org/TR/2001/REC-SVG-20010904/DTD/svg10.dtd">
<svg version="1.0" xmlns="http://www.w3.org/2000/svg"
 width="200.000000pt" height="200.000000pt" viewBox="0 0 200.000000 200.000000"
 preserveAspectRatio="xMidYMid meet">

<g transform="translate(0.000000,200.000000) scale(0.100000,-0.100000)"
fill="#000000" stroke="none">
<path d="M69 1721 l-29 -29 0 -692 0 -692 29 -29 29 -29 902 0 902 0 29 29 29
30 -2 553 c-3 517 -4 553 -20 556 -17 3 -18 -28 -18 -535 0 -471 -2 -541 -16
-561 l-15 -22 -889 0 -889 0 -15 22 c-14 20 -16 101 -16 678 0 577 2 658 16
678 l15 22 889 0 889 0 15 -22 c10 -14 16 -44 16 -80 l0 -58 -874 0 c-727 0
-875 -2 -885 -14 -29 -35 -4 -36 905 -34 l889 3 3 98 c3 97 2 98 -27 127 l-29
30 -902 0 -902 0 -29 -29z"/>
<path d="M211 1636 c-14 -17 -7 -36 14 -36 22 0 29 20 13 36 -13 13 -16 13
-27 0z"/>
<path d="M361 1636 c-14 -17 -7 -36 14 -36 22 0 29 20 13 36 -13 13 -16 13
-27 0z"/>
<path d="M511 1636 c-14 -17 -7 -36 14 -36 22 0 29 20 13 36 -13 13 -16 13
-27 0z"/>
<path d="M925 1408 c-3 -7 -4 -240 -3 -518 3 -497 3 -505 23 -505 20 0 20 7
20 515 0 483 -1 515 -18 518 -9 2 -19 -2 -22 -10z"/>
<path d="M494 1316 c-17 -8 -39 -24 -48 -37 -18 -27 -21 -91 -5 -120 8 -16 5
-26 -20 -54 -48 -55 -54 -172 -11 -195 10 -6 73 -10 139 -10 113 0 121 1 135
22 18 26 21 94 5 135 -5 15 -22 40 -36 54 -21 23 -23 30 -13 49 31 57 4 131
-55 156 -42 17 -51 17 -91 0z m95 -62 c26 -33 26 -54 1 -87 -27 -34 -25 -42 9
-68 37 -27 53 -65 49 -115 l-3 -39 -105 0 -105 0 -3 48 c-3 44 0 51 37 89 23
23 41 45 41 49 0 5 -9 23 -20 41 -25 41 -25 49 1 82 13 17 30 26 49 26 19 0
36 -9 49 -26z"/>
<path d="M1100 1272 c0 -24 8 -32 26 -25 22 8 17 43 -6 43 -13 0 -20 -7 -20
-18z"/>
<path d="M1317 1276 c-12 -31 16 -36 203 -36 187 0 215 5 203 36 -8 21 -398
21 -406 0z"/>
<path d="M1100 1040 c0 -20 4 -20 313 -18 269 3 312 5 312 18 0 13 -43 15
-312 18 -309 2 -313 2 -313 -18z"/>
<path d="M1103 824 c-8 -21 13 -42 28 -27 13 13 5 43 -11 43 -6 0 -13 -7 -17
-16z"/>
<path d="M1323 829 c-6 -6 -9 -18 -6 -25 8 -21 398 -21 406 0 12 31 -16 36
-203 36 -124 0 -190 -4 -197 -11z"/>
<path d="M303 745 c-3 -9 -1 -21 4 -26 5 -5 105 -8 244 -7 226 3 234 4 234 23
0 19 -8 20 -238 23 -209 2 -238 0 -244 -13z"/>
<path d="M1102 588 l3 -23 299 -3 c302 -2 332 1 319 34 -4 12 -56 14 -315 14
l-309 0 3 -22z"/>
<path d="M297 563 c-4 -3 -7 -12 -7 -20 0 -10 48 -13 250 -13 243 0 250 1 250
20 0 19 -7 20 -243 20 -134 0 -247 -3 -250 -7z"/>
</g>
</svg>
